<svg width="90" height="90" viewBox="0 0 90 90" fill="none" xmlns="http://www.w3.org/2000/svg">
    <circle cx="45" cy="45" r="45" fill="url(#paint0_linear_3510_8234)" />
    <circle cx="45" cy="45" r="45" fill="url(#paint1_linear_3510_8234)" fill-opacity="0.2" />
    <circle cx="45" cy="45" r="45" fill="url(#paint2_radial_3510_8234)" fill-opacity="0.2" />
    <path
        d="M19.3414 21.6021C19.3414 20.0614 20.5904 18.8125 22.131 18.8125H67.8689C69.4095 18.8125 70.6585 20.0614 70.6585 21.6021V29.4391C70.6585 30.9797 69.4096 32.2287 67.8689 32.2287H64.1372C63.4506 32.2287 62.788 31.9754 62.2765 31.5174L52.0156 22.3308C50.9635 21.3888 49.3735 21.3817 48.3129 22.3141L37.8259 31.5341C37.3167 31.9818 36.662 32.2287 35.984 32.2287H22.131C20.5904 32.2287 19.3414 30.9797 19.3414 29.4391V21.6021Z"
        fill="#9069F0" />
    <path
        d="M36.7384 38.8213C36.7384 37.8135 37.1554 36.8507 37.8904 36.1613L47.489 27.1581C49.6785 25.1045 53.2632 26.6569 53.2632 29.6588V69.6515C53.2632 71.33 51.9025 72.6906 50.224 72.6906H39.7775C38.0991 72.6906 36.7384 71.33 36.7384 69.6515V38.8213Z"
        fill="url(#paint3_linear_3510_8234)" />
    <defs>
        <linearGradient id="paint0_linear_3510_8234" x1="9.88935" y1="80.3023" x2="47.1801" y2="32.6455"
            gradientUnits="userSpaceOnUse">
            <stop stop-color="#212121" />
            <stop offset="1" />
        </linearGradient>
        <linearGradient id="paint1_linear_3510_8234" x1="41.4428" y1="70.5143" x2="51.728" y2="94.9118"
            gradientUnits="userSpaceOnUse">
            <stop stop-opacity="0" />
            <stop offset="0.729291" stop-color="#5220CB" />
        </linearGradient>
        <radialGradient id="paint2_radial_3510_8234" cx="0" cy="0" r="1" gradientUnits="userSpaceOnUse"
            gradientTransform="translate(45 42.7107) rotate(90) scale(51.3328 64.5507)">
            <stop offset="0.58654" stop-opacity="0" />
            <stop offset="0.822472" stop-color="#845BEA" />
            <stop offset="1" stop-opacity="0" />
        </radialGradient>
        <linearGradient id="paint3_linear_3510_8234" x1="45.0008" y1="21.7422" x2="45.0008" y2="72.6906"
            gradientUnits="userSpaceOnUse">
            <stop stop-color="#9069F0" />
            <stop offset="1" stop-color="#4A14CD" />
        </linearGradient>
    </defs>
</svg>