<svg width="15" height="13" viewBox="0 0 15 13" fill="none" xmlns="http://www.w3.org/2000/svg">
    <path
        d="M9.45068 0.186821C9.1235 -0.0800343 8.64089 -0.0609739 8.33578 0.243787C8.0307 0.548867 8.0119 1.03139 8.27881 1.3587L8.33578 1.42217L12.3307 5.41713H0.833333C0.373096 5.41713 0 5.79022 0 6.25046C0.000141462 6.71058 0.373184 7.08379 0.833333 7.08379H12.3291L8.33578 11.0771C8.01034 11.4026 8.01035 11.9301 8.33578 12.2555C8.66121 12.5809 9.18872 12.5809 9.51416 12.2555L14.6362 7.13344L14.7217 7.03822C15.0951 6.58001 15.0953 5.91917 14.7217 5.46107L14.6362 5.36586L9.51416 0.243787L9.45068 0.186821Z"
        fill="white" />
</svg>