<svg width="32" height="32" viewBox="0 0 32 32" fill="none" xmlns="http://www.w3.org/2000/svg">
    <g clip-path="url(#clip0_3510_11590)">
        <path
            d="M27.0895 5.82651C25.0149 4.87429 22.8255 4.19529 20.5762 3.80651C20.5556 3.80251 20.5344 3.80514 20.5154 3.814C20.4965 3.82287 20.4809 3.83752 20.4708 3.85584C20.1908 4.35584 19.8788 5.00784 19.6602 5.52251C17.2354 5.15422 14.7689 5.15422 12.3442 5.52251C12.1008 4.95224 11.8262 4.39584 11.5215 3.85584C11.511 3.83793 11.4953 3.82363 11.4765 3.81482C11.4577 3.80601 11.4366 3.80311 11.4162 3.80651C9.16662 4.19448 6.97712 4.87351 4.90282 5.82651C4.88526 5.83387 4.87037 5.84643 4.86015 5.86251C0.710819 12.0612 -0.426514 18.1065 0.132153 24.0758C0.13351 24.0907 0.137875 24.105 0.144982 24.1181C0.152089 24.1312 0.161789 24.1426 0.173486 24.1518C2.58895 25.9414 5.29097 27.3076 8.16415 28.1918C8.1844 28.1977 8.20596 28.1973 8.22596 28.1906C8.24597 28.1839 8.26347 28.1713 8.27615 28.1545C8.89215 27.3145 9.44149 26.4278 9.91082 25.4958C9.91737 25.4831 9.92116 25.4691 9.92192 25.4548C9.92268 25.4405 9.9204 25.4262 9.91524 25.4129C9.91007 25.3995 9.90214 25.3874 9.89195 25.3774C9.88177 25.3673 9.86957 25.3595 9.85615 25.3545C8.99405 25.0246 8.15944 24.6269 7.36015 24.1652C7.3455 24.1567 7.33317 24.1447 7.32426 24.1303C7.31535 24.116 7.31013 24.0996 7.30908 24.0827C7.30802 24.0658 7.31116 24.0489 7.31821 24.0335C7.32526 24.0181 7.336 24.0047 7.34949 23.9945C7.51781 23.8686 7.68318 23.7388 7.84549 23.6052C7.85968 23.5937 7.8768 23.5863 7.89493 23.584C7.91306 23.5816 7.93148 23.5843 7.94815 23.5918C13.1855 25.9825 18.8548 25.9825 24.0308 23.5918C24.0477 23.5841 24.0663 23.5812 24.0847 23.5835C24.1031 23.5859 24.1205 23.5934 24.1348 23.6052C24.2948 23.7358 24.4628 23.8692 24.6322 23.9945C24.6455 24.0046 24.6562 24.0177 24.6632 24.0329C24.6703 24.048 24.6736 24.0646 24.6728 24.0813C24.672 24.098 24.6672 24.1142 24.6587 24.1286C24.6502 24.143 24.6384 24.1551 24.6242 24.1638C23.8267 24.6299 22.9913 25.0278 22.1268 25.3532C22.1134 25.3583 22.1011 25.3663 22.0909 25.3764C22.0808 25.3866 22.0728 25.3989 22.0677 25.4123C22.0625 25.4258 22.0602 25.4402 22.061 25.4546C22.0618 25.4689 22.0656 25.483 22.0722 25.4958C22.5522 26.4265 23.1015 27.3118 23.7055 28.1532C23.7179 28.1703 23.7354 28.1831 23.7555 28.1898C23.7756 28.1965 23.7973 28.1968 23.8175 28.1905C26.6955 27.309 29.4019 25.9427 31.8202 24.1505C31.8319 24.1422 31.8418 24.1315 31.8492 24.1191C31.8565 24.1066 31.8612 24.0928 31.8628 24.0785C32.5295 17.1758 30.7455 11.1798 27.1308 5.86517C27.1224 5.84725 27.1077 5.83436 27.0895 5.82651ZM10.6935 20.4398C9.11615 20.4398 7.81749 18.9932 7.81749 17.2145C7.81749 15.4372 9.09215 13.9892 10.6935 13.9892C12.3068 13.9892 13.5948 15.4505 13.5695 17.2158C13.5695 18.9932 12.2948 20.4398 10.6935 20.4398ZM21.3268 20.4398C19.7495 20.4398 18.4508 18.9932 18.4508 17.2145C18.4508 15.4372 19.7242 13.9892 21.3268 13.9892C22.9402 13.9892 24.2282 15.4505 24.2028 17.2158C24.2028 18.9932 22.9415 20.4398 21.3268 20.4398Z"
            fill="#9CA3AF" />
    </g>
    <defs>
        <clipPath id="clip0_3510_11590">
            <rect width="32" height="32" fill="white" />
        </clipPath>
    </defs>
</svg>