<svg width="16" height="16" viewBox="0 0 16 16" fill="none" xmlns="http://www.w3.org/2000/svg">
    <path
        d="M7.68335 1.52863C7.71257 1.4696 7.7577 1.41992 7.81365 1.38518C7.86961 1.35044 7.93416 1.33203 8.00002 1.33203C8.06588 1.33203 8.13043 1.35044 8.18638 1.38518C8.24234 1.41992 8.28747 1.4696 8.31669 1.52863L9.85669 4.64796C9.95814 4.85327 10.1079 5.0309 10.2931 5.1656C10.4783 5.30029 10.6934 5.38804 10.92 5.42129L14.364 5.92529C14.4293 5.93475 14.4906 5.96228 14.541 6.00476C14.5914 6.04725 14.629 6.10299 14.6494 6.1657C14.6698 6.2284 14.6722 6.29556 14.6564 6.35958C14.6406 6.4236 14.6072 6.48193 14.56 6.52796L12.0694 8.95329C11.9051 9.11336 11.7822 9.31095 11.7112 9.52905C11.6403 9.74714 11.6234 9.97922 11.662 10.2053L12.25 13.632C12.2615 13.6972 12.2545 13.7643 12.2297 13.8258C12.2049 13.8872 12.1633 13.9404 12.1097 13.9793C12.0561 14.0182 11.9927 14.0413 11.9266 14.0459C11.8605 14.0505 11.7945 14.0364 11.736 14.0053L8.65735 12.3866C8.4545 12.2801 8.22881 12.2245 7.99969 12.2245C7.77057 12.2245 7.54487 12.2801 7.34202 12.3866L4.26402 14.0053C4.20557 14.0362 4.13962 14.0502 4.07365 14.0455C4.00769 14.0408 3.94437 14.0177 3.89088 13.9788C3.8374 13.9399 3.79591 13.8868 3.77112 13.8254C3.74634 13.7641 3.73926 13.6971 3.75069 13.632L4.33802 10.206C4.37682 9.97978 4.36001 9.74756 4.28904 9.52933C4.21808 9.31109 4.09509 9.1134 3.93069 8.95329L1.44002 6.52863C1.39242 6.48265 1.35868 6.42422 1.34266 6.36001C1.32664 6.2958 1.32898 6.22837 1.34941 6.16542C1.36983 6.10247 1.40753 6.04652 1.4582 6.00395C1.50888 5.96138 1.57049 5.93389 1.63602 5.92463L5.07935 5.42129C5.30619 5.38829 5.52161 5.30067 5.70708 5.16595C5.89254 5.03124 6.04249 4.85347 6.14402 4.64796L7.68335 1.52863Z"
        fill="#9187FF" stroke="#9187FF" stroke-width="1.33333" stroke-linecap="round" stroke-linejoin="round" />
</svg>