<svg width="15" height="15" viewBox="0 0 15 15" fill="none" xmlns="http://www.w3.org/2000/svg">
    <path fill-rule="evenodd" clip-rule="evenodd"
        d="M5 0C5.46024 0 5.83333 0.373096 5.83333 0.833333V14.1667C5.83333 14.6269 5.46024 15 5 15C4.53976 15 4.16667 14.6269 4.16667 14.1667V0.833333C4.16667 0.373096 4.53976 0 5 0ZM13.3333 0C13.7936 0 14.1667 0.373096 14.1667 0.833333V14.1667C14.1667 14.6269 13.7936 15 13.3333 15C12.8731 15 12.5 14.6269 12.5 14.1667V0.833333C12.5 0.373096 12.8731 0 13.3333 0ZM0.833333 5.92594C1.29357 5.92594 1.66667 6.29904 1.66667 6.75928V14.1667C1.66667 14.6269 1.29357 15 0.833333 15C0.373096 15 0 14.6269 0 14.1667V6.75928C0 6.29904 0.373096 5.92594 0.833333 5.92594ZM9.16667 5.92594C9.6269 5.92594 10 6.29904 10 6.75928V14.1667C10 14.6269 9.6269 15 9.16667 15C8.70643 15 8.33333 14.6269 8.33333 14.1667V6.75928C8.33333 6.29904 8.70643 5.92594 9.16667 5.92594Z"
        fill="white" />
</svg>