<svg width="48" height="48" viewBox="0 0 48 48" fill="none" xmlns="http://www.w3.org/2000/svg">
    <mask id="path-1-inside-1_3510_8287" fill="white">
        <path
            d="M0 12C0 5.37258 5.37258 0 12 0H36C42.6274 0 48 5.37258 48 12V36C48 42.6274 42.6274 48 36 48H12C5.37258 48 0 42.6274 0 36V12Z" />
    </mask>
    <path
        d="M12 0V1H36V0V-1H12V0ZM48 12H47V36H48H49V12H48ZM36 48V47H12V48V49H36V48ZM0 36H1V12H0H-1V36H0ZM12 48V47C5.92487 47 1 42.0751 1 36H0H-1C-1 43.1797 4.8203 49 12 49V48ZM48 36H47C47 42.0751 42.0751 47 36 47V48V49C43.1797 49 49 43.1797 49 36H48ZM36 0V1C42.0751 1 47 5.92487 47 12H48H49C49 4.8203 43.1797 -1 36 -1V0ZM12 0V-1C4.8203 -1 -1 4.8203 -1 12H0H1C1 5.92487 5.92487 1 12 1V0Z"
        fill="#409B3F" mask="url(#path-1-inside-1_3510_8287)" />
    <path
        d="M32 25.0004C32 30.0004 28.5 32.5005 24.34 33.9505C24.1222 34.0243 23.8855 34.0207 23.67 33.9405C19.5 32.5005 16 30.0004 16 25.0004V18.0004C16 17.7352 16.1054 17.4809 16.2929 17.2933C16.4804 17.1058 16.7348 17.0004 17 17.0004C19 17.0004 21.5 15.8004 23.24 14.2804C23.4519 14.0994 23.7214 14 24 14C24.2786 14 24.5481 14.0994 24.76 14.2804C26.51 15.8104 29 17.0004 31 17.0004C31.2652 17.0004 31.5196 17.1058 31.7071 17.2933C31.8946 17.4809 32 17.7352 32 18.0004V25.0004Z"
        stroke="#409B3F" stroke-width="2" stroke-linecap="round" stroke-linejoin="round" />
</svg>