<svg width="48" height="48" viewBox="0 0 48 48" fill="none" xmlns="http://www.w3.org/2000/svg">
    <mask id="path-1-inside-1_3510_8277" fill="white">
        <path
            d="M0 12C0 5.37258 5.37258 0 12 0H36C42.6274 0 48 5.37258 48 12V36C48 42.6274 42.6274 48 36 48H12C5.37258 48 0 42.6274 0 36V12Z" />
    </mask>
    <path
        d="M12 0V1H36V0V-1H12V0ZM48 12H47V36H48H49V12H48ZM36 48V47H12V48V49H36V48ZM0 36H1V12H0H-1V36H0ZM12 48V47C5.92487 47 1 42.0751 1 36H0H-1C-1 43.1797 4.8203 49 12 49V48ZM48 36H47C47 42.0751 42.0751 47 36 47V48V49C43.1797 49 49 43.1797 49 36H48ZM36 0V1C42.0751 1 47 5.92487 47 12H48H49C49 4.8203 43.1797 -1 36 -1V0ZM12 0V-1C4.8203 -1 -1 4.8203 -1 12H0H1C1 5.92487 5.92487 1 12 1V0Z"
        fill="#FFC30A" fill-opacity="0.4" mask="url(#path-1-inside-1_3510_8277)" />
    <path
        d="M16 25.9987C15.8108 25.9993 15.6252 25.9463 15.4649 25.8457C15.3047 25.7451 15.1762 25.6011 15.0945 25.4304C15.0129 25.2597 14.9813 25.0693 15.0035 24.8814C15.0257 24.6934 15.1008 24.5157 15.22 24.3687L25.12 14.1687C25.1943 14.083 25.2955 14.0251 25.407 14.0044C25.5185 13.9838 25.6337 14.0017 25.7337 14.0552C25.8337 14.1087 25.9126 14.1946 25.9573 14.2988C26.0021 14.403 26.0101 14.5193 25.98 14.6287L24.06 20.6487C24.0034 20.8002 23.9844 20.9632 24.0046 21.1237C24.0248 21.2842 24.0837 21.4374 24.1761 21.5701C24.2685 21.7029 24.3918 21.8112 24.5353 21.8859C24.6788 21.9605 24.8382 21.9992 25 21.9987H32C32.1892 21.9981 32.3748 22.0511 32.535 22.1517C32.6953 22.2523 32.8238 22.3963 32.9054 22.567C32.9871 22.7377 33.0187 22.9281 32.9965 23.116C32.9743 23.304 32.8992 23.4817 32.78 23.6287L22.88 33.8287C22.8057 33.9144 22.7045 33.9723 22.593 33.993C22.4815 34.0136 22.3663 33.9957 22.2663 33.9422C22.1663 33.8887 22.0874 33.8028 22.0427 33.6986C21.9979 33.5944 21.9899 33.4781 22.02 33.3687L23.94 27.3487C23.9966 27.1972 24.0156 27.0342 23.9954 26.8737C23.9752 26.7132 23.9163 26.56 23.8239 26.4273C23.7315 26.2945 23.6082 26.1862 23.4647 26.1115C23.3212 26.0369 23.1617 25.9982 23 25.9987H16Z"
        stroke="#FFC30A" stroke-width="2" stroke-linecap="round" stroke-linejoin="round" />
</svg>