<svg width="325" height="208" viewBox="0 0 325 208" fill="none" xmlns="http://www.w3.org/2000/svg">
<path d="M32.7112 135.388L17.2717 144.159V130.667L33.0579 121.196L32.7112 135.388Z" fill="#101010" stroke="#9069F0" stroke-width="0.734981"/>
<path d="M16.5371 130.669V144.161L0.367188 135.021V121.179L16.5371 130.669Z" fill="#101010" stroke="#9069F0" stroke-width="0.734981"/>
<path d="M32.7168 120.543L16.9023 130.032L0.735352 120.543L16.9023 111.405L32.7168 120.543Z" fill="#101010" stroke="#9069F0" stroke-width="0.734981"/>
<path d="M88.5698 74.3838L73.1304 83.1553V69.6631L88.9165 60.1924L88.5698 74.3838Z" fill="#101010" stroke="#9069F0" stroke-width="0.734981"/>
<path d="M72.3956 69.665V83.1572L56.2257 74.0176V60.1748L72.3956 69.665Z" fill="#101010" stroke="#9069F0" stroke-width="0.734981"/>
<path d="M88.5753 59.5391L72.7609 69.0283L56.5939 59.5391L72.7609 50.4014L88.5753 59.5391Z" fill="#101010" stroke="#9069F0" stroke-width="0.734981"/>
<path d="M178.972 24.4053L163.533 33.1768V19.6846L179.319 10.2139L178.972 24.4053Z" fill="#101010" stroke="#9069F0" stroke-width="0.734981"/>
<path d="M162.798 19.6865V33.1787L146.628 24.0391V10.1963L162.798 19.6865Z" fill="#101010" stroke="#9069F0" stroke-width="0.734981"/>
<path d="M178.978 9.56055L163.163 19.0498L146.996 9.56055L163.163 0.422852L178.978 9.56055Z" fill="#101010" stroke="#9069F0" stroke-width="0.734981"/>
<path d="M241.446 121.423L226.006 130.194V116.702L241.792 107.231L241.446 121.423Z" fill="#101010" stroke="#9069F0" stroke-width="0.734981"/>
<path d="M225.272 116.704V130.196L209.102 121.057V107.214L225.272 116.704Z" fill="#101010" stroke="#9069F0" stroke-width="0.734981"/>
<path d="M241.451 106.578L225.637 116.067L209.47 106.578L225.637 97.4404L241.451 106.578Z" fill="#101010" stroke="#9069F0" stroke-width="0.734981"/>
<path d="M38.9541 23.5186H110.982" stroke="#9069F0" stroke-width="1.46996"/>
<circle cx="116.862" cy="23.5195" r="5.14487" fill="#101010" stroke="#9069F0" stroke-width="1.46996"/>
<path d="M274.883 23.5186L220.494 23.5185" stroke="#9069F0" stroke-width="1.46996"/>
<circle cx="214.614" cy="23.5186" r="5.14487" transform="rotate(-180 214.614 23.5186)" fill="#101010" stroke="#9069F0" stroke-width="1.46996"/>
<circle cx="62.4733" cy="112.452" r="5.14487" transform="rotate(-180 62.4733 112.452)" fill="#101010" stroke="#9069F0" stroke-width="1.46996"/>
<circle cx="191.83" cy="112.452" r="5.14487" transform="rotate(-180 191.83 112.452)" fill="#101010" stroke="#9069F0" stroke-width="1.46996"/>
<circle cx="220.494" cy="186.686" r="5.14487" transform="rotate(-180 220.494 186.686)" fill="#101010" stroke="#9069F0" stroke-width="1.46996"/>
<circle cx="308.692" cy="122.742" r="5.14487" transform="rotate(-180 308.692 122.742)" fill="#101010" stroke="#9069F0" stroke-width="1.46996"/>
<path d="M72.3955 113.188H180.438" stroke="#9069F0" stroke-width="1.46996"/>
<path d="M16.5371 38.2197V68.3539C16.5371 70.7894 18.5115 72.7638 20.947 72.7638H38.219C40.6545 72.7638 42.6289 74.7382 42.6289 77.1737V160.962C42.6289 163.397 44.6033 165.371 47.0388 165.371H61.0034C63.439 165.371 65.4133 163.397 65.4133 160.962V131.562C65.4133 129.127 67.3877 127.152 69.8232 127.152H129.724" stroke="#9069F0" stroke-width="1.46996"/>
<path d="M292.89 38.2197V97.7532C292.89 100.189 290.915 102.163 288.48 102.163H271.208" stroke="#9069F0" stroke-width="1.46996"/>
<path d="M72.3956 50.7141V47.7741C72.3956 45.3386 74.37 43.3643 76.8055 43.3643H135.236C137.672 43.3643 139.646 45.3386 139.646 47.7741V73.131C139.646 75.5665 141.621 77.5409 144.056 77.5409H166.473M179.335 62.8412V47.7741C179.335 45.3386 181.31 43.3643 183.745 43.3643H266.431C268.866 43.3643 270.84 45.3386 270.84 47.7741V160.961C270.84 163.397 268.866 165.371 266.431 165.371H204.325C201.889 165.371 199.915 163.397 199.915 160.961V144.057M72.3956 84.1557V97.7528C72.3956 100.188 74.37 102.163 76.8055 102.163H191.83C194.266 102.163 196.24 100.188 196.24 97.7528V76.8059C196.24 74.3704 198.214 72.396 200.65 72.396H250.996C253.431 72.396 255.406 74.3704 255.406 76.8059V134.134M225.639 130.459V138.544C225.639 140.98 223.665 142.954 221.229 142.954H188.155" stroke="#9069F0" stroke-width="1.46996"/>
<path d="M185.95 77.5411V67.9863H171.618" stroke="#9069F0" stroke-width="1.46996"/>
<path d="M93.7101 181.174V183.011C93.7101 185.447 91.7357 187.421 89.3002 187.421H30.5017" stroke="#9069F0" stroke-width="1.46996"/>
<path d="M16.5371 148.467V173.089" stroke="#9069F0" stroke-width="1.46996"/>
<path d="M308.324 133.032V173.089M295.095 187.053H225.639" stroke="#9069F0" stroke-width="1.46996"/>
<circle cx="155.081" cy="102.163" r="5.14487" transform="rotate(-180 155.081 102.163)" fill="#101010" stroke="#9069F0" stroke-width="1.46996"/>
<g filter="url(#filter0_d_3918_429998)">
<mask id="path-30-inside-1_3918_429998" fill="white">
<path d="M163.166 109.512C163.166 112.166 162.709 114.794 161.823 117.246C160.937 119.698 159.637 121.927 157.999 123.804C156.361 125.681 154.416 127.17 152.276 128.186C150.136 129.201 147.843 129.724 145.526 129.724C143.21 129.724 140.916 129.201 138.776 128.186C136.636 127.17 134.691 125.681 133.053 123.804C131.415 121.927 130.116 119.698 129.229 117.246C128.343 114.794 127.887 112.166 127.887 109.512H133.766C133.766 111.249 134.071 112.969 134.662 114.574C135.253 116.179 136.119 117.638 137.211 118.866C138.303 120.095 139.599 121.07 141.026 121.734C142.453 122.399 143.982 122.741 145.526 122.741C147.07 122.741 148.6 122.399 150.026 121.734C151.453 121.07 152.75 120.095 153.842 118.866C154.934 117.638 155.8 116.179 156.391 114.574C156.981 112.969 157.286 111.249 157.286 109.512H163.166Z"/>
</mask>
<path d="M163.166 109.512C163.166 112.166 162.709 114.794 161.823 117.246C160.937 119.698 159.637 121.927 157.999 123.804C156.361 125.681 154.416 127.17 152.276 128.186C150.136 129.201 147.843 129.724 145.526 129.724C143.21 129.724 140.916 129.201 138.776 128.186C136.636 127.17 134.691 125.681 133.053 123.804C131.415 121.927 130.116 119.698 129.229 117.246C128.343 114.794 127.887 112.166 127.887 109.512H133.766C133.766 111.249 134.071 112.969 134.662 114.574C135.253 116.179 136.119 117.638 137.211 118.866C138.303 120.095 139.599 121.07 141.026 121.734C142.453 122.399 143.982 122.741 145.526 122.741C147.07 122.741 148.6 122.399 150.026 121.734C151.453 121.07 152.75 120.095 153.842 118.866C154.934 117.638 155.8 116.179 156.391 114.574C156.981 112.969 157.286 111.249 157.286 109.512H163.166Z" fill="#101010"/>
<path d="M163.166 109.512H163.901V108.777H163.166V109.512ZM161.823 117.246L162.514 117.496L162.514 117.496L161.823 117.246ZM157.999 123.804L158.553 124.287L158.553 124.287L157.999 123.804ZM152.276 128.186L152.591 128.85L152.591 128.85L152.276 128.186ZM145.526 129.724V130.459H145.526L145.526 129.724ZM138.776 128.186L138.461 128.85L138.461 128.85L138.776 128.186ZM133.053 123.804L132.499 124.287L132.499 124.287L133.053 123.804ZM129.229 117.246L128.538 117.496L128.538 117.496L129.229 117.246ZM127.887 109.512V108.777H127.152L127.152 109.512L127.887 109.512ZM133.766 109.512L134.501 109.512V108.777H133.766V109.512ZM134.662 114.574L133.972 114.828L133.972 114.828L134.662 114.574ZM137.211 118.866L136.661 119.354L136.661 119.355L137.211 118.866ZM141.026 121.734L140.716 122.401L140.716 122.401L141.026 121.734ZM145.526 122.741V123.476H145.526L145.526 122.741ZM150.026 121.734L150.337 122.401L150.337 122.401L150.026 121.734ZM153.842 118.866L154.391 119.355L154.391 119.354L153.842 118.866ZM156.391 114.574L157.08 114.828L157.08 114.828L156.391 114.574ZM157.286 109.512V108.777H156.551V109.512H157.286ZM163.166 109.512H162.431C162.431 112.082 161.989 114.626 161.132 116.996L161.823 117.246L162.514 117.496C163.43 114.962 163.901 112.25 163.901 109.512H163.166ZM161.823 117.246L161.132 116.996C160.275 119.367 159.02 121.515 157.445 123.32L157.999 123.804L158.553 124.287C160.253 122.338 161.598 120.03 162.514 117.496L161.823 117.246ZM157.999 123.804L157.445 123.32C155.87 125.125 154.005 126.551 151.961 127.522L152.276 128.186L152.591 128.85C154.827 127.788 156.852 126.236 158.553 124.287L157.999 123.804ZM152.276 128.186L151.961 127.522C149.917 128.491 147.731 128.989 145.526 128.989L145.526 129.724L145.526 130.459C147.954 130.459 150.355 129.911 152.591 128.85L152.276 128.186ZM145.526 129.724V128.989C143.321 128.989 141.135 128.491 139.091 127.522L138.776 128.186L138.461 128.85C140.697 129.911 143.099 130.459 145.526 130.459V129.724ZM138.776 128.186L139.091 127.522C137.047 126.551 135.181 125.125 133.606 123.32L133.053 123.804L132.499 124.287C134.2 126.236 136.225 127.788 138.461 128.85L138.776 128.186ZM133.053 123.804L133.606 123.32C132.031 121.516 130.778 119.367 129.921 116.996L129.229 117.246L128.538 117.496C129.454 120.03 130.798 122.338 132.499 124.287L133.053 123.804ZM129.229 117.246L129.921 116.996C129.064 114.626 128.622 112.082 128.622 109.512L127.887 109.512L127.152 109.512C127.152 112.25 127.622 114.962 128.538 117.496L129.229 117.246ZM127.887 109.512V110.247H133.766V109.512V108.777H127.887V109.512ZM133.766 109.512L133.031 109.512C133.031 111.334 133.351 113.141 133.972 114.828L134.662 114.574L135.352 114.32C134.791 112.798 134.501 111.164 134.501 109.512L133.766 109.512ZM134.662 114.574L133.972 114.828C134.594 116.516 135.506 118.055 136.661 119.354L137.211 118.866L137.76 118.378C136.732 117.221 135.912 115.843 135.352 114.32L134.662 114.574ZM137.211 118.866L136.661 119.355C137.817 120.655 139.194 121.691 140.716 122.401L141.026 121.734L141.337 121.068C140.005 120.448 138.789 119.535 137.76 118.378L137.211 118.866ZM141.026 121.734L140.716 122.401C142.238 123.11 143.873 123.476 145.526 123.476V122.741V122.006C144.091 122.006 142.668 121.689 141.337 121.068L141.026 121.734ZM145.526 122.741L145.526 123.476C147.18 123.476 148.815 123.11 150.337 122.401L150.026 121.734L149.716 121.068C148.384 121.689 146.961 122.006 145.526 122.006L145.526 122.741ZM150.026 121.734L150.337 122.401C151.858 121.691 153.235 120.655 154.391 119.355L153.842 118.866L153.292 118.378C152.264 119.535 151.048 120.448 149.716 121.068L150.026 121.734ZM153.842 118.866L154.391 119.354C155.546 118.055 156.459 116.516 157.08 114.828L156.391 114.574L155.701 114.32C155.14 115.843 154.321 117.221 153.292 118.378L153.842 118.866ZM156.391 114.574L157.08 114.828C157.702 113.141 158.021 111.334 158.021 109.512H157.286H156.551C156.551 111.164 156.261 112.798 155.701 114.32L156.391 114.574ZM157.286 109.512V110.247H163.166V109.512V108.777H157.286V109.512Z" fill="#9069F0" mask="url(#path-30-inside-1_3918_429998)"/>
</g>
<path d="M181.54 149.937V177.865C181.54 185.578 175.288 191.83 167.576 191.83H156.551C148.838 191.83 142.587 185.578 142.587 177.865V149.937H181.54Z" fill="#101010" stroke="#9069F0" stroke-width="1.46996"/>
<rect x="142.586" y="119.801" width="8.81977" height="36.0141" rx="4.40988" fill="#101010" stroke="#9069F0" stroke-width="1.46996"/>
<rect x="142.586" y="136.707" width="8.81977" height="19.1095" rx="4.40988" fill="#101010" stroke="#9069F0" stroke-width="1.46996"/>
<rect x="152.876" y="138.176" width="8.81977" height="17.6395" rx="4.40988" fill="#101010" stroke="#9069F0" stroke-width="1.46996"/>
<rect x="163.166" y="140.38" width="8.81977" height="15.4346" rx="4.40988" fill="#101010" stroke="#9069F0" stroke-width="1.46996"/>
<rect x="172.72" y="144.056" width="8.81977" height="11.7597" rx="4.40988" fill="#101010" stroke="#9069F0" stroke-width="1.46996"/>
<path d="M125.43 157.035C127.152 155.312 129.944 155.312 131.666 157.034L137.951 163.319L131.715 169.555L125.43 163.27C123.708 161.548 123.708 158.757 125.43 157.035Z" fill="#101010" stroke="#9069F0" stroke-width="1.46996"/>
<path d="M148.902 178.549C146.643 180.662 143.116 180.603 140.929 178.417L132.206 169.694L137.985 163.672L147.861 169.4C151.188 171.33 151.71 175.922 148.902 178.549Z" fill="#101010" stroke="#9069F0" stroke-width="1.97086"/>
<rect x="151.406" y="191.095" width="21.3144" height="8.08479" fill="#101010" stroke="#9069F0" stroke-width="1.46996"/>
<path d="M150.671 199.181H173.455C176.297 199.181 178.601 201.484 178.601 204.325V207.265H145.527V204.325C145.527 201.484 147.83 199.181 150.671 199.181Z" fill="#101010" stroke="#9069F0" stroke-width="1.46996"/>
<g clip-path="url(#clip0_3918_429998)">
<rect width="22.0494" height="22.0494" transform="translate(83.0529 158.021)" fill="#101010"/>
<path fill-rule="evenodd" clip-rule="evenodd" d="M94.2347 165.979C95.8505 166.06 97.1568 167.391 97.1568 169.045L97.1523 169.204C97.0719 170.785 95.7985 172.033 94.2347 172.112L94.0776 172.116C92.4424 172.116 91.0851 170.837 91.0021 169.204L90.9985 169.045L91.0021 168.887C91.0851 167.254 92.4424 165.975 94.0776 165.975L94.2347 165.979ZM94.0776 167.813C93.3919 167.813 92.8359 168.365 92.8359 169.045C92.8359 169.683 93.3243 170.209 93.9502 170.272L94.0776 170.278C94.7204 170.278 95.2497 169.793 95.3131 169.171L95.3194 169.045C95.3194 168.365 94.7631 167.813 94.0776 167.813Z" fill="#9069F0"/>
<path fill-rule="evenodd" clip-rule="evenodd" d="M94.2427 158.944C95.9383 159.03 97.2788 160.431 97.2788 162.136C97.2789 162.754 97.9415 163.122 98.4586 162.824L98.604 162.745C100.114 161.972 101.981 162.513 102.836 163.994L102.914 164.139C103.659 165.593 103.182 167.382 101.806 168.272L101.665 168.358L101.573 168.42C101.14 168.756 101.171 169.446 101.665 169.733L101.806 169.82C103.181 170.71 103.659 172.498 102.914 173.952L102.836 174.097L102.753 174.233C101.893 175.566 100.182 176.062 98.7466 175.415L98.604 175.346L98.4586 175.267C97.9417 174.969 97.2789 175.336 97.2788 175.955L97.2743 176.119C97.1888 177.803 95.7951 179.151 94.0776 179.151L93.9126 179.147C92.2713 179.064 90.962 177.749 90.8792 176.119L90.8747 175.955C90.8746 175.375 90.2923 175.016 89.7944 175.219L89.6958 175.267C88.2564 176.098 86.4412 175.685 85.4933 174.368L85.4045 174.237L85.3184 174.097C84.4657 172.619 84.9272 170.74 86.3492 169.82L86.4901 169.733C86.983 169.447 87.0141 168.758 86.5834 168.421L86.491 168.358L86.3501 168.272C84.9269 167.353 84.4661 165.473 85.3184 163.995L85.4045 163.853C86.324 162.434 88.2092 161.966 89.6958 162.824L89.7944 162.873C90.2611 163.063 90.8018 162.759 90.8675 162.242L90.8747 162.136C90.8747 160.376 92.3044 158.939 94.0776 158.939L94.2427 158.944ZM94.0776 160.777C93.3668 160.777 92.7889 161.316 92.7193 161.998L92.7121 162.136C92.712 164.001 90.8893 165.178 89.2588 164.633L89.1018 164.575L89.0417 164.551L88.9843 164.522L88.8309 164.446L88.777 164.416C88.1436 164.05 87.341 164.248 86.9494 164.847L86.91 164.913L86.849 165.032C86.5751 165.637 86.78 166.358 87.3406 166.724L87.4492 166.791C89.1458 167.81 89.1448 170.273 87.4546 171.295L87.4555 171.296L87.3397 171.366C86.7412 171.759 86.5501 172.554 86.91 173.178L86.9468 173.239L87.0248 173.347C87.4373 173.864 88.1831 174.019 88.7779 173.676L88.8309 173.645L88.9843 173.57L89.0417 173.541L89.1009 173.517C90.7159 172.859 92.591 173.956 92.7067 175.776L92.7121 175.955C92.7121 176.7 93.3194 177.314 94.0776 177.314C94.7872 177.314 95.3648 176.775 95.4342 176.093L95.4414 175.955C95.4415 173.92 97.6149 172.701 99.3343 173.653L99.4527 173.716C100.089 174.034 100.869 173.807 101.235 173.193L101.281 173.107C101.589 172.497 101.391 171.745 100.814 171.366L100.699 171.296C99.0088 170.273 99.0103 167.809 100.706 166.791L100.815 166.724C101.389 166.347 101.59 165.596 101.282 164.984L101.235 164.897C100.868 164.283 100.086 164.057 99.45 164.376L99.3352 164.439L99.3343 164.437C97.6692 165.359 95.5781 164.246 95.4477 162.326L95.4414 162.136C95.4414 161.437 94.9079 160.854 94.2176 160.784L94.0776 160.777Z" fill="#9069F0"/>
</g>
<rect width="22.0494" height="22.0494" transform="translate(244.749 136.706)" fill="#101010"/>
<path fill-rule="evenodd" clip-rule="evenodd" d="M255.93 144.664C257.546 144.746 258.852 146.076 258.852 147.731L258.848 147.89C258.768 149.47 257.494 150.719 255.93 150.798L255.773 150.801C254.138 150.801 252.781 149.523 252.698 147.89L252.694 147.731L252.698 147.572C252.781 145.939 254.138 144.661 255.773 144.661L255.93 144.664ZM255.773 146.498C255.088 146.498 254.532 147.05 254.532 147.731C254.532 148.369 255.02 148.894 255.646 148.957L255.773 148.964C256.416 148.963 256.945 148.478 257.009 147.857L257.015 147.731C257.015 147.05 256.459 146.499 255.773 146.498Z" fill="#9069F0"/>
<path fill-rule="evenodd" clip-rule="evenodd" d="M255.938 137.629C257.634 137.716 258.975 139.117 258.975 140.822C258.975 141.44 259.637 141.807 260.154 141.51L260.3 141.431C261.81 140.658 263.676 141.199 264.532 142.68L264.61 142.824C265.354 144.279 264.877 146.068 263.502 146.958L263.361 147.044L263.268 147.106C262.836 147.442 262.867 148.132 263.361 148.418L263.502 148.505C264.877 149.396 265.354 151.184 264.61 152.638L264.532 152.782L264.448 152.919C263.588 154.251 261.878 154.747 260.442 154.1L260.3 154.032L260.154 153.953C259.637 153.655 258.975 154.022 258.975 154.64L258.97 154.804C258.884 156.488 257.491 157.837 255.773 157.837L255.608 157.832C253.967 157.749 252.658 156.434 252.575 154.804L252.57 154.64C252.57 154.061 251.988 153.702 251.49 153.905L251.391 153.953C249.952 154.783 248.137 154.37 247.189 153.053L247.1 152.923L247.014 152.782C246.161 151.305 246.623 149.425 248.045 148.505L248.186 148.418C248.679 148.132 248.71 147.443 248.279 147.107L248.187 147.044L248.046 146.958C246.623 146.038 246.162 144.159 247.014 142.681L247.1 142.539C248.02 141.119 249.905 140.652 251.391 141.51L251.49 141.558C251.957 141.748 252.497 141.444 252.563 140.928L252.57 140.822C252.57 139.062 254 137.625 255.773 137.625L255.938 137.629ZM255.773 139.462C255.063 139.462 254.485 140.002 254.415 140.684L254.408 140.822C254.408 142.687 252.585 143.864 250.955 143.319L250.797 143.26L250.737 143.236L250.68 143.207L250.527 143.132L250.473 143.101C249.839 142.736 249.037 142.934 248.645 143.532L248.606 143.599L248.545 143.718C248.271 144.322 248.476 145.043 249.036 145.41L249.145 145.476C250.841 146.495 250.84 148.958 249.15 149.98L249.151 149.981L249.035 150.052C248.437 150.445 248.246 151.24 248.606 151.863L248.642 151.924L248.72 152.032C249.133 152.549 249.879 152.705 250.474 152.361L250.527 152.331L250.68 152.256L250.737 152.227L250.797 152.203C252.412 151.545 254.287 152.641 254.402 154.462L254.408 154.64C254.408 155.386 255.015 156 255.773 156C256.483 155.999 257.06 155.461 257.13 154.778L257.137 154.64C257.137 152.606 259.311 151.386 261.03 152.338L261.148 152.402C261.784 152.719 262.565 152.492 262.93 151.879L262.977 151.793C263.285 151.182 263.086 150.43 262.509 150.052L262.395 149.981C260.705 148.958 260.706 146.494 262.402 145.476L262.51 145.409C263.085 145.032 263.286 144.281 262.978 143.669L262.93 143.582C262.564 142.968 261.782 142.742 261.146 143.062L261.031 143.125L261.03 143.123C259.365 144.045 257.274 142.931 257.143 141.012L257.137 140.822C257.137 140.122 256.604 139.54 255.913 139.47L255.773 139.462Z" fill="#9069F0"/>
<g filter="url(#filter1_dd_3918_429998)">
<rect width="27.9293" height="27.9293" transform="translate(2.93982 173.456)" fill="#101010"/>
<path d="M16.9045 201.385C24.6169 201.385 30.8691 195.133 30.8691 187.421C30.8691 179.708 24.6169 173.456 16.9045 173.456C9.192 173.456 2.93982 179.708 2.93982 187.421C2.93982 195.133 9.192 201.385 16.9045 201.385Z" stroke="#9069F0" stroke-width="1.46996"/>
<path fill-rule="evenodd" clip-rule="evenodd" d="M20.3822 177.539C20.4381 177.542 20.4929 177.559 20.5414 177.587C22.6588 178.269 24.5051 179.606 25.8148 181.404C27.1246 183.203 27.8304 185.37 27.8304 187.595C27.8304 189.819 27.1245 191.987 25.8148 193.785C24.5051 195.583 22.6588 196.92 20.5414 197.602C20.4733 197.649 20.3909 197.67 20.309 197.661C20.2044 197.639 20.1114 197.58 20.0472 197.494C19.9831 197.408 19.9515 197.302 19.9594 197.195V196.29C19.9661 196.2 19.9945 196.112 20.0414 196.034C20.104 195.93 20.1974 195.847 20.309 195.799C21.9831 195.185 23.4286 194.071 24.4496 192.609C25.4705 191.147 26.0179 189.407 26.0179 187.624C26.0179 185.841 25.4705 184.101 24.4496 182.639C23.4286 181.177 21.9831 180.063 20.309 179.449C20.2101 179.385 20.1273 179.299 20.0668 179.198C20.0063 179.097 19.9692 178.983 19.9594 178.866V178.053C19.9594 177.936 19.9599 177.877 20.017 177.82C20.0285 177.765 20.0531 177.714 20.0883 177.671C20.1234 177.627 20.168 177.592 20.2191 177.569C20.2702 177.546 20.3263 177.536 20.3822 177.539ZM14.3724 177.528C14.4773 177.55 14.5707 177.61 14.6351 177.695C14.6996 177.781 14.7309 177.887 14.723 177.994V178.899C14.7161 178.99 14.6882 179.078 14.641 179.156C14.5782 179.26 14.4841 179.342 14.3724 179.391C12.6983 180.005 11.2528 181.118 10.2318 182.58C9.21091 184.042 8.66348 185.782 8.66345 187.565C8.66345 189.348 9.21097 191.089 10.2318 192.551C11.2528 194.013 12.6984 195.126 14.3724 195.74C14.5475 195.857 14.7228 196.089 14.723 196.265V197.079C14.723 197.196 14.7228 197.254 14.6644 197.312C14.6527 197.367 14.6283 197.418 14.5931 197.462C14.5579 197.505 14.5124 197.54 14.4613 197.562C14.4104 197.585 14.3548 197.595 14.2992 197.592C14.2433 197.589 14.1884 197.573 14.14 197.545C12.0218 196.872 10.1729 195.541 8.86072 193.747C7.54857 191.953 6.84119 189.788 6.84119 187.565C6.84122 185.343 7.54851 183.178 8.86072 181.384C10.1729 179.59 12.0219 178.26 14.14 177.587C14.2081 177.541 14.2906 177.52 14.3724 177.528ZM17.7533 180.55C18.0438 180.608 18.2189 180.781 18.2191 181.014V182.41C18.8574 182.464 19.4606 182.727 19.934 183.159C20.4072 183.591 20.7248 184.166 20.8373 184.797V184.854C20.8387 184.908 20.8289 184.962 20.809 185.012C20.789 185.062 20.7591 185.107 20.7211 185.145C20.683 185.183 20.6373 185.213 20.5873 185.233C20.5372 185.253 20.483 185.263 20.4291 185.262H19.4994C19.4096 185.262 19.3212 185.235 19.2474 185.183C19.1739 185.132 19.1175 185.06 19.0863 184.976C18.7956 184.103 18.214 183.754 17.1654 183.754C16.0028 183.754 15.4214 184.279 15.4213 185.093C15.4213 185.906 15.7691 186.373 17.516 186.605C19.9598 186.896 21.181 187.601 21.181 189.632L21.1761 189.627C21.1759 191.197 20.0114 192.419 18.266 192.71V194.106C18.2089 194.397 18.0342 194.572 17.8021 194.572H16.9281C16.6375 194.514 16.4633 194.339 16.4633 194.106V192.71C14.5427 192.419 13.6119 191.372 13.3783 189.917V189.858C13.3771 189.805 13.3876 189.751 13.4076 189.701C13.4276 189.651 13.4576 189.606 13.4955 189.568C13.5336 189.53 13.5793 189.499 13.6293 189.479C13.6791 189.459 13.7328 189.45 13.7865 189.451H14.7806C14.88 189.452 14.9756 189.489 15.0511 189.554C15.1267 189.618 15.1771 189.707 15.1937 189.806C15.374 190.684 15.8924 191.318 17.4056 191.318C18.5114 191.318 19.3256 190.683 19.3256 189.747C19.3256 188.811 18.7958 188.467 17.1674 188.177C14.7237 187.886 13.5591 187.129 13.559 185.209C13.559 183.754 14.6647 182.596 16.4154 182.357V181.014C16.4739 180.723 16.648 180.55 16.8802 180.55H17.7533Z" fill="#9069F0"/>
</g>
<g filter="url(#filter2_dd_3918_429998)">
<rect width="27.9293" height="27.9293" transform="translate(2.93982 8.08398)" fill="#101010"/>
<path d="M16.9047 8.45117C24.414 8.4514 30.5013 14.5395 30.5013 22.0488C30.5012 29.5581 24.414 35.6453 16.9047 35.6455C9.3953 35.6455 3.30716 29.5584 3.30701 22.0488C3.30701 14.5393 9.3952 8.45117 16.9047 8.45117Z" stroke="#9069F0" stroke-width="0.734981"/>
<path fill-rule="evenodd" clip-rule="evenodd" d="M10.8669 18.826L11.2048 17.7822C11.2735 17.5699 11.4411 17.4047 11.6542 17.3395L12.7031 17.0169C12.8483 16.9726 12.8495 16.7677 12.7054 16.721L11.6612 16.3831C11.4493 16.3144 11.2841 16.1469 11.2186 15.9338L10.8964 14.8848C10.852 14.74 10.6472 14.7385 10.6005 14.8829L10.2626 15.9267C10.194 16.1386 10.0264 16.3039 9.81328 16.3694L8.76432 16.6916C8.61913 16.7363 8.61756 16.9408 8.76197 16.9875L9.80622 17.3253C10.0182 17.394 10.1834 17.562 10.2488 17.7751L10.5711 18.8237C10.6154 18.9688 10.8203 18.9704 10.8669 18.826Z" fill="#9069F0"/>
<path d="M23.74 17.7314C24.3535 17.6224 25.0057 17.6135 25.6248 17.7139V17.7129C26.0273 17.7817 26.4162 17.9152 26.7371 18.1104C26.7093 18.1247 26.6812 18.1382 26.6541 18.1533L26.4607 18.2695C26.208 18.423 25.9824 18.5922 25.7781 18.7607L25.7751 18.7637C25.3661 19.1084 25.021 19.4646 24.699 19.832C24.0616 20.5539 23.5141 21.3357 22.9744 22.0967C22.8285 22.2893 22.69 22.4955 22.5574 22.6914C22.4227 22.8903 22.2943 23.08 22.1609 23.2559L22.1541 23.2637L22.1482 23.2725L21.7478 23.8652C21.6037 24.0709 21.4994 24.2167 21.3005 24.4795C20.585 25.424 19.7401 26.3275 18.699 27.1191C17.6619 27.9016 16.3885 28.571 14.947 28.8486L14.9441 28.8496C13.5141 29.1372 11.9805 28.9454 10.7673 28.416L10.7634 28.4141L10.5339 28.3135C9.40453 27.7939 8.50705 27.044 7.77319 26.2178C7.15888 25.5049 6.65694 24.742 6.2771 23.9072C6.61148 23.9959 6.93801 24.0851 7.25854 24.1738C7.79744 24.3231 8.3227 24.468 8.83667 24.5879C9.85495 24.8276 10.8325 24.9788 11.6755 24.9492C12.4195 24.9253 13.0218 24.7919 13.5779 24.5605L13.8132 24.4551C14.4238 24.1667 15.0337 23.7584 15.6736 23.2334L15.6746 23.2324C16.3095 22.707 16.9603 22.0767 17.616 21.3916L17.6169 21.3926L18.2175 20.7949L18.2166 20.7939C18.4405 20.5825 18.6342 20.3898 18.8513 20.2041L18.8523 20.2051C19.3374 19.8109 19.7805 19.4446 20.2986 19.1289L20.3064 19.124C21.3228 18.4688 22.4769 17.9456 23.7371 17.7324L23.74 17.7314Z" stroke="#9069F0" stroke-width="0.734981"/>
<path fill-rule="evenodd" clip-rule="evenodd" d="M22.2894 27.9568C22.2894 28.818 22.9879 29.5162 23.8488 29.5162C24.7098 29.5162 25.4072 28.818 25.4072 27.9568C25.4072 27.0959 24.7098 26.3975 23.8488 26.3975C22.9879 26.3975 22.2894 27.0959 22.2894 27.9568Z" fill="#9069F0"/>
<path d="M20.6921 14.915C22.1815 14.6208 23.6869 14.9673 24.7634 15.6396V15.6406C25.6417 16.1923 26.3325 16.8946 26.7957 17.709C25.9946 17.5628 25.2377 17.485 24.5398 17.5L24.157 17.5186C23.263 17.5837 22.548 17.8389 21.9958 18.207L21.7742 18.3672C21.2052 18.7986 20.749 19.3643 20.3005 20.0352L20.2996 20.0361C20.186 20.2069 20.0751 20.3886 19.9695 20.5625L19.9656 20.5693L19.6208 21.165C19.3308 21.6591 19.0178 22.1511 18.6746 22.6328L18.6736 22.6338C18.075 23.4787 17.3846 24.3103 16.531 25.0781L16.155 25.4023C15.6376 25.8257 15.0632 26.2222 14.408 26.5469L14.406 26.5488C13.7581 26.8752 13.0179 27.1198 12.2468 27.2227H12.2458C11.4839 27.3258 10.6929 27.2587 9.98999 27.0664C9.7264 26.9916 9.47417 26.8984 9.23413 26.792L8.9978 26.6816C8.69515 26.5275 8.41812 26.3435 8.14526 26.1494H8.14429C7.62909 25.7622 7.21149 25.3084 6.85327 24.8193L6.84839 24.8135L6.71948 24.6348C6.5528 24.3933 6.40979 24.1338 6.27905 23.8643C7.21901 24.073 8.21137 24.315 9.94409 23.8584C11.0723 23.5611 11.9676 22.9136 12.7224 22.1543C13.4723 21.3999 14.1042 20.5125 14.6873 19.7305L14.6863 19.7295L15.6082 18.5049L15.6091 18.5059L16.196 17.7568C16.4272 17.4944 16.6518 17.2427 16.8972 17.0029C17.3923 16.522 17.9634 16.0747 18.5984 15.7041L18.5974 15.7031C19.2287 15.335 19.9496 15.0594 20.6912 14.916L20.6921 14.915Z" fill="black" stroke="#9069F0" stroke-width="0.734981"/>
</g>
<g filter="url(#filter3_dd_3918_429998)">
<rect width="27.9293" height="27.9293" transform="translate(294.727 173.456)" fill="#101010"/>
<path d="M308.692 201.385C316.405 201.385 322.657 195.133 322.657 187.421C322.657 179.708 316.405 173.456 308.692 173.456C300.98 173.456 294.727 179.708 294.727 187.421C294.727 195.133 300.98 201.385 308.692 201.385Z" stroke="#9069F0" stroke-width="1.46996"/>
<path d="M314.85 185.432C315.128 183.573 313.713 182.574 311.778 181.908L312.406 179.391L310.873 179.009L310.262 181.46C309.859 181.36 309.446 181.265 309.034 181.171L309.65 178.704L308.118 178.322L307.49 180.838C307.157 180.763 306.83 180.688 306.512 180.609L306.514 180.601L304.4 180.073L303.993 181.71C303.993 181.71 305.13 181.97 305.106 181.986C305.726 182.141 305.838 182.552 305.82 182.877L305.105 185.745C305.148 185.756 305.203 185.771 305.264 185.796C305.213 185.783 305.158 185.769 305.102 185.756L304.1 189.773C304.024 189.961 303.832 190.244 303.398 190.137C303.413 190.159 302.284 189.859 302.284 189.859L301.523 191.613L303.517 192.11C303.888 192.203 304.252 192.3 304.61 192.391L303.976 194.937L305.506 195.319L306.134 192.8C306.552 192.914 306.958 193.019 307.355 193.117L306.73 195.624L308.262 196.006L308.896 193.465C311.509 193.959 313.474 193.76 314.301 191.397C314.967 189.494 314.268 188.397 312.893 187.681C313.894 187.45 314.648 186.792 314.85 185.432ZM311.348 190.34C310.875 192.243 307.671 191.215 306.632 190.957L307.474 187.584C308.512 187.843 311.843 188.356 311.348 190.34ZM311.822 185.404C311.39 187.135 308.724 186.255 307.859 186.04L308.622 182.981C309.487 183.196 312.272 183.599 311.822 185.404Z" fill="#9069F0"/>
</g>
<g filter="url(#filter4_dd_3918_429998)">
<rect width="27.9293" height="27.9293" transform="translate(279.293 8.08398)" fill="#101010"/>
<path d="M293.257 36.0133C300.97 36.0133 307.222 29.7611 307.222 22.0486C307.222 14.3362 300.97 8.08398 293.257 8.08398C285.545 8.08398 279.293 14.3362 279.293 22.0486C279.293 29.7611 285.545 36.0133 293.257 36.0133Z" stroke="#9069F0" stroke-width="1.46996"/>
<path fill-rule="evenodd" clip-rule="evenodd" d="M295.08 23.2556V23.2538C294.984 23.2608 294.49 23.2905 293.385 23.2905C292.504 23.2905 291.883 23.2643 291.665 23.2538V23.2564C288.272 23.1072 285.739 22.5163 285.739 21.8094C285.739 21.1033 288.272 20.5124 291.665 20.3605V22.6682C291.887 22.6839 292.522 22.7214 293.4 22.7214C294.454 22.7214 294.982 22.6778 295.08 22.669V20.3623C298.467 20.5133 300.994 21.1041 300.994 21.8094C300.994 22.5163 298.467 23.1054 295.08 23.2556ZM295.08 20.1222V18.0572H299.806V14.9082H286.94V18.0572H291.665V20.1214C287.825 20.2977 284.937 21.0588 284.937 21.9699C284.937 22.8811 287.825 23.6413 291.665 23.8185V30.436H295.08V23.8168C298.915 23.6405 301.796 22.8803 301.796 21.9699C301.796 21.0596 298.915 20.2994 295.08 20.1222Z" fill="#9069F0"/>
</g>
<defs>
<filter id="filter0_d_3918_429998" x="124.947" y="109.512" width="41.1591" height="26.0918" filterUnits="userSpaceOnUse" color-interpolation-filters="sRGB">
<feFlood flood-opacity="0" result="BackgroundImageFix"/>
<feColorMatrix in="SourceAlpha" type="matrix" values="0 0 0 0 0 0 0 0 0 0 0 0 0 0 0 0 0 0 127 0" result="hardAlpha"/>
<feOffset dy="2.93992"/>
<feGaussianBlur stdDeviation="1.46996"/>
<feComposite in2="hardAlpha" operator="out"/>
<feColorMatrix type="matrix" values="0 0 0 0 0 0 0 0 0 0 0 0 0 0 0 0 0 0 0.25 0"/>
<feBlend mode="normal" in2="BackgroundImageFix" result="effect1_dropShadow_3918_429998"/>
<feBlend mode="normal" in="SourceGraphic" in2="effect1_dropShadow_3918_429998" result="shape"/>
</filter>
<filter id="filter1_dd_3918_429998" x="1.10236" y="172.721" width="31.6042" height="32.7068" filterUnits="userSpaceOnUse" color-interpolation-filters="sRGB">
<feFlood flood-opacity="0" result="BackgroundImageFix"/>
<feColorMatrix in="SourceAlpha" type="matrix" values="0 0 0 0 0 0 0 0 0 0 0 0 0 0 0 0 0 0 127 0" result="hardAlpha"/>
<feMorphology radius="1.10247" operator="erode" in="SourceAlpha" result="effect1_dropShadow_3918_429998"/>
<feOffset dy="2.20494"/>
<feGaussianBlur stdDeviation="1.10247"/>
<feComposite in2="hardAlpha" operator="out"/>
<feColorMatrix type="matrix" values="0 0 0 0 0 0 0 0 0 0 0 0 0 0 0 0 0 0 0.08 0"/>
<feBlend mode="normal" in2="BackgroundImageFix" result="effect1_dropShadow_3918_429998"/>
<feColorMatrix in="SourceAlpha" type="matrix" values="0 0 0 0 0 0 0 0 0 0 0 0 0 0 0 0 0 0 127 0" result="hardAlpha"/>
<feMorphology radius="0.36749" operator="erode" in="SourceAlpha" result="effect2_dropShadow_3918_429998"/>
<feOffset dy="0.734981"/>
<feGaussianBlur stdDeviation="0.36749"/>
<feComposite in2="hardAlpha" operator="out"/>
<feColorMatrix type="matrix" values="0 0 0 0 0 0 0 0 0 0 0 0 0 0 0 0 0 0 0.08 0"/>
<feBlend mode="normal" in2="effect1_dropShadow_3918_429998" result="effect2_dropShadow_3918_429998"/>
<feBlend mode="normal" in="SourceGraphic" in2="effect2_dropShadow_3918_429998" result="shape"/>
</filter>
<filter id="filter2_dd_3918_429998" x="1.83735" y="8.08398" width="30.1343" height="31.2371" filterUnits="userSpaceOnUse" color-interpolation-filters="sRGB">
<feFlood flood-opacity="0" result="BackgroundImageFix"/>
<feColorMatrix in="SourceAlpha" type="matrix" values="0 0 0 0 0 0 0 0 0 0 0 0 0 0 0 0 0 0 127 0" result="hardAlpha"/>
<feMorphology radius="1.10247" operator="erode" in="SourceAlpha" result="effect1_dropShadow_3918_429998"/>
<feOffset dy="2.20494"/>
<feGaussianBlur stdDeviation="1.10247"/>
<feComposite in2="hardAlpha" operator="out"/>
<feColorMatrix type="matrix" values="0 0 0 0 0 0 0 0 0 0 0 0 0 0 0 0 0 0 0.03 0"/>
<feBlend mode="normal" in2="BackgroundImageFix" result="effect1_dropShadow_3918_429998"/>
<feColorMatrix in="SourceAlpha" type="matrix" values="0 0 0 0 0 0 0 0 0 0 0 0 0 0 0 0 0 0 127 0" result="hardAlpha"/>
<feMorphology radius="0.36749" operator="erode" in="SourceAlpha" result="effect2_dropShadow_3918_429998"/>
<feOffset dy="0.734981"/>
<feGaussianBlur stdDeviation="0.36749"/>
<feComposite in2="hardAlpha" operator="out"/>
<feColorMatrix type="matrix" values="0 0 0 0 0 0 0 0 0 0 0 0 0 0 0 0 0 0 0.03 0"/>
<feBlend mode="normal" in2="effect1_dropShadow_3918_429998" result="effect2_dropShadow_3918_429998"/>
<feBlend mode="normal" in="SourceGraphic" in2="effect2_dropShadow_3918_429998" result="shape"/>
</filter>
<filter id="filter3_dd_3918_429998" x="292.89" y="172.721" width="31.6042" height="32.7068" filterUnits="userSpaceOnUse" color-interpolation-filters="sRGB">
<feFlood flood-opacity="0" result="BackgroundImageFix"/>
<feColorMatrix in="SourceAlpha" type="matrix" values="0 0 0 0 0 0 0 0 0 0 0 0 0 0 0 0 0 0 127 0" result="hardAlpha"/>
<feMorphology radius="1.10247" operator="erode" in="SourceAlpha" result="effect1_dropShadow_3918_429998"/>
<feOffset dy="2.20494"/>
<feGaussianBlur stdDeviation="1.10247"/>
<feComposite in2="hardAlpha" operator="out"/>
<feColorMatrix type="matrix" values="0 0 0 0 0 0 0 0 0 0 0 0 0 0 0 0 0 0 0.08 0"/>
<feBlend mode="normal" in2="BackgroundImageFix" result="effect1_dropShadow_3918_429998"/>
<feColorMatrix in="SourceAlpha" type="matrix" values="0 0 0 0 0 0 0 0 0 0 0 0 0 0 0 0 0 0 127 0" result="hardAlpha"/>
<feMorphology radius="0.36749" operator="erode" in="SourceAlpha" result="effect2_dropShadow_3918_429998"/>
<feOffset dy="0.734981"/>
<feGaussianBlur stdDeviation="0.36749"/>
<feComposite in2="hardAlpha" operator="out"/>
<feColorMatrix type="matrix" values="0 0 0 0 0 0 0 0 0 0 0 0 0 0 0 0 0 0 0.08 0"/>
<feBlend mode="normal" in2="effect1_dropShadow_3918_429998" result="effect2_dropShadow_3918_429998"/>
<feBlend mode="normal" in="SourceGraphic" in2="effect2_dropShadow_3918_429998" result="shape"/>
</filter>
<filter id="filter4_dd_3918_429998" x="277.455" y="7.34863" width="31.6042" height="32.7068" filterUnits="userSpaceOnUse" color-interpolation-filters="sRGB">
<feFlood flood-opacity="0" result="BackgroundImageFix"/>
<feColorMatrix in="SourceAlpha" type="matrix" values="0 0 0 0 0 0 0 0 0 0 0 0 0 0 0 0 0 0 127 0" result="hardAlpha"/>
<feMorphology radius="1.10247" operator="erode" in="SourceAlpha" result="effect1_dropShadow_3918_429998"/>
<feOffset dy="2.20494"/>
<feGaussianBlur stdDeviation="1.10247"/>
<feComposite in2="hardAlpha" operator="out"/>
<feColorMatrix type="matrix" values="0 0 0 0 0 0 0 0 0 0 0 0 0 0 0 0 0 0 0.08 0"/>
<feBlend mode="normal" in2="BackgroundImageFix" result="effect1_dropShadow_3918_429998"/>
<feColorMatrix in="SourceAlpha" type="matrix" values="0 0 0 0 0 0 0 0 0 0 0 0 0 0 0 0 0 0 127 0" result="hardAlpha"/>
<feMorphology radius="0.36749" operator="erode" in="SourceAlpha" result="effect2_dropShadow_3918_429998"/>
<feOffset dy="0.734981"/>
<feGaussianBlur stdDeviation="0.36749"/>
<feComposite in2="hardAlpha" operator="out"/>
<feColorMatrix type="matrix" values="0 0 0 0 0 0 0 0 0 0 0 0 0 0 0 0 0 0 0.08 0"/>
<feBlend mode="normal" in2="effect1_dropShadow_3918_429998" result="effect2_dropShadow_3918_429998"/>
<feBlend mode="normal" in="SourceGraphic" in2="effect2_dropShadow_3918_429998" result="shape"/>
</filter>
<clipPath id="clip0_3918_429998">
<rect width="22.0494" height="22.0494" fill="white" transform="translate(83.0529 158.021)"/>
</clipPath>
</defs>
</svg>
