<svg width="48" height="48" viewBox="0 0 48 48" fill="none" xmlns="http://www.w3.org/2000/svg">
    <mask id="path-1-inside-1_3510_8295" fill="white">
        <path
            d="M0 12C0 5.37258 5.37258 0 12 0H36C42.6274 0 48 5.37258 48 12V36C48 42.6274 42.6274 48 36 48H12C5.37258 48 0 42.6274 0 36V12Z" />
    </mask>
    <path
        d="M12 0V1H36V0V-1H12V0ZM48 12H47V36H48H49V12H48ZM36 48V47H12V48V49H36V48ZM0 36H1V12H0H-1V36H0ZM12 48V47C5.92487 47 1 42.0751 1 36H0H-1C-1 43.1797 4.8203 49 12 49V48ZM48 36H47C47 42.0751 42.0751 47 36 47V48V49C43.1797 49 49 43.1797 49 36H48ZM36 0V1C42.0751 1 47 5.92487 47 12H48H49C49 4.8203 43.1797 -1 36 -1V0ZM12 0V-1C4.8203 -1 -1 4.8203 -1 12H0H1C1 5.92487 5.92487 1 12 1V0Z"
        fill="#EC4899" fill-opacity="0.2" mask="url(#path-1-inside-1_3510_8295)" />
    <path d="M24 14V34" stroke="#FB64B6" stroke-width="2" stroke-linecap="round" stroke-linejoin="round" />
    <path
        d="M29 17H21.5C20.5717 17 19.6815 17.3687 19.0251 18.0251C18.3687 18.6815 18 19.5717 18 20.5C18 21.4283 18.3687 22.3185 19.0251 22.9749C19.6815 23.6313 20.5717 24 21.5 24H26.5C27.4283 24 28.3185 24.3687 28.9749 25.0251C29.6313 25.6815 30 26.5717 30 27.5C30 28.4283 29.6313 29.3185 28.9749 29.9749C28.3185 30.6313 27.4283 31 26.5 31H18"
        stroke="#FB64B6" stroke-width="2" stroke-linecap="round" stroke-linejoin="round" />
</svg>