<svg width="48" height="48" viewBox="0 0 48 48" fill="none" xmlns="http://www.w3.org/2000/svg">
    <mask id="path-1-inside-1_3510_8308" fill="white">
        <path
            d="M0 12C0 5.37258 5.37258 0 12 0H36C42.6274 0 48 5.37258 48 12V36C48 42.6274 42.6274 48 36 48H12C5.37258 48 0 42.6274 0 36V12Z" />
    </mask>
    <path
        d="M12 0V1H36V0V-1H12V0ZM48 12H47V36H48H49V12H48ZM36 48V47H12V48V49H36V48ZM0 36H1V12H0H-1V36H0ZM12 48V47C5.92487 47 1 42.0751 1 36H0H-1C-1 43.1797 4.8203 49 12 49V48ZM48 36H47C47 42.0751 42.0751 47 36 47V48V49C43.1797 49 49 43.1797 49 36H48ZM36 0V1C42.0751 1 47 5.92487 47 12H48H49C49 4.8203 43.1797 -1 36 -1V0ZM12 0V-1C4.8203 -1 -1 4.8203 -1 12H0H1C1 5.92487 5.92487 1 12 1V0Z"
        fill="#6F61FF" mask="url(#path-1-inside-1_3510_8308)" />
    <path
        d="M31 23H17C15.8954 23 15 23.8954 15 25V32C15 33.1046 15.8954 34 17 34H31C32.1046 34 33 33.1046 33 32V25C33 23.8954 32.1046 23 31 23Z"
        stroke="#6F61FF" stroke-width="2" stroke-linecap="round" stroke-linejoin="round" />
    <path
        d="M19 23V19C19 17.6739 19.5268 16.4021 20.4645 15.4645C21.4021 14.5268 22.6739 14 24 14C25.3261 14 26.5979 14.5268 27.5355 15.4645C28.4732 16.4021 29 17.6739 29 19V23"
        stroke="#6F61FF" stroke-width="2" stroke-linecap="round" stroke-linejoin="round" />
</svg>