<svg width="128" height="128" viewBox="0 0 128 128" fill="none" xmlns="http://www.w3.org/2000/svg">
    <g opacity="0.2">
        <path
            d="M68.4268 11.626C67.0371 10.9921 65.5275 10.6641 64.0001 10.6641C62.4727 10.6641 60.9631 10.9921 59.5734 11.626L13.8668 32.426C12.9204 32.8433 12.1157 33.5268 11.5508 34.3932C10.9859 35.2596 10.6852 36.2716 10.6852 37.306C10.6852 38.3403 10.9859 39.3523 11.5508 40.2187C12.1157 41.0852 12.9204 41.7687 13.8668 42.186L59.6268 63.0393C61.0164 63.6732 62.526 64.0012 64.0534 64.0012C65.5808 64.0012 67.0904 63.6732 68.4801 63.0393L114.24 42.2393C115.186 41.822 115.991 41.1385 116.556 40.2721C117.121 39.4056 117.422 38.3936 117.422 37.3593C117.422 36.325 117.121 35.313 116.556 34.4465C115.991 33.5801 115.186 32.8966 114.24 32.4793L68.4268 11.626Z"
            stroke="white" stroke-width="2.66667" stroke-linecap="round" stroke-linejoin="round" />
        <path
            d="M10.6666 64C10.6641 65.0201 10.9542 66.0195 11.5025 66.8797C12.0507 67.74 12.8342 68.4249 13.76 68.8533L59.6266 89.7067C61.009 90.3326 62.5091 90.6565 64.0266 90.6565C65.5442 90.6565 67.0442 90.3326 68.4266 89.7067L114.187 68.9067C115.131 68.4823 115.931 67.7925 116.49 66.9212C117.048 66.05 117.341 65.035 117.333 64"
            stroke="white" stroke-width="2.66667" stroke-linecap="round" stroke-linejoin="round" />
        <path
            d="M10.6666 90.668C10.6641 91.6881 10.9542 92.6875 11.5025 93.5477C12.0507 94.4079 12.8342 95.0929 13.76 95.5213L59.6266 116.375C61.009 117.001 62.5091 117.324 64.0266 117.324C65.5442 117.324 67.0442 117.001 68.4266 116.375L114.187 95.5746C115.131 95.1503 115.931 94.4605 116.49 93.5892C117.048 92.718 117.341 91.703 117.333 90.668"
            stroke="white" stroke-width="2.66667" stroke-linecap="round" stroke-linejoin="round" />
    </g>
</svg>