<svg width="264" height="264" viewBox="0 0 264 264" fill="none" xmlns="http://www.w3.org/2000/svg">
    <g opacity="0.3">
        <path
            d="M251.799 263.992L251.799 -3.15842e-05L251.244 -3.16327e-05L251.244 263.992L251.799 263.992ZM0.00753891 251.791L264 251.791L264 251.237L0.00753896 251.237L0.00753891 251.791ZM225.178 263.992L225.178 -3.39115e-05L224.623 -3.396e-05L224.623 263.992L225.178 263.992ZM0.00754124 225.17L264 225.17L264 224.615L0.00754128 224.615L0.00754124 225.17ZM198.556 263.992L198.556 -3.62388e-05L198.002 -3.62873e-05L198.002 263.992L198.556 263.992ZM0.00754356 198.549L264 198.549L264 197.994L0.00754361 197.994L0.00754356 198.549ZM171.936 263.992L171.936 -3.8566e-05L171.382 -3.86145e-05L171.382 263.992L171.936 263.992ZM0.00754589 171.928L264 171.928L264 171.373L0.00754594 171.373L0.00754589 171.928ZM145.315 263.992L145.315 -4.08933e-05L144.761 -4.09418e-05L144.761 263.992L145.315 263.992ZM0.00754822 145.307L264 145.307L264 144.752L0.00754827 144.752L0.00754822 145.307ZM118.694 263.992L118.694 -4.32206e-05L118.139 -4.32691e-05L118.139 263.992L118.694 263.992ZM0.00755054 118.686L264 118.686L264 118.131L0.00755059 118.131L0.00755054 118.686ZM92.0727 263.992L92.0727 -4.55479e-05L91.5181 -4.55964e-05L91.5181 263.992L92.0727 263.992ZM0.00755287 92.0644L264 92.0645L264 91.5099L0.00755292 91.5098L0.00755287 92.0644ZM65.4515 263.992L65.4515 -4.78752e-05L64.8969 -4.79237e-05L64.8969 263.992L65.4515 263.992ZM0.0075552 65.4435L264 65.4435L264 64.8889L0.00755525 64.8889L0.0075552 65.4435ZM38.8303 263.992L38.8303 -5.02025e-05L38.2757 -5.0251e-05L38.2757 263.992L38.8303 263.992ZM0.00755753 38.8223L264 38.8223L264 38.2677L0.00755758 38.2677L0.00755753 38.8223ZM12.2091 263.992L12.2091 -5.25298e-05L11.6545 -5.25783e-05L11.6545 263.992L12.2091 263.992ZM0.00755985 12.2013L264 12.2014L264 11.6468L0.0075599 11.6467L0.00755985 12.2013Z"
            fill="url(#paint0_radial_764_742)" fill-opacity="0.6" />
    </g>
    <defs>
        <radialGradient id="paint0_radial_764_742" cx="0" cy="0" r="1" gradientUnits="userSpaceOnUse"
            gradientTransform="translate(132.004 131.996) rotate(-90) scale(131.996)">
            <stop stop-color="#66EFB0" />
            <stop offset="1" stop-color="#111119" />
        </radialGradient>
    </defs>
</svg>