<svg width="109" height="99" viewBox="0 0 109 99" fill="none" xmlns="http://www.w3.org/2000/svg">
<g clip-path="url(#clip0_2506_21924)">
<path d="M18.8156 80.5551C6.53426 68.0881 11.6641 43.1204 30.2735 24.7882C48.8829 6.45605 73.9248 1.70147 86.2061 14.1685C98.4875 26.6356 93.3576 51.6033 74.7482 69.9355C56.1388 88.2676 31.097 93.0222 18.8156 80.5551Z" fill="#DDD1FA" stroke="#111119" stroke-width="1.29787" stroke-linecap="round" stroke-linejoin="round"/>
<path opacity="0.62" d="M15.5566 76.2905C24.5346 91.6548 48.3609 91.1608 68.7655 75.1868C89.1701 59.2129 98.4408 33.7983 89.4515 18.4274C81.5027 4.81854 61.9126 3.65087 43.3725 14.6485C40.9724 16.0745 38.5853 17.6984 36.2426 19.5311C34.9059 20.5861 33.6144 21.6677 32.3751 22.8029C14.7066 38.797 7.16281 61.9249 15.5655 76.2882L15.5566 76.2905Z" fill="#F8F8FF" stroke="#111119" stroke-width="1.29787" stroke-linecap="round" stroke-linejoin="round"/>
<path d="M32.3755 22.8022L41.0612 28.67L52.6478 21.3117L43.3728 14.6478C40.9728 16.0738 38.5856 17.6977 36.2429 19.5305C34.9062 20.5854 33.6147 21.6671 32.3755 22.8022Z" fill="#F8F8FF" stroke="#111119" stroke-width="1.29787" stroke-linecap="round" stroke-linejoin="round"/>
<path d="M68.1068 7.47971L86.7187 19.0475" stroke="#111119" stroke-width="1.29787" stroke-linecap="round" stroke-linejoin="round"/>
<path d="M61.4469 8.2547L79.2966 19.0616" stroke="#111119" stroke-width="1.29787" stroke-linecap="round" stroke-linejoin="round"/>
<path d="M52.8796 10.4719L71.4916 22.0397" stroke="#111119" stroke-width="1.29787" stroke-linecap="round" stroke-linejoin="round"/>
<path d="M14.4732 49.7405L33.0852 61.3083" stroke="#111119" stroke-width="1.29787" stroke-linecap="round" stroke-linejoin="round"/>
<path d="M12.5232 57.6809L31.1328 69.2397" stroke="#111119" stroke-width="1.29787" stroke-linecap="round" stroke-linejoin="round"/>
<path d="M12.4167 66.0832L31.0287 77.6511" stroke="#111119" stroke-width="1.29787" stroke-linecap="round" stroke-linejoin="round"/>
<path d="M43.4423 14.8785L61.5538 26.3268" stroke="#111119" stroke-width="1.29787" stroke-linecap="round" stroke-linejoin="round"/>
<path d="M32.3189 23.0266L50.9309 34.5944" stroke="#111119" stroke-width="1.29787" stroke-linecap="round" stroke-linejoin="round"/>
<path d="M18.8156 80.5551C6.53426 68.0881 11.6641 43.1204 30.2735 24.7882C48.8829 6.45605 73.9248 1.70147 86.2061 14.1685C98.4875 26.6356 93.3576 51.6033 74.7482 69.9355C56.1388 88.2676 31.097 93.0222 18.8156 80.5551Z" stroke="#111119" stroke-width="1.29787" stroke-linecap="round" stroke-linejoin="round"/>
<path d="M22.6617 84.2739C10.3803 71.8068 15.5102 46.8391 34.1196 28.507C52.729 10.1748 77.7708 5.42022 90.0522 17.8873C102.334 30.3544 97.2037 55.3221 78.5943 73.6542C59.9849 91.9864 34.943 96.741 22.6617 84.2739Z" fill="#DDD1FA" stroke="#111119" stroke-width="1.29787" stroke-linecap="round" stroke-linejoin="round"/>
<path d="M27.7631 79.2476C17.3405 68.6674 21.6932 47.4793 37.485 31.9227C53.2769 16.3661 74.528 12.3319 84.9506 22.9121C95.3732 33.4924 91.0205 54.6805 75.2287 70.2371C59.4368 85.7937 38.1858 89.8279 27.7631 79.2476Z" fill="#DDD1FA" stroke="#111119" stroke-width="1.29787" stroke-linecap="round" stroke-linejoin="round"/>
<path opacity="0.16" d="M27.7631 79.2476C17.3405 68.6674 21.6932 47.4793 37.485 31.9227C53.2769 16.3661 74.528 12.3319 84.9506 22.9121C95.3732 33.4924 91.0205 54.6805 75.2287 70.2371C59.4368 85.7937 38.1858 89.8279 27.7631 79.2476Z" fill="black" stroke="#111119" stroke-width="1.29787" stroke-linecap="round" stroke-linejoin="round"/>
<path d="M27.7631 79.2476C17.3405 68.6674 21.6932 47.4793 37.485 31.9227C53.2769 16.3661 74.528 12.3319 84.9506 22.9121C95.3732 33.4924 91.0205 54.6805 75.2287 70.2371C59.4368 85.7937 38.1858 89.8279 27.7631 79.2476Z" stroke="#111119" stroke-width="1.29787" stroke-linecap="round" stroke-linejoin="round"/>
<path d="M68.6881 72.8497C86.0101 59.2928 93.8727 37.7304 86.2526 24.688C86.0107 24.2715 85.7531 23.8687 85.4776 23.4705C86.3109 24.395 87.0618 25.408 87.7144 26.5231C95.3346 39.5654 87.4719 61.1278 70.1589 74.6824C53.3957 87.8071 33.9142 88.614 25.7757 76.8268C34.6111 86.6418 52.8637 85.2332 68.6947 72.8383L68.6881 72.8497Z" fill="#111119" stroke="#111119" stroke-width="1.29787" stroke-linecap="round" stroke-linejoin="round"/>
<path d="M32.3531 70.6971L34.1363 71.4046L37.1389 66.9385C38.7605 69.3167 40.9357 70.3539 43.6465 70.0547C46.3663 69.7533 49.8124 68.0374 54.0004 64.8934L53.638 59.1616L51.8548 58.4541C50.1668 59.7437 48.746 60.6959 47.6014 61.3084C46.4568 61.9208 45.5458 62.214 44.8797 62.1948C44.2046 62.1779 43.7185 61.8917 43.4081 61.3588C43.011 60.6759 43.0548 59.9938 43.5487 59.3102C44.0425 58.6267 44.6224 58.0167 45.2997 57.4869C46.9092 56.2272 48.4416 55.4473 49.8858 55.1406C51.3322 54.8429 52.9086 54.7511 54.6216 54.854L59.0808 55.1276C60.3771 55.1753 61.6615 55.14 62.9316 55.0125C64.2017 54.885 65.5488 54.5364 66.9681 53.9487C68.3897 53.3699 69.9455 52.4211 71.6175 51.1069C74.6844 48.7034 76.6995 46.1602 77.6717 43.4748C78.644 40.7895 78.5869 38.2363 77.5027 35.8245L82.8002 31.0807L81.0169 30.3733L76.4679 33.9364C75.548 32.6031 74.4615 31.8111 73.2062 31.5515C71.9509 31.2919 70.6445 31.3905 69.2848 31.8382C67.9251 32.2859 66.5736 32.9135 65.2417 33.7278C63.9098 34.542 62.7015 35.3529 61.617 36.1606L64.0028 42.5282C64.251 42.3394 65.786 43.2356 65.786 43.2356C65.786 43.2356 66.4136 40.7736 67.1431 40.2974C68.0629 39.7048 68.8316 39.343 69.4449 39.2321C70.0582 39.1213 70.5214 39.356 70.8165 39.9407C71.1747 40.5475 71.0929 41.2681 70.5867 42.089C70.0806 42.9099 69.49 43.5897 68.8126 44.1195C67.268 45.3337 65.8427 46.0092 64.5413 46.164C63.2399 46.3187 61.9669 46.3608 60.7201 46.3193L56.4119 46.0737C54.9266 46.0365 53.4198 46.1007 51.8892 46.2956C50.3587 46.4905 48.7739 46.9198 47.146 47.5903C45.5182 48.2607 43.7967 49.3098 41.9973 50.7241C40.285 52.068 38.8776 53.5532 37.7708 55.2003C36.664 56.8473 35.9556 58.5158 35.6546 60.2035C35.3445 61.8934 35.5042 63.5098 36.1221 65.0458L31.287 68.8363L32.371 70.6925L32.3531 70.6971Z" fill="#111119" stroke="#111119" stroke-width="1.29787" stroke-linecap="round" stroke-linejoin="round"/>
<path d="M34.1363 71.4052L38.9245 67.6556C40.546 70.0338 42.7212 71.071 45.4321 70.7718C48.1519 70.4704 51.598 68.7545 55.786 65.6105L53.638 59.1622C51.9501 60.4519 50.5293 61.404 49.3847 62.0165C48.2401 62.6289 47.329 62.9222 46.654 62.9052C45.9789 62.8883 45.4928 62.6021 45.1824 62.0692C44.7853 61.3863 44.8291 60.7042 45.3229 60.0207C45.8167 59.3371 46.3967 58.7271 47.074 58.1973C48.6835 56.9376 50.2159 56.1577 51.66 55.8511C53.1065 55.5534 54.6829 55.4616 56.3959 55.5644L60.8551 55.838C62.1514 55.8858 63.4358 55.8504 64.7059 55.7229C65.976 55.5954 67.323 55.2468 68.7423 54.6591C70.1639 54.0804 71.7197 53.1316 73.3918 51.8173C76.4587 49.4139 78.4738 46.8706 79.446 44.1853C80.4182 41.4999 80.3611 38.9468 79.277 36.5349L83.8752 32.9399L82.7912 31.0837L78.2422 34.6468C77.3222 33.3135 76.2358 32.5216 74.9805 32.262C73.7251 32.0024 72.4188 32.1009 71.0591 32.5486C69.6994 32.9963 68.3479 33.624 67.016 34.4382C65.684 35.2524 64.4758 36.0633 63.3913 36.871L65.7771 43.2386C66.9554 42.3492 68 41.6093 68.9197 41.0168C69.8395 40.4242 70.6082 40.0624 71.2215 39.9516C71.8348 39.8407 72.298 40.0754 72.5841 40.6625C72.9423 41.2692 72.8605 41.9899 72.3544 42.8108C71.8482 43.6316 71.2576 44.3115 70.5803 44.8413C69.0357 46.0555 67.6103 46.731 66.309 46.8857C65.0076 47.0405 63.7345 47.0825 62.4877 47.0411L58.1795 46.7955C56.6943 46.7583 55.1874 46.8225 53.6569 47.0174C52.1263 47.2123 50.5415 47.6416 48.9136 48.312C47.2858 48.9824 45.5643 50.0316 43.7649 51.4459C42.0526 52.7897 40.6452 54.275 39.5384 55.922C38.4316 57.5691 37.7232 59.2376 37.4222 60.9252C37.1122 62.6152 37.2718 64.2315 37.8897 65.7675L33.0546 69.558L34.1386 71.4142L34.1363 71.4052Z" fill="#DDD1FA" stroke="#111119" stroke-width="1.29787" stroke-linecap="round" stroke-linejoin="round"/>
</g>
<defs>
<clipPath id="clip0_2506_21924">
<rect width="91.5455" height="77.9839" fill="white" transform="matrix(-0.968104 0.25055 0.25055 0.968104 88.9751 0)"/>
</clipPath>
</defs>
</svg>
