<svg width="80" height="77" viewBox="0 0 80 77" fill="none" xmlns="http://www.w3.org/2000/svg">
<g clip-path="url(#clip0_2506_21906)">
<path d="M52.9142 67.2107C63.398 61.7098 65.303 44.5561 57.1692 28.8968C49.0354 13.2376 33.9428 5.00264 23.459 10.5036C12.9752 16.0045 11.0702 33.1582 19.204 48.8174C27.3378 64.4767 42.4304 72.7116 52.9142 67.2107Z" fill="#111119" stroke="#111119" stroke-linecap="round" stroke-linejoin="round"/>
<path d="M56.1577 65.6072C66.6415 60.1062 68.5466 42.9525 60.4127 27.2933C52.2789 11.6341 37.1864 3.39913 26.7026 8.90005C16.2188 14.401 14.3137 31.5547 22.4475 47.2139C30.5814 62.8732 45.6739 71.1081 56.1577 65.6072Z" fill="#DDD1FA" stroke="#111119" stroke-linecap="round" stroke-linejoin="round"/>
<path d="M53.9266 61.312C62.8249 56.643 64.4435 42.0868 57.5418 28.7998C50.6402 15.5128 37.8319 8.52652 28.9337 13.1955C20.0354 17.8645 18.4168 32.4207 25.3184 45.7077C32.22 58.9947 45.0284 65.981 53.9266 61.312Z" fill="#DDD1FA" stroke="#111119" stroke-linecap="round" stroke-linejoin="round"/>
<path opacity="0.49" d="M54.1783 61.1881C54.8082 40.4444 39.5316 22.7138 29.129 13.0991C31.4547 11.9254 34.0831 11.5408 36.8177 11.8728C43.1486 12.6385 50.0661 17.2504 55.2088 24.8853C62.0777 35.0879 63.6398 47.493 59.6462 55.3389C58.8179 56.9627 57.7526 58.3862 56.448 59.5585C55.7372 60.1964 54.9769 60.7377 54.1783 61.1881Z" fill="#F8F8FF"/>
<path opacity="0.49" d="M59.6518 55.342C59.0921 37.1038 46.5839 21.4023 36.8233 11.8758C43.1542 12.6415 50.0717 17.2534 55.2144 24.8883C62.0833 35.0909 63.6454 47.496 59.6518 55.342Z" fill="#F8F8FF"/>
<path d="M53.9266 61.312C62.8249 56.643 64.4435 42.0868 57.5418 28.7998C50.6402 15.5128 37.8319 8.52652 28.9337 13.1955C20.0354 17.8645 18.4168 32.4207 25.3184 45.7077C32.22 58.9947 45.0284 65.981 53.9266 61.312Z" stroke="#111119" stroke-linecap="round" stroke-linejoin="round"/>
<path d="M53.8882 25.7718C62.1846 38.0896 62.7465 53.61 55.1274 60.445C54.8791 60.666 54.631 60.8729 54.3745 61.0684C55.1022 60.6456 55.7971 60.1489 56.4451 59.5642C64.0556 52.7318 63.5023 37.2087 55.2059 24.8909C47.1807 12.9689 34.8381 8.42028 27.1522 14.3384C34.8729 9.84032 46.3028 14.5102 53.8882 25.7718Z" fill="#111119" stroke="#111119" stroke-linecap="round" stroke-linejoin="round"/>
<path d="M30.1 19.6559L31.3931 19.5667L32.3934 23.0634C33.9296 21.8679 35.5404 21.6432 37.22 22.4005C38.8996 23.1577 40.757 24.9744 42.792 27.8647L41.3675 31.4878L40.0744 31.5771C39.2579 30.3955 38.5422 29.4864 37.9356 28.8611C37.3262 28.2274 36.8037 27.8518 36.3709 27.7288C35.9325 27.603 35.5592 27.6814 35.2508 27.964C34.854 28.3221 34.7437 28.7707 34.917 29.3154C35.0903 29.8601 35.3374 30.3716 35.6639 30.8527C36.4357 31.9971 37.2598 32.8196 38.1248 33.3144C38.9899 33.8092 39.9834 34.1922 41.108 34.4718L44.0345 35.2157C44.8777 35.4501 45.6918 35.7409 46.4799 36.0822C47.268 36.4236 48.0568 36.929 48.8518 37.6013C49.6412 38.2708 50.4441 39.2033 51.2492 40.3933C52.7154 42.571 53.4835 44.6317 53.5454 46.5639C53.6073 48.4961 53.0441 50.1281 51.8418 51.4598L54.255 55.6122L52.9619 55.7015L50.7847 52.4676C49.9155 53.1379 49.0514 53.4265 48.1923 53.3333C47.3332 53.2401 46.5111 52.9097 45.7289 52.3365C44.9438 51.7689 44.2138 51.0802 43.5248 50.2845C42.8387 49.4832 42.2312 48.708 41.7051 47.9676L44.5623 44.3556C44.6814 44.5236 45.8554 44.2663 45.8554 44.2663C45.8554 44.2663 45.7509 45.9848 46.12 46.4381C46.5891 47.0139 47.0071 47.3997 47.3797 47.5985C47.7551 47.7916 48.0943 47.7384 48.4059 47.4218C48.7599 47.1057 48.8594 46.623 48.7098 45.9909C48.5546 45.3559 48.3165 44.7993 47.99 44.3182C47.2458 43.2165 46.4742 42.485 45.6694 42.1208C44.8647 41.7567 44.059 41.4632 43.2441 41.229L40.4302 40.5004C39.4692 40.2195 38.5121 39.8624 37.5701 39.4205C36.6282 38.9787 35.6997 38.3729 34.7903 37.6062C33.8838 36.8338 33.0004 35.8099 32.1317 34.5232C31.3129 33.3048 30.7173 32.0518 30.3507 30.7671C29.9814 29.4739 29.8791 28.254 30.0325 27.1017C30.186 25.9493 30.6252 24.9439 31.339 24.0798L29.0208 20.6381L30.1028 19.6645L30.1 19.6559Z" fill="#111119" stroke="#111119" stroke-linecap="round" stroke-linejoin="round"/>
<path d="M31.396 19.5612L33.6893 22.9687C35.2255 21.7732 36.8363 21.5485 38.5159 22.3057C40.1955 23.063 42.0529 24.8797 44.0879 27.77L41.3704 31.4823C40.5539 30.3008 39.8382 29.3916 39.2315 28.7664C38.6222 28.1326 38.0996 27.7571 37.6669 27.6341C37.2285 27.5082 36.8551 27.5866 36.5467 27.8693C36.1499 28.2274 36.0396 28.676 36.2129 29.2207C36.3863 29.7654 36.6334 30.2768 36.9598 30.7579C37.7317 31.9023 38.5557 32.7248 39.4208 33.2197C40.2859 33.7145 41.2793 34.0975 42.4039 34.377L45.3305 35.121C46.1736 35.3554 46.9878 35.6461 47.7759 35.9875C48.564 36.3289 49.3528 36.8343 50.1478 37.5066C50.9372 38.176 51.74 39.1086 52.5451 40.2986C54.0113 42.4763 54.7795 44.537 54.8414 46.4692C54.9032 48.4014 54.34 50.0334 53.1377 51.365L55.3398 54.6331L54.2578 55.6067L52.0807 52.3729C51.2115 53.0432 50.3473 53.3317 49.4883 53.2386C48.6292 53.1454 47.807 52.815 47.0248 52.2418C46.2397 51.6742 45.5098 50.9855 44.8208 50.1898C44.1347 49.3884 43.5272 48.6133 43.001 47.8729L45.8583 44.2609C46.4314 45.0753 46.9469 45.7675 47.416 46.3433C47.8851 46.9192 48.3031 47.305 48.6756 47.5038C49.051 47.6969 49.3902 47.6436 49.7019 47.3271C50.0558 47.0109 50.1553 46.5283 50.0057 45.8962C49.8505 45.2612 49.6125 44.7046 49.286 44.2234C48.5418 43.1217 47.7701 42.3903 46.9654 42.0261C46.1607 41.6619 45.355 41.3685 44.5401 41.1343L41.7262 40.4056C40.7652 40.1248 39.808 39.7676 38.8661 39.3258C37.9242 38.884 36.9957 38.2782 36.0863 37.5115C35.1798 36.7391 34.2963 35.7152 33.4276 34.4285C32.6088 33.2101 32.0133 31.9571 31.6467 30.6724C31.2774 29.3792 31.175 28.1593 31.3285 27.0069C31.482 25.8546 31.9212 24.8492 32.635 23.9851L30.3168 20.5434L31.3987 19.5697L31.396 19.5612Z" fill="#DDD1FA" stroke="#111119" stroke-linecap="round" stroke-linejoin="round"/>
</g>
<defs>
<clipPath id="clip0_2506_21906">
<rect width="60.461" height="54.5" fill="white" transform="translate(25.3872) rotate(27.2225)"/>
</clipPath>
</defs>
</svg>
