<svg width="77" height="77" viewBox="0 0 77 77" fill="none" xmlns="http://www.w3.org/2000/svg">
    <path
        d="M75.848 47.8133C70.7055 68.4385 49.8132 80.9906 29.1832 75.8474C8.56186 70.7054 -3.99164 49.8141 1.15315 29.1906C6.29342 8.56313 27.1858 -3.9899 47.8093 1.15205C68.4378 6.294 80.9906 27.1876 75.8475 47.8137L75.8478 47.8133H75.848Z"
        fill="#F29427" />
    <path
        d="M55.4787 33.0189C56.2451 27.8953 52.344 25.1413 47.0095 23.304L48.74 16.3638L44.5148 15.3111L42.8302 22.0686C41.7194 21.7916 40.5787 21.5306 39.4449 21.2718L41.1418 14.4697L36.9192 13.417L35.1877 20.355C34.2685 20.1457 33.3657 19.9389 32.4898 19.721L32.4947 19.6992L26.668 18.2443L25.5441 22.7566C25.5441 22.7566 28.6788 23.4751 28.6128 23.5193C30.3237 23.9463 30.6331 25.0788 30.5818 25.9764L28.6105 33.883C28.7283 33.9129 28.8811 33.9562 29.0498 34.0239C28.9088 33.9889 28.7588 33.9507 28.6032 33.9135L25.8401 44.9895C25.631 45.5092 25.1003 46.2893 23.904 45.993C23.9464 46.0544 20.8331 45.2268 20.8331 45.2268L18.7354 50.0627L24.2338 51.4333C25.2567 51.6898 26.2591 51.9581 27.2462 52.2105L25.4978 59.2303L29.7181 60.283L31.4496 53.3377C32.6025 53.6507 33.7214 53.9393 34.8168 54.2114L33.0911 61.124L37.3165 62.1767L39.0648 55.1701C46.2696 56.5335 51.6871 55.9838 53.9674 49.4677C55.8049 44.2215 53.876 41.1955 50.0855 39.2222C52.8463 38.5855 54.9258 36.7699 55.4802 33.0194L55.4789 33.0185L55.4787 33.0189ZM45.8251 46.5542C44.5193 51.8004 35.6853 48.9645 32.8212 48.2533L35.1414 38.9533C38.0054 39.6682 47.1898 41.0829 45.8253 46.5542H45.8251ZM47.1318 32.9428C45.9407 37.7148 38.588 35.2904 36.2029 34.696L38.3065 26.2613C40.6916 26.8558 48.3727 27.9653 47.1322 32.9428H47.1318Z"
        fill="white" />
</svg>