<svg width="145" height="164" viewBox="0 0 145 164" fill="none" xmlns="http://www.w3.org/2000/svg">
<rect x="4.45654" y="37.5596" width="88" height="88" rx="44" stroke="white" stroke-width="8"/>
<g clip-path="url(#clip0_2506_21871)">
<g clip-path="url(#clip1_2506_21871)">
<g clip-path="url(#clip2_2506_21871)">
<mask id="mask0_2506_21871" style="mask-type:luminance" maskUnits="userSpaceOnUse" x="8" y="41" width="81" height="81">
<path d="M88.4565 41.5596H8.45654V121.56H88.4565V41.5596Z" fill="white"/>
</mask>
<g mask="url(#mask0_2506_21871)">
<path d="M8.45654 81.5594C8.45654 103.651 26.3646 121.56 48.4559 121.56C70.5475 121.56 88.4565 103.651 88.4565 81.5594C88.4565 59.468 70.5475 41.5596 48.4559 41.5596C26.3646 41.5596 8.45654 59.4679 8.45654 81.5594Z" fill="#0C0C4F"/>
<path fill-rule="evenodd" clip-rule="evenodd" d="M8.45654 81.5596C8.45654 59.468 26.3646 41.5596 48.4559 41.5596C70.5475 41.5596 88.4565 59.4679 88.4565 81.5596C88.4565 103.651 70.5475 121.56 48.4559 121.56C26.3646 121.56 8.45654 103.651 8.45654 81.5596ZM48.4559 45.1328C28.3381 45.1328 12.0298 61.4414 12.0298 81.5596C12.0298 101.678 28.3381 117.986 48.4559 117.986C68.5741 117.986 84.8833 101.677 84.8833 81.5596C84.8833 61.4415 68.5741 45.1328 48.4559 45.1328Z" fill="url(#paint0_linear_2506_21871)"/>
<path fill-rule="evenodd" clip-rule="evenodd" d="M31.1628 72.3233L32.1306 69.3333C32.3274 68.7251 32.8074 68.2519 33.4178 68.0653L36.4224 67.1413C36.8382 67.0143 36.8416 66.4275 36.429 66.2937L33.438 65.3259C32.831 65.1291 32.3578 64.6491 32.17 64.0387L31.2472 61.0342C31.1202 60.6194 30.5334 60.6149 30.3996 61.0285L29.4318 64.0185C29.2352 64.6255 28.7552 65.0989 28.1448 65.2865L25.1401 66.2093C24.7243 66.3375 24.7198 66.9231 25.1334 67.0569L28.1245 68.0247C28.7316 68.2215 29.2048 68.7025 29.3924 69.3129L30.3154 72.3165C30.4424 72.7323 31.0292 72.7369 31.1628 72.3233Z" fill="#FAFAFA"/>
<path fill-rule="evenodd" clip-rule="evenodd" d="M78.6532 70.5834C77.4146 69.1984 75.4816 68.4185 73.6022 68.0987C71.7078 67.7917 69.7212 67.82 67.8514 68.1522C64.0672 68.7924 60.6294 70.3593 57.631 72.2923C56.074 73.2409 54.746 74.3387 53.3704 75.4565C52.7076 76.0219 52.1032 76.624 51.4738 77.2174L49.7542 78.9285C47.8856 80.8819 46.0438 82.6609 44.2618 84.1355C42.4726 85.6033 40.7998 86.7181 39.1512 87.4967C37.5036 88.2791 35.7408 88.7393 33.4432 88.813C31.1656 88.8932 28.471 88.4823 25.5888 87.8039C22.691 87.1283 19.648 86.1655 16.2476 85.3371C17.4341 88.6287 19.2208 91.5375 21.5147 94.1967C23.8356 96.8097 26.7336 99.1908 30.4564 100.757C34.1256 102.358 38.7366 102.933 43.0478 102.066C47.3706 101.233 51.1642 99.2334 54.2304 96.9198C57.3046 94.5828 59.7918 91.9207 61.8886 89.153C62.4672 88.3883 62.7734 87.9605 63.1922 87.3627L64.35 85.6479C65.1546 84.587 65.887 83.3793 66.683 82.3283C68.2444 80.1273 69.7838 77.9286 71.5724 75.903C72.4726 74.8756 73.422 73.893 74.5426 72.9486C75.1014 72.4876 75.7054 72.0365 76.3744 71.6303C77.0532 71.1919 77.7704 70.8488 78.6532 70.5834Z" fill="url(#paint1_linear_2506_21871)"/>
<path fill-rule="evenodd" clip-rule="evenodd" d="M78.6532 70.583C77.3228 67.2252 74.8488 64.3986 71.5282 62.3128C68.228 60.25 63.6444 59.1973 59.102 60.0947C56.8582 60.5287 54.6842 61.3642 52.7764 62.4768C50.8772 63.5852 49.1754 64.9192 47.702 66.3504C46.9666 67.0686 46.299 67.8176 45.6358 68.5708L43.9168 70.7624L41.2616 74.2904C37.877 78.8296 34.232 84.1494 28.2505 85.7256C22.3784 87.273 19.8315 85.9026 16.2476 85.3364C16.9029 87.0282 17.7146 88.6714 18.8151 90.1168C19.895 91.5916 21.1706 92.9764 22.7565 94.164C23.558 94.7342 24.4041 95.297 25.3439 95.7744C26.2794 96.2356 27.2883 96.6414 28.3651 96.9468C30.507 97.5338 32.9184 97.7398 35.2534 97.4236C37.5892 97.112 39.822 96.372 41.7736 95.3888C43.7396 94.4146 45.4524 93.2286 46.9816 91.977C50.0216 89.4524 52.3862 86.663 54.3836 83.8434C55.3882 82.4336 56.3002 80.9972 57.1436 79.5604L58.1362 77.85C58.4398 77.35 58.7466 76.847 59.0582 76.3784C60.3164 74.496 61.5466 72.9866 63.0408 71.8538C64.5144 70.6916 66.5664 69.8328 69.3084 69.6334C72.0388 69.4316 75.1912 69.8044 78.6532 70.583Z" fill="#FAFAFA"/>
<path fill-rule="evenodd" clip-rule="evenodd" d="M63.8823 98.4822C63.8823 100.949 65.8829 102.949 68.3489 102.949C70.8153 102.949 72.8129 100.949 72.8129 98.4822C72.8129 96.0162 70.8153 94.0156 68.3489 94.0156C65.8829 94.0156 63.8823 96.0162 63.8823 98.4822Z" fill="url(#paint2_linear_2506_21871)"/>
</g>
</g>
</g>
</g>
<rect x="52.4565" y="37.5596" width="88" height="88" rx="44" stroke="white" stroke-width="8"/>
<g clip-path="url(#clip3_2506_21871)">
<g clip-path="url(#clip4_2506_21871)">
<g clip-path="url(#clip5_2506_21871)">
<path d="M96.4565 121.559C101.713 121.572 106.92 120.546 111.779 118.54C116.638 116.535 121.052 113.589 124.769 109.872C128.486 106.155 131.432 101.741 133.437 96.8818C135.443 92.0232 136.469 86.816 136.456 81.5596C136.469 76.3032 135.443 71.096 133.437 66.2374C131.432 61.3786 128.486 56.964 124.769 53.2472C121.052 49.5303 116.638 46.5844 111.779 44.5787C106.92 42.573 101.713 41.547 96.4565 41.5597C91.2001 41.5468 85.9927 42.5727 81.1339 44.5783C76.2752 46.5839 71.8605 49.5298 68.1436 53.2467C64.4267 56.9636 61.4809 61.3782 59.4752 66.237C57.4696 71.096 56.4438 76.3032 56.4567 81.5596C56.444 86.816 57.47 92.0232 59.4757 96.8818C61.4814 101.741 64.4273 106.155 68.1441 109.872C71.861 113.589 76.2756 116.535 81.1343 118.54C85.9929 120.546 91.2001 121.572 96.4565 121.559Z" fill="#2775CA"/>
<path d="M107.458 87.8924C107.458 82.059 103.957 80.0526 96.9568 79.2254C91.9568 78.5598 90.9568 77.2254 90.9568 74.8926C90.9568 72.5598 92.624 71.0526 95.9568 71.0526C98.9568 71.0526 100.624 72.0526 101.458 74.5534C101.544 74.7948 101.701 75.004 101.91 75.1528C102.119 75.3016 102.368 75.3828 102.624 75.3854H105.29C105.444 75.3892 105.597 75.3618 105.741 75.3046C105.884 75.2474 106.015 75.1616 106.124 75.0526C106.233 74.9436 106.319 74.8134 106.376 74.67C106.434 74.5268 106.461 74.3732 106.458 74.219V74.059C106.135 72.2526 105.225 70.6036 103.868 69.3678C102.512 68.1322 100.785 67.379 98.9568 67.2254V63.2254C98.9568 62.5598 98.4576 62.059 97.624 61.8926H95.1232C94.4576 61.8926 93.9568 62.3918 93.7904 63.2254V67.0654C88.7904 67.7326 85.6306 71.0654 85.6306 75.2254C85.6306 80.7262 88.9634 82.8926 95.9632 83.7262C100.63 84.5598 102.13 85.5596 102.13 88.2252C102.13 90.8908 99.7968 92.726 96.6304 92.726C92.296 92.726 90.797 90.8924 90.2962 88.3916C90.1362 87.726 89.6306 87.3916 89.1298 87.3916H86.2834C86.129 87.3882 85.9756 87.416 85.8324 87.4734C85.6892 87.531 85.5592 87.6168 85.4502 87.726C85.3412 87.8352 85.2554 87.9654 85.198 88.1088C85.1408 88.252 85.1132 88.4054 85.117 88.5596V88.7196C85.7842 92.8796 88.4512 95.886 93.9504 96.7196V100.72C93.9504 101.385 94.4512 101.886 95.2832 102.052H97.784C98.4512 102.052 98.9504 101.553 99.1168 100.72V96.7196C104.117 95.886 107.451 92.3852 107.451 87.886L107.458 87.8924Z" fill="white"/>
<path d="M87.9555 105.391C74.9554 100.725 68.2883 86.2245 73.1219 73.3909C75.6226 66.3909 81.1219 61.0582 87.9555 58.559C88.6227 58.2246 88.9555 57.7254 88.9555 56.8918V54.559C88.9555 53.8918 88.6227 53.391 87.9555 53.2246C87.7955 53.2246 87.4563 53.2246 87.2883 53.3846C71.4563 58.3846 62.7891 75.2181 67.7891 91.0517C69.2416 95.6253 71.7707 99.7835 75.1637 103.177C78.5569 106.57 82.7147 109.099 87.2883 110.552C87.9555 110.885 88.6227 110.552 88.7891 109.885C88.9491 109.725 88.9491 109.552 88.9491 109.218V106.885C88.9555 106.386 88.4563 105.725 87.9555 105.391ZM105.622 53.391C104.955 53.0582 104.288 53.391 104.122 54.0582C103.962 54.2182 103.962 54.391 103.962 54.7254V57.0582C103.962 57.7254 104.463 58.391 104.962 58.7254C117.962 63.3909 124.629 77.8917 119.795 90.7253C117.294 97.7253 111.795 103.058 104.962 105.559C104.295 105.892 103.962 106.391 103.962 107.224V109.559C103.962 110.224 104.295 110.725 104.962 110.892C105.122 110.892 105.462 110.892 105.629 110.732C121.469 105.732 130.128 88.8981 125.128 73.0645C123.68 68.4699 121.155 64.2877 117.763 60.8666C114.371 57.4455 110.211 54.8846 105.629 53.3974L105.622 53.391Z" fill="white"/>
</g>
</g>
</g>
<defs>
<linearGradient id="paint0_linear_2506_21871" x1="83.4441" y1="62.4532" x2="12.2819" y2="75.6574" gradientUnits="userSpaceOnUse">
<stop stop-color="#EC796B"/>
<stop offset="1" stop-color="#E175B1"/>
</linearGradient>
<linearGradient id="paint1_linear_2506_21871" x1="78.3198" y1="69.4052" x2="23.3934" y2="99.9236" gradientUnits="userSpaceOnUse">
<stop stop-color="#EC796B"/>
<stop offset="1" stop-color="#E175B1"/>
</linearGradient>
<linearGradient id="paint2_linear_2506_21871" x1="72.8099" y1="95.3492" x2="63.8763" y2="96.2942" gradientUnits="userSpaceOnUse">
<stop stop-color="#EC796B"/>
<stop offset="1" stop-color="#E175B1"/>
</linearGradient>
<clipPath id="clip0_2506_21871">
<rect x="8.45654" y="41.5596" width="80" height="80" rx="40" fill="white"/>
</clipPath>
<clipPath id="clip1_2506_21871">
<rect width="80" height="80" fill="white" transform="translate(8.45654 41.5596)"/>
</clipPath>
<clipPath id="clip2_2506_21871">
<rect width="80" height="80" fill="white" transform="translate(8.45654 41.5596)"/>
</clipPath>
<clipPath id="clip3_2506_21871">
<rect x="56.4565" y="41.5596" width="80" height="80" rx="40" fill="white"/>
</clipPath>
<clipPath id="clip4_2506_21871">
<rect width="80" height="80" fill="white" transform="translate(56.4565 41.5596)"/>
</clipPath>
<clipPath id="clip5_2506_21871">
<rect width="80" height="80" fill="white" transform="translate(56.4565 41.5596)"/>
</clipPath>
</defs>
</svg>
