<svg width="48" height="48" viewBox="0 0 48 48" fill="none" xmlns="http://www.w3.org/2000/svg">
    <circle cx="24" cy="24" r="23.5" fill="#6680E3" stroke="white" />
    <path
        d="M24.0532 6.1948V6.21254C24.0709 6.30121 24.0709 6.40761 24.0709 6.51402V19.3002C24.0532 19.3712 24 19.3889 23.9468 19.4244C23.5744 19.6017 23.2197 19.7613 22.8473 19.9209C22.333 20.1515 21.801 20.3997 21.2867 20.6303L19.4246 21.4815C18.9103 21.712 18.3961 21.9426 17.8995 22.1731C17.2965 22.4569 16.6759 22.7229 16.0729 23.0066C15.5586 23.2372 15.0443 23.4854 14.5123 23.716C14.0867 23.9111 13.6611 24.0884 13.2532 24.2835C13.2177 24.3012 13.1823 24.3189 13.1468 24.3189C13.1291 24.3189 13.1291 24.3189 13.1113 24.3012L13.5901 23.5032C14.5123 21.9781 15.4167 20.4707 16.3389 18.9455C17.3143 17.314 18.3074 15.6825 19.2828 14.051C20.1872 12.5436 21.1094 11.0362 22.0138 9.52879C22.6699 8.42929 23.3438 7.32978 24 6.23027C24.0177 6.1948 24.0355 6.17707 24.0355 6.1416H24.0532C24.0355 6.15934 24.0532 6.17707 24.0532 6.1948Z"
        fill="white" />
    <path
        d="M34.9417 24.3015L34.9595 24.3193L32.3526 25.8621L24.1595 30.7035C24.124 30.7212 24.0885 30.739 24.0708 30.7567C24.0176 30.7567 24.0176 30.7035 24.0176 30.6858V30.5262V19.5666C24.0176 19.5134 24.0176 19.4424 24.0353 19.3892C24.053 19.3183 24.1062 19.336 24.1595 19.3538C24.39 19.4602 24.6383 19.5666 24.8688 19.673C25.5604 19.9922 26.2521 20.3114 26.9437 20.6129C27.5466 20.8789 28.1319 21.1626 28.7348 21.4286C29.3378 21.6946 29.9407 21.9784 30.5437 22.2444C31.058 22.4749 31.59 22.7232 32.1043 22.9538C32.6186 23.1843 33.1506 23.4326 33.6649 23.6631C34.0728 23.8405 34.4806 24.0355 34.8885 24.2129C34.8885 24.2661 34.9063 24.2838 34.9417 24.3015Z"
        fill="#8499E8" />
    <path
        d="M24.0532 41.7696C24.0532 41.7873 24.0355 41.8051 24.0355 41.8228H24.0177C24.0177 41.7873 23.9823 41.7696 23.9645 41.7341C22.865 40.1913 21.7655 38.6307 20.666 37.0878C19.5488 35.5095 18.4138 33.9134 17.2966 32.3351C16.2148 30.81 15.1153 29.2671 14.0335 27.742C13.7498 27.3341 13.466 26.944 13.1823 26.5361C13.1645 26.5006 13.1468 26.4829 13.1113 26.4297C13.1645 26.4297 13.2 26.4652 13.2177 26.4829C14.7606 27.3873 16.2857 28.2918 17.8286 29.1962C19.602 30.2425 21.3576 31.2888 23.131 32.3351L24.0355 32.8671C24.0709 32.9026 24.0709 32.9381 24.0709 32.9735V41.5213C24.0709 41.61 24.0709 41.6987 24.0532 41.7696Z"
        fill="white" />
    <path
        d="M13.0938 24.3369V24.3192C13.6612 24.0709 14.211 23.8049 14.7785 23.5566C15.5056 23.2197 16.2327 22.9005 16.9598 22.5635C17.5095 22.3152 18.077 22.0492 18.6268 21.801C19.4425 21.4285 20.2405 21.0739 21.0563 20.7015C21.6061 20.4532 22.1558 20.2049 22.7233 19.9389C23.1135 19.7616 23.5213 19.5842 23.9115 19.4069C23.947 19.3891 24.0002 19.3714 24.0179 19.3359C24.0356 19.3359 24.0356 19.3537 24.0179 19.3714V30.6325C24.0179 30.6857 24.0002 30.7389 24.0356 30.7744C24.0002 30.8276 23.9647 30.7744 23.947 30.7566C23.7873 30.668 23.6277 30.5793 23.4681 30.4729C20.0455 28.4512 16.6051 26.4118 13.1824 24.3901C13.1647 24.3724 13.1292 24.3547 13.0938 24.3369Z"
        fill="#C3CCF3" />
    <path
        d="M34.9051 26.4297H34.9229C34.9229 26.4652 34.8874 26.5006 34.8697 26.5361C31.6066 31.1292 28.3435 35.74 25.0805 40.3331C24.7435 40.812 24.3889 41.2908 24.0519 41.7696C24.0342 41.7519 24.0342 41.7341 24.0342 41.7164V41.61V33.009V32.8494C24.779 32.406 25.5061 31.9804 26.2509 31.5371C29.1238 29.8346 31.9967 28.1499 34.8519 26.4474C34.8696 26.4652 34.8874 26.4474 34.9051 26.4297Z"
        fill="#C3CCF3" />
    <path
        d="M24.0355 19.3715V19.336V19.2296V6.35476C24.0355 6.30156 24.0177 6.26609 24.0532 6.21289C27.6532 12.1892 31.2532 18.1479 34.8355 24.1242C34.8709 24.1774 34.9241 24.2484 34.9419 24.3193C34.6936 24.2306 34.4631 24.1065 34.2325 24.0001C33.9488 23.8759 33.6473 23.7341 33.3635 23.6099C33.1862 23.5213 32.9911 23.4503 32.8138 23.3617C32.5123 23.2198 32.2108 23.0957 31.9094 22.9538C31.732 22.8828 31.5547 22.7942 31.3773 22.7055L30.2069 22.1735C30.0118 22.0848 29.8168 21.9961 29.6039 21.9075L28.7527 21.5351C28.5754 21.4641 28.398 21.3755 28.2207 21.2868L27.0502 20.7548C26.8552 20.6661 26.6601 20.5774 26.4473 20.4888L25.5961 20.1163C25.401 20.0277 25.2236 19.939 25.0286 19.8503C24.6916 19.6907 24.3547 19.5311 24 19.3892C24.0532 19.3715 24.0355 19.3715 24.0355 19.3715Z"
        fill="#C3CCF3" />
</svg>