<svg width="21" height="22" viewBox="0 0 21 22" fill="none" xmlns="http://www.w3.org/2000/svg">
<g filter="url(#filter0_d_2506_21949)">
<path d="M11.1419 0.882915C11.0239 0.572541 10.5849 0.572541 10.4669 0.882915L8.92588 4.93598C8.89259 5.02354 8.82658 5.09474 8.74178 5.13454L5.00078 6.8905C4.72388 7.02047 4.72388 7.41432 5.00078 7.54429L8.74178 9.30025C8.82658 9.34005 8.89259 9.41125 8.92588 9.49881L10.4669 13.5519C10.5849 13.8622 11.0239 13.8622 11.1419 13.5519L12.6829 9.49881C12.7162 9.41125 12.7822 9.34005 12.867 9.30025L16.608 7.54429C16.8849 7.41432 16.8849 7.02047 16.608 6.8905L12.867 5.13454C12.7822 5.09474 12.7162 5.02354 12.6829 4.93598L11.1419 0.882915Z" fill="#9069F0"/>
</g>
<defs>
<filter id="filter0_d_2506_21949" x="0.793091" y="0.650391" width="20.0226" height="21.1338" filterUnits="userSpaceOnUse" color-interpolation-filters="sRGB">
<feFlood flood-opacity="0" result="BackgroundImageFix"/>
<feColorMatrix in="SourceAlpha" type="matrix" values="0 0 0 0 0 0 0 0 0 0 0 0 0 0 0 0 0 0 127 0" result="hardAlpha"/>
<feOffset dy="4"/>
<feGaussianBlur stdDeviation="2"/>
<feComposite in2="hardAlpha" operator="out"/>
<feColorMatrix type="matrix" values="0 0 0 0 0 0 0 0 0 0 0 0 0 0 0 0 0 0 0.25 0"/>
<feBlend mode="normal" in2="BackgroundImageFix" result="effect1_dropShadow_2506_21949"/>
<feBlend mode="normal" in="SourceGraphic" in2="effect1_dropShadow_2506_21949" result="shape"/>
</filter>
</defs>
</svg>
