<svg width="274" height="328" viewBox="0 0 274 328" fill="none" xmlns="http://www.w3.org/2000/svg">
<rect x="0.666504" width="273" height="328" rx="8" fill="url(#paint0_linear_2622_22073)"/>
<rect x="0.666504" width="273" height="328" rx="8" fill="url(#paint1_linear_2622_22073)" fill-opacity="0.2"/>
<rect x="0.666504" width="273" height="328" rx="8" fill="url(#paint2_radial_2622_22073)" fill-opacity="0.2"/>
<path d="M200.187 164.817C200.187 170.29 200.893 174 202.311 175.948C203.729 177.871 206.625 178.832 211.002 178.832C215.621 178.832 219.006 177.71 221.155 175.467C223.013 173.569 224.076 170.931 224.346 167.553V141.15H233.659V184.823H224.751V180.09C224.751 177.225 224.751 178.778 224.751 178.778C224.503 179.08 224.246 179.381 223.979 179.683C220.678 183.38 215.304 185.23 207.849 185.23C201.175 185.23 196.679 183.529 194.357 180.127C192.057 176.7 190.909 171.769 190.909 165.335V141.113H200.187V164.817Z" fill="white"/>
<path fill-rule="evenodd" clip-rule="evenodd" d="M146.342 182.272C149.911 184.22 155.63 185.193 163.5 185.193C171.371 185.193 176.907 184.281 180.11 182.457C183.31 180.608 184.91 177.292 184.91 172.509C184.91 167.357 183.053 164.103 179.338 162.747C175.648 161.366 171.138 160.454 165.81 160.011C161.337 159.591 157.597 159.049 154.591 158.383C151.609 157.718 150.118 155.943 150.118 153.059C150.118 150.223 151.084 148.461 153.015 147.77C154.97 147.08 157.903 146.735 161.814 146.735C166.262 146.735 169.733 147.191 172.226 148.103C174.744 149.015 176.002 151.246 176.002 154.797H184.801C184.801 149.324 183.053 145.626 179.558 143.703C176.064 141.755 170.246 140.781 162.107 140.781C155.092 140.781 149.849 141.657 146.379 143.407C142.908 145.157 141.172 148.3 141.172 152.837C141.172 157.915 143.079 161.243 146.892 162.821C150.705 164.399 155.288 165.41 160.641 165.853C165.211 166.223 168.914 166.704 171.75 167.295C174.609 167.887 176.039 169.785 176.039 172.99C176.039 175.628 175 177.329 172.923 178.094C170.845 178.833 167.851 179.203 163.94 179.203C159.639 179.203 156.217 178.71 153.675 177.724C151.158 176.747 149.887 174.405 149.862 170.698H141.026C141.048 176.479 142.82 180.337 146.342 182.272Z" fill="white"/>
<path fill-rule="evenodd" clip-rule="evenodd" d="M134.95 170.697C134.405 174.284 133.327 177.082 131.716 179.092C129.858 181.384 127.561 182.987 124.823 183.899C122.085 184.811 117.894 185.267 112.248 185.267C103.057 185.267 96.8491 183.541 93.6227 180.09C90.3963 176.663 88.7832 170.956 88.7832 162.969C88.7832 154.882 90.4207 149.163 93.6961 145.81C96.9711 142.433 103.094 140.744 112.064 140.744C121.108 140.744 127.218 142.457 130.396 145.884C133.573 149.286 135.162 154.66 135.162 162.007L135.125 164.485H97.7288C97.9246 170.401 98.9387 174.284 100.772 176.133C102.849 178.253 106.675 179.313 112.248 179.313C115.694 179.313 118.15 179.067 119.617 178.574C121.083 178.081 122.391 177.058 123.54 175.504C124.443 174.283 125.127 172.681 125.592 170.697H134.95ZM122.88 149.397C124.884 151.197 125.911 154.525 125.96 159.381H97.7656C98.0344 154.574 99.0733 151.32 100.882 149.619C103.009 147.647 106.748 146.661 112.101 146.661C117.283 146.661 120.876 147.573 122.88 149.397Z" fill="white"/>
<path d="M51.5934 149.039L64.1906 183.753C64.7965 185.422 66.1237 186.397 67.5723 186.679H58.0469C56.4658 186.679 55.0533 185.682 54.5105 184.185L41.5798 148.502C40.0834 144.373 42.3303 140 46.6894 140H54.9717C53.5545 140.51 52.4713 141.592 51.8253 142.897C50.9386 144.689 50.8301 146.936 51.5934 149.039Z" fill="url(#paint3_linear_2622_22073)"/>
<mask id="mask0_2622_22073" style="mask-type:alpha" maskUnits="userSpaceOnUse" x="38" y="141" width="39" height="47">
<path d="M76.3069 141.582H38.3418V187.786H76.3069V141.582Z" fill="url(#paint4_linear_2622_22073)"/>
</mask>
<g mask="url(#mask0_2622_22073)">
<g filter="url(#filter0_f_2622_22073)">
<path d="M51.5944 149.039L64.1916 183.753C64.7975 185.422 66.1247 186.397 67.5733 186.679H58.0478C56.4668 186.679 55.0543 185.682 54.5114 184.185L41.5807 148.502C40.0844 144.373 42.3312 140 46.6903 140H54.9727C53.5554 140.51 52.4723 141.592 51.8263 142.897C50.9396 144.689 50.831 146.936 51.5944 149.039Z" fill="url(#paint5_linear_2622_22073)"/>
</g>
</g>
<path d="M70.968 183.1C70.1139 185.454 66.8135 185.454 65.9591 183.1L53.3619 148.386C52.1631 145.082 53.8037 141.582 56.8215 141.582H80.106C83.1237 141.582 84.7641 145.082 83.5652 148.386L70.968 183.1Z" fill="url(#paint6_linear_2622_22073)"/>
<path d="M70.968 183.1C70.1139 185.454 66.8135 185.454 65.9591 183.1L53.3619 148.386C52.1631 145.082 53.8037 141.582 56.8215 141.582H80.106C83.1237 141.582 84.7641 145.082 83.5652 148.386L70.968 183.1Z" fill="url(#paint7_radial_2622_22073)"/>
<path d="M70.968 183.1C70.1139 185.454 66.8135 185.454 65.9591 183.1L53.3619 148.386C52.1631 145.082 53.8037 141.582 56.8215 141.582H80.106C83.1237 141.582 84.7641 145.082 83.5652 148.386L70.968 183.1Z" fill="url(#paint8_radial_2622_22073)"/>
<path d="M70.968 183.1C70.1139 185.454 66.8135 185.454 65.9591 183.1L53.3619 148.386C52.1631 145.082 53.8037 141.582 56.8215 141.582H80.106C83.1237 141.582 84.7641 145.082 83.5652 148.386L70.968 183.1Z" fill="url(#paint9_radial_2622_22073)"/>
<path d="M70.968 183.1C70.1139 185.454 66.8135 185.454 65.9591 183.1L53.3619 148.386C52.1631 145.082 53.8037 141.582 56.8215 141.582H80.106C83.1237 141.582 84.7641 145.082 83.5652 148.386L70.968 183.1Z" fill="url(#paint10_linear_2622_22073)" fill-opacity="0.8"/>
<path fill-rule="evenodd" clip-rule="evenodd" d="M65.5164 183.263L52.9195 148.549C52.2791 146.784 52.3889 144.947 53.0886 143.533C53.7927 142.111 55.1058 141.107 56.8205 141.107H80.1053C81.82 141.107 83.1331 142.111 83.8372 143.533C84.5372 144.947 84.647 146.784 84.0066 148.549L71.4094 183.263C70.4044 186.032 66.5213 186.032 65.5164 183.263ZM65.9585 183.1C66.8125 185.454 70.1133 185.454 70.9673 183.1L83.5645 148.386C84.7634 145.082 83.1231 141.582 80.1053 141.582H56.8205C53.803 141.582 52.1624 145.082 53.3613 148.386L65.9585 183.1Z" fill="url(#paint11_linear_2622_22073)"/>
<g filter="url(#filter1_f_2622_22073)">
<path d="M70.968 183.1C70.1139 185.454 66.8135 185.454 65.9591 183.1L53.3619 148.386C52.1631 145.082 53.8037 141.582 56.8215 141.582H80.106C83.1237 141.582 84.7641 145.082 83.5652 148.386L70.968 183.1Z" fill="url(#paint12_radial_2622_22073)"/>
</g>
<defs>
<filter id="filter0_f_2622_22073" x="36.5294" y="135.411" width="35.6326" height="55.8572" filterUnits="userSpaceOnUse" color-interpolation-filters="sRGB">
<feFlood flood-opacity="0" result="BackgroundImageFix"/>
<feBlend mode="normal" in="SourceGraphic" in2="BackgroundImageFix" result="shape"/>
<feGaussianBlur stdDeviation="2.29438" result="effect1_foregroundBlur_2622_22073"/>
</filter>
<filter id="filter1_f_2622_22073" x="48.3785" y="136.993" width="40.1702" height="52.4607" filterUnits="userSpaceOnUse" color-interpolation-filters="sRGB">
<feFlood flood-opacity="0" result="BackgroundImageFix"/>
<feBlend mode="normal" in="SourceGraphic" in2="BackgroundImageFix" result="shape"/>
<feGaussianBlur stdDeviation="2.29438" result="effect1_foregroundBlur_2622_22073"/>
</filter>
<linearGradient id="paint0_linear_2622_22073" x1="30.6642" y1="292.657" x2="170.41" y2="144.012" gradientUnits="userSpaceOnUse">
<stop stop-color="#212121"/>
<stop offset="1"/>
</linearGradient>
<linearGradient id="paint1_linear_2622_22073" x1="137.167" y1="61.2544" x2="137.167" y2="412.712" gradientUnits="userSpaceOnUse">
<stop stop-opacity="0"/>
<stop offset="0.729291" stop-color="#5220CB"/>
</linearGradient>
<radialGradient id="paint2_radial_2622_22073" cx="0" cy="0" r="1" gradientUnits="userSpaceOnUse" gradientTransform="translate(137.667 164) rotate(90.1356) scale(211.501 212.018)">
<stop offset="0.58654" stop-opacity="0"/>
<stop offset="0.822472" stop-color="#845BEA"/>
<stop offset="1" stop-opacity="0"/>
</radialGradient>
<linearGradient id="paint3_linear_2622_22073" x1="54.3448" y1="140" x2="54.3448" y2="186.679" gradientUnits="userSpaceOnUse">
<stop offset="0.0214678" stop-color="#C8C8C8" stop-opacity="0"/>
<stop offset="0.0256676" stop-color="#C8C8C8"/>
<stop offset="0.0693822" stop-color="#C9C9C9" stop-opacity="0.927973"/>
<stop offset="0.111865" stop-color="#CBCBCB" stop-opacity="0.42"/>
<stop offset="0.142556" stop-color="#CBCBCB" stop-opacity="0.2"/>
<stop offset="0.171366" stop-color="#1FADD5"/>
<stop offset="0.185193" stop-color="#B2ECFD" stop-opacity="0.938703"/>
<stop offset="0.959939" stop-color="white"/>
<stop offset="0.969541" stop-color="#D9D9D9" stop-opacity="0"/>
</linearGradient>
<linearGradient id="paint4_linear_2622_22073" x1="57.3243" y1="141.582" x2="57.3243" y2="187.786" gradientUnits="userSpaceOnUse">
<stop offset="0.173679" stop-color="#D9D9D9" stop-opacity="0"/>
<stop offset="0.811109" stop-color="#D9D9D9"/>
</linearGradient>
<linearGradient id="paint5_linear_2622_22073" x1="54.3458" y1="140" x2="54.3458" y2="186.679" gradientUnits="userSpaceOnUse">
<stop offset="0.0214678" stop-color="#C8C8C8" stop-opacity="0"/>
<stop offset="0.0256676" stop-color="#C8C8C8"/>
<stop offset="0.0693822" stop-color="#C9C9C9" stop-opacity="0.927973"/>
<stop offset="0.111865" stop-color="#CBCBCB" stop-opacity="0.42"/>
<stop offset="0.142556" stop-color="#CBCBCB" stop-opacity="0.2"/>
<stop offset="0.171366" stop-color="#1FADD5"/>
<stop offset="0.185193" stop-color="#B2ECFD" stop-opacity="0.938703"/>
<stop offset="0.959939" stop-color="white"/>
<stop offset="0.969541" stop-color="#D9D9D9" stop-opacity="0"/>
</linearGradient>
<linearGradient id="paint6_linear_2622_22073" x1="71.3659" y1="157.247" x2="54.6148" y2="142.911" gradientUnits="userSpaceOnUse">
<stop stop-color="#E7CC38"/>
<stop offset="1" stop-color="#E7CC38" stop-opacity="0"/>
</linearGradient>
<radialGradient id="paint7_radial_2622_22073" cx="0" cy="0" r="1" gradientUnits="userSpaceOnUse" gradientTransform="translate(61.4039 141.582) rotate(75.3974) scale(22.4015 22.2345)">
<stop stop-color="#5DAF3D"/>
<stop offset="1" stop-color="#C7E606" stop-opacity="0"/>
</radialGradient>
<radialGradient id="paint8_radial_2622_22073" cx="0" cy="0" r="1" gradientUnits="userSpaceOnUse" gradientTransform="translate(59.3645 164.605) rotate(70.2025) scale(81.9842 25.1192)">
<stop offset="0.0505218" stop-color="#D55401"/>
<stop offset="0.651601" stop-color="#E7CC38" stop-opacity="0"/>
</radialGradient>
<radialGradient id="paint9_radial_2622_22073" cx="0" cy="0" r="1" gradientUnits="userSpaceOnUse" gradientTransform="translate(78.6608 141.582) rotate(99.5693) scale(19.8175 19.6576)">
<stop stop-color="#62FAD2"/>
<stop offset="1" stop-color="#62FA83" stop-opacity="0"/>
</radialGradient>
<linearGradient id="paint10_linear_2622_22073" x1="78.4255" y1="165.554" x2="61.8422" y2="159.632" gradientUnits="userSpaceOnUse">
<stop stop-color="white"/>
<stop offset="0.46419" stop-color="white" stop-opacity="0.41"/>
<stop offset="1" stop-color="white" stop-opacity="0"/>
</linearGradient>
<linearGradient id="paint11_linear_2622_22073" x1="75.0519" y1="165.396" x2="69.4706" y2="163.292" gradientUnits="userSpaceOnUse">
<stop stop-color="white"/>
<stop offset="1" stop-color="white" stop-opacity="0"/>
</linearGradient>
<radialGradient id="paint12_radial_2622_22073" cx="0" cy="0" r="1" gradientUnits="userSpaceOnUse" gradientTransform="translate(63.1296 158.513) rotate(105.643) scale(28.5093 18.1911)">
<stop offset="0.890927" stop-color="white" stop-opacity="0"/>
<stop offset="1" stop-color="white"/>
</radialGradient>
</defs>
</svg>
