<svg width="170" height="236" viewBox="0 0 170 236" fill="none" xmlns="http://www.w3.org/2000/svg">
<path d="M0.662537 186.955L84.7025 235.644L168.513 187.387L84.2184 142.307L0.662537 186.955Z" stroke="#6F4FF2" stroke-miterlimit="10"/>
<path d="M142.267 182.889L141.731 190.512L84.1419 223.675L84.677 216.051L142.267 182.889Z" fill="url(#paint0_linear_2506_21986)"/>
<path d="M84.677 216.051L84.1419 223.675L26.3995 190.208L26.9091 182.584L84.677 216.051Z" fill="url(#paint1_linear_2506_21986)"/>
<path d="M26.9091 182.584L84.677 216.052L142.267 182.889L84.3458 151.912L26.9091 182.584Z" fill="url(#paint2_linear_2506_21986)"/>
<path d="M57.5896 160.273C57.5896 160.273 57.5386 160.222 57.5131 160.171C57.1054 159.764 56.7232 159.332 56.3664 158.9C56.1626 158.646 55.9587 158.417 55.7803 158.163C55.5255 157.833 55.2962 157.503 55.0923 157.172C54.9649 156.969 54.8375 156.791 54.7356 156.588C54.4807 156.156 54.2514 155.724 54.073 155.292C54.0221 155.19 53.9711 155.089 53.9201 154.987C53.6908 154.453 53.5124 153.92 53.3595 153.386C53.334 153.259 53.3086 153.132 53.2576 152.979C53.1557 152.547 53.0792 152.141 53.0283 151.709C53.0283 151.582 53.0028 151.429 52.9773 151.302C52.9263 150.743 52.9263 150.209 52.9773 149.676L52.1873 182.737C52.1873 182.737 52.1873 182.838 52.1873 182.889C52.1873 183.321 52.1873 183.728 52.1873 184.16C52.1873 184.236 52.1873 184.312 52.2128 184.388C52.2128 184.515 52.2383 184.668 52.2638 184.795C52.2638 184.998 52.2893 185.202 52.3402 185.405C52.3657 185.634 52.4422 185.837 52.4931 186.066C52.5186 186.193 52.5441 186.345 52.5951 186.472C52.5951 186.548 52.6205 186.625 52.646 186.675C52.7734 187.107 52.9263 187.539 53.1047 187.971C53.1047 187.997 53.1302 188.022 53.1302 188.048C53.1812 188.149 53.2321 188.251 53.2831 188.353C53.436 188.683 53.5634 188.988 53.7418 189.318C53.7927 189.42 53.8692 189.522 53.9456 189.623C54.0475 189.827 54.175 190.004 54.3024 190.208C54.4298 190.386 54.5062 190.563 54.6336 190.741C54.7356 190.894 54.8885 191.046 54.9904 191.199C55.1688 191.453 55.3726 191.707 55.5765 191.936C55.6784 192.063 55.7803 192.215 55.8823 192.342C56.1371 192.647 56.4174 192.927 56.6977 193.206C56.7232 193.232 56.7486 193.257 56.7741 193.308C57.1309 193.638 57.4876 193.994 57.8699 194.324C58.0227 194.451 58.2011 194.579 58.354 194.706C58.5069 194.833 58.6598 194.96 58.8127 195.087C59.3988 195.544 60.0104 196.027 60.6984 196.459C61.3864 196.916 62.1254 197.374 62.8898 197.78C63.1447 197.908 63.3995 198.035 63.6288 198.162C64.1385 198.441 64.6736 198.721 65.2087 198.975C65.5145 199.127 65.8203 199.254 66.1261 199.381C66.6357 199.61 67.1708 199.839 67.706 200.042C68.0372 200.169 68.343 200.296 68.6743 200.423C68.8781 200.5 69.082 200.576 69.2858 200.652C69.5152 200.728 69.7445 200.779 69.9739 200.855C70.6619 201.084 71.3754 201.287 72.0889 201.491C72.3182 201.567 72.5221 201.643 72.7514 201.694C72.9553 201.745 73.1336 201.77 73.3375 201.821C73.7962 201.923 74.2294 202.024 74.688 202.126C74.9938 202.202 75.2741 202.278 75.5799 202.329C75.8347 202.38 76.0641 202.405 76.3189 202.456C76.6757 202.532 77.0069 202.583 77.3637 202.634C77.593 202.685 77.8478 202.736 78.0772 202.761C78.4849 202.812 78.8926 202.863 79.3003 202.914C79.5551 202.939 79.81 202.99 80.0903 203.015C80.1922 203.015 80.3196 203.041 80.4215 203.066C81.1605 203.142 81.8995 203.219 82.6639 203.269C82.7149 203.269 82.7659 203.269 82.8168 203.269C82.9697 203.269 83.1226 203.269 83.2755 203.269C83.8106 203.295 84.3203 203.346 84.8554 203.346C85.1102 203.346 85.3396 203.346 85.5944 203.346C85.8492 203.346 86.104 203.346 86.3589 203.346C86.5882 203.346 86.7921 203.346 87.0214 203.346C87.6075 203.346 88.1936 203.32 88.7797 203.295C88.8816 203.295 88.9835 203.295 89.1109 203.295C89.1364 203.295 89.1619 203.295 89.1874 203.295C89.9263 203.269 90.6398 203.219 91.3788 203.142C91.5062 203.142 91.6337 203.117 91.7865 203.092C92.0414 203.066 92.2962 203.041 92.5765 203.015C92.9332 202.964 93.29 202.939 93.6467 202.888C93.927 202.863 94.1819 202.787 94.4622 202.761C94.7934 202.71 95.0992 202.66 95.4305 202.609C95.6343 202.583 95.8382 202.558 96.0166 202.507C96.3733 202.431 96.7046 202.355 97.0613 202.278C97.4436 202.202 97.8513 202.126 98.2335 202.024C98.3609 201.999 98.5138 201.973 98.6412 201.923C98.9215 201.846 99.1763 201.77 99.4567 201.694C100.043 201.541 100.629 201.364 101.215 201.186C101.368 201.135 101.546 201.084 101.699 201.033C102.056 200.906 102.413 200.779 102.744 200.627C102.999 200.525 103.253 200.449 103.508 200.347C104.298 200.042 105.063 199.712 105.802 199.331C112.198 196.179 115.587 191.707 115.918 187.031L116.708 153.97C116.377 158.646 112.988 163.119 106.592 166.27C105.853 166.625 105.088 166.956 104.298 167.286C104.043 167.388 103.789 167.464 103.559 167.566C103.05 167.744 102.54 167.947 102.005 168.099C101.419 168.277 100.833 168.455 100.247 168.608C99.8389 168.709 99.4312 168.836 99.0235 168.938C98.6412 169.04 98.259 169.116 97.8513 169.192C97.3162 169.319 96.7555 169.421 96.2204 169.522C95.8892 169.573 95.5834 169.624 95.2521 169.675C94.6151 169.777 94.0035 169.853 93.3664 169.929C93.1116 169.954 92.8313 169.98 92.5765 170.005C91.6846 170.082 90.7927 170.158 89.9009 170.209C89.7989 170.209 89.697 170.209 89.5951 170.209C88.7797 170.234 87.9897 170.259 87.1743 170.259C86.9195 170.259 86.6646 170.259 86.4098 170.259C85.6454 170.259 84.8809 170.209 84.1164 170.183C83.9635 170.183 83.8106 170.183 83.6578 170.183C82.7659 170.132 81.8485 170.031 80.9566 169.929C80.7018 169.904 80.4215 169.853 80.1667 169.827C79.5042 169.751 78.8671 169.65 78.2301 169.548C77.8733 169.497 77.542 169.421 77.1853 169.37C76.6502 169.268 76.0896 169.141 75.5544 169.04C75.0958 168.938 74.6626 168.836 74.2039 168.735C73.7707 168.633 73.363 168.506 72.9553 168.404C72.2418 168.201 71.5283 167.998 70.8402 167.769C70.4071 167.617 69.9739 167.489 69.5661 167.337C69.2349 167.21 68.9036 167.083 68.5978 166.956C68.0627 166.753 67.5531 166.524 67.0179 166.295C66.7121 166.168 66.4064 166.016 66.1006 165.889C65.5655 165.634 65.0303 165.355 64.5207 165.101C64.2659 164.974 64.011 164.847 63.7562 164.694C63.0172 164.262 62.2783 163.83 61.5648 163.373C60.9022 162.915 60.2652 162.458 59.6791 162.001C59.5262 161.873 59.3733 161.746 59.2204 161.619C58.6598 161.162 58.1247 160.705 57.666 160.222L57.5896 160.273Z" fill="url(#paint3_linear_2506_21986)"/>
<path d="M61.4883 163.423C49.4863 155.418 50.1998 143.754 63.0682 137.401C75.9367 131.023 96.093 132.37 108.095 140.375C120.097 148.379 119.384 160.018 106.515 166.396C93.6467 172.749 73.4904 171.428 61.4883 163.423Z" fill="url(#paint4_linear_2506_21986)"/>
<path d="M66.1006 161.137C56.4938 154.733 57.0544 145.381 67.3747 140.299C77.6949 135.191 93.8506 136.259 103.457 142.688C113.064 149.092 112.503 158.443 102.183 163.525C91.863 168.633 75.7073 167.566 66.1006 161.137Z" fill="url(#paint5_linear_2506_21986)"/>
<path style="mix-blend-mode:screen" d="M52.9518 149.727C52.9263 150.26 52.9518 150.819 52.9518 151.353C52.9518 151.48 52.9773 151.632 53.0028 151.76C53.0537 152.192 53.1302 152.598 53.2321 153.03C53.2576 153.157 53.2831 153.284 53.334 153.437C53.4869 153.97 53.6653 154.504 53.8946 155.038C53.9456 155.139 53.9966 155.241 54.0475 155.343C54.2514 155.775 54.4553 156.207 54.7101 156.639C54.812 156.842 54.9394 157.02 55.0668 157.223C55.2707 157.553 55.5255 157.884 55.7548 158.214C55.9332 158.468 56.1371 158.722 56.3409 158.951C56.6977 159.383 57.0799 159.815 57.4876 160.222C57.5131 160.247 57.5386 160.273 57.5641 160.323C58.0482 160.806 58.5834 161.264 59.1185 161.721C59.2714 161.848 59.4243 161.975 59.5772 162.102C60.1632 162.56 60.8003 163.042 61.4628 163.474C62.1509 163.932 62.8898 164.389 63.6543 164.796C63.9091 164.923 64.1639 165.05 64.4188 165.202C64.9284 165.482 65.4635 165.736 65.9986 165.99C66.3044 166.143 66.6102 166.27 66.916 166.397C67.4256 166.625 67.9608 166.854 68.4959 167.057C68.8272 167.185 69.1329 167.312 69.4642 167.439C69.8974 167.591 70.3306 167.744 70.7383 167.871C71.4263 168.099 72.1398 168.303 72.8533 168.506C73.261 168.633 73.6942 168.735 74.102 168.836C74.5606 168.938 74.9938 169.04 75.4525 169.141C75.9876 169.268 76.5228 169.37 77.0834 169.472C77.4401 169.548 77.7714 169.599 78.1281 169.65C78.7652 169.751 79.4277 169.853 80.0648 169.929C80.3196 169.954 80.5999 170.005 80.8547 170.031C81.7466 170.132 82.6639 170.234 83.5558 170.285C83.7087 170.285 83.8616 170.285 84.0145 170.285C84.779 170.336 85.5434 170.361 86.3079 170.361C86.5627 170.361 86.8175 170.361 87.0723 170.361C87.8878 170.361 88.7032 170.361 89.4931 170.31C89.5951 170.31 89.697 170.31 89.7989 170.31C90.6908 170.259 91.5827 170.209 92.4746 170.107C92.7294 170.082 93.0097 170.056 93.2645 170.031C93.9016 169.954 94.5386 169.878 95.1502 169.777C95.4814 169.726 95.7872 169.675 96.1185 169.624C96.6791 169.522 97.2142 169.421 97.7494 169.294C98.1316 169.218 98.5393 169.141 98.9215 169.04C99.3292 168.938 99.737 168.811 100.145 168.709C100.731 168.557 101.317 168.379 101.903 168.201C102.438 168.023 102.948 167.845 103.457 167.667C103.712 167.566 103.967 167.489 104.196 167.388C104.986 167.083 105.751 166.753 106.49 166.371C112.707 163.297 116.096 158.977 116.555 154.428L116.759 82.0802L53.1047 81.9277L52.9263 150.794V149.701L52.9518 149.727Z" fill="url(#paint6_linear_2506_21986)"/>
<path style="mix-blend-mode:screen" d="M59.2714 150.184C59.2459 150.616 59.2714 151.048 59.2714 151.506C59.2714 151.607 59.2714 151.709 59.2968 151.836C59.3478 152.166 59.3988 152.522 59.4752 152.853C59.4752 152.954 59.5262 153.056 59.5517 153.183C59.6791 153.615 59.8065 154.021 59.9849 154.453C60.0103 154.53 60.0613 154.606 60.0868 154.682C60.2397 155.038 60.4181 155.368 60.6219 155.724C60.7238 155.877 60.8003 156.029 60.9022 156.181C61.0806 156.436 61.259 156.715 61.4628 156.969C61.6157 157.173 61.7686 157.376 61.9215 157.554C62.2018 157.909 62.5076 158.24 62.8389 158.57C62.8389 158.57 62.8898 158.621 62.9153 158.646C63.2975 159.028 63.7307 159.409 64.1639 159.765C64.2913 159.866 64.3933 159.968 64.5207 160.069C65.0048 160.451 65.489 160.806 66.0241 161.188C66.5847 161.569 67.1708 161.925 67.7824 162.255C67.9862 162.357 68.1901 162.458 68.394 162.56C68.8017 162.789 69.2349 162.992 69.6681 163.195C69.8974 163.297 70.1522 163.424 70.407 163.525C70.8148 163.703 71.248 163.881 71.6557 164.059C71.9105 164.161 72.1653 164.262 72.4456 164.364C72.7769 164.491 73.1336 164.593 73.4649 164.72C74.0255 164.898 74.5861 165.076 75.1467 165.228C75.478 165.33 75.8092 165.406 76.166 165.508C76.5227 165.609 76.8795 165.686 77.2362 165.762C77.6694 165.863 78.1026 165.94 78.5358 166.041C78.8161 166.092 79.0964 166.143 79.3767 166.194C79.8864 166.27 80.4215 166.346 80.9312 166.422C81.135 166.448 81.3389 166.473 81.5682 166.499C82.2817 166.575 83.0207 166.651 83.7342 166.702C83.8616 166.702 83.989 166.702 84.0909 166.702C84.7025 166.727 85.3141 166.753 85.9256 166.778C86.1295 166.778 86.3334 166.778 86.5372 166.778C87.1743 166.778 87.8368 166.778 88.4739 166.753C88.5503 166.753 88.6267 166.753 88.7287 166.753C89.4422 166.727 90.1557 166.651 90.8692 166.6C91.073 166.6 91.3024 166.55 91.5062 166.524C92.0159 166.473 92.5255 166.397 93.0097 166.321C93.2645 166.27 93.5193 166.245 93.7741 166.194C94.2073 166.118 94.6405 166.016 95.0992 165.94C95.405 165.863 95.7362 165.813 96.042 165.736C96.3733 165.66 96.7046 165.558 97.0104 165.482C97.4945 165.355 97.9532 165.228 98.4119 165.076C98.8196 164.949 99.2528 164.796 99.6605 164.644C99.8644 164.567 100.068 164.491 100.272 164.415C100.909 164.161 101.521 163.907 102.107 163.602C107.101 161.137 109.802 157.681 110.185 154.047L110.516 34.9923L59.5262 34.8652L59.2204 151.099V150.235L59.2714 150.184Z" fill="url(#paint7_linear_2506_21986)"/>
<path d="M100.298 31.128C100.298 31.128 100.4 31.1026 100.476 31.0772C101.24 30.8231 102.005 30.6198 102.744 30.4419C103.177 30.3402 103.61 30.2386 104.018 30.1624C104.579 30.0607 105.114 29.9591 105.674 29.9082C105.98 29.8828 106.311 29.832 106.617 29.8066C107.305 29.7558 107.968 29.7558 108.63 29.7558C108.783 29.7558 108.936 29.7558 109.089 29.7558C109.879 29.8066 110.643 29.9082 111.382 30.0353C111.561 30.0607 111.739 30.1115 111.943 30.1624C112.529 30.2894 113.09 30.4673 113.65 30.6452C113.829 30.696 114.007 30.7723 114.185 30.8231C114.899 31.1026 115.587 31.4075 116.224 31.7887L103.457 24.3939C103.457 24.3939 103.355 24.3176 103.279 24.2922C102.769 24.0127 102.26 23.7586 101.725 23.5299C101.623 23.479 101.521 23.4536 101.419 23.4282C101.24 23.352 101.062 23.3012 100.884 23.2503C100.603 23.1487 100.349 23.047 100.068 22.9708C99.7879 22.8946 99.4567 22.8438 99.1764 22.7675C98.998 22.7167 98.8196 22.6659 98.6158 22.6405C98.5138 22.6405 98.4119 22.5896 98.31 22.5642C97.6984 22.4626 97.0613 22.3863 96.4243 22.3355C96.3733 22.3355 96.3479 22.3355 96.2969 22.3355C96.144 22.3355 95.9911 22.3355 95.8382 22.3355C95.354 22.3355 94.8699 22.3101 94.3602 22.3355C94.1819 22.3355 94.029 22.3863 93.8506 22.3863C93.5448 22.3863 93.239 22.4372 92.9078 22.488C92.6275 22.5134 92.3217 22.5388 92.0414 22.5642C91.7865 22.615 91.5317 22.6913 91.2769 22.7421C90.8437 22.8183 90.436 22.92 90.0028 23.0216C89.7735 23.0725 89.5441 23.0979 89.3148 23.1741C88.8051 23.3266 88.27 23.479 87.7349 23.6569C87.6839 23.6569 87.633 23.6823 87.5565 23.7078C86.9195 23.9365 86.2824 24.1652 85.6454 24.4193C85.3905 24.5209 85.1357 24.648 84.8809 24.7751C84.6261 24.8767 84.3967 25.0038 84.1419 25.1054C83.1991 25.5374 82.2562 26.0202 81.2879 26.5793C80.2941 27.1638 79.3003 27.7991 78.3065 28.4598C78.0007 28.6885 77.6695 28.9172 77.3637 29.1459C76.7011 29.6287 76.0386 30.1115 75.4016 30.6198C75.0448 30.8993 74.6881 31.2043 74.3313 31.5092C73.7452 32.0174 73.1591 32.5257 72.573 33.0593C72.2163 33.3897 71.8595 33.6946 71.5283 34.025C71.2989 34.2283 71.0951 34.4316 70.8657 34.6349C70.6364 34.8636 70.4325 35.1177 70.2032 35.3464C69.4897 36.0579 68.8017 36.7949 68.1137 37.5572C67.9098 37.7859 67.655 38.0146 67.4511 38.2688C67.2728 38.472 67.0944 38.7008 66.916 38.9041C66.5083 39.3869 66.1006 39.8697 65.6929 40.3779C65.4381 40.7083 65.1578 41.0132 64.9029 41.3436C64.6991 41.6231 64.4952 41.9027 64.2914 42.1822C64.0111 42.5634 63.7053 42.9699 63.425 43.3511C63.2211 43.6307 63.0173 43.8848 62.8389 44.1643C62.5076 44.6217 62.2018 45.1045 61.896 45.5874C61.6922 45.8923 61.4883 46.1718 61.2845 46.4768C61.208 46.6038 61.1061 46.7309 61.0297 46.858C60.469 47.722 59.9339 48.6114 59.4243 49.5008C59.3988 49.5516 59.3478 49.6279 59.3224 49.6787C59.2204 49.8566 59.1185 50.0344 59.0166 50.2123C58.6598 50.8476 58.3031 51.4829 57.9463 52.1182C57.7934 52.4232 57.6405 52.7281 57.4876 53.0076C57.3347 53.3126 57.1819 53.6175 57.0035 53.9479C56.8761 54.2274 56.7232 54.4815 56.5958 54.7611C56.239 55.498 55.9078 56.2095 55.602 56.9465C55.551 57.0735 55.4746 57.226 55.4236 57.3531C55.4236 57.3785 55.3981 57.4293 55.3726 57.4547C54.9649 58.3695 54.5827 59.3098 54.2259 60.25C54.1495 60.4279 54.0985 60.6058 54.0476 60.7583C53.9201 61.0886 53.7927 61.4444 53.6908 61.7747C53.5124 62.2321 53.3341 62.715 53.1812 63.1724C53.0538 63.5281 52.9518 63.9093 52.8499 64.2651C52.7225 64.6971 52.5696 65.1291 52.4677 65.5611C52.3912 65.8152 52.2893 66.0947 52.2128 66.3489C52.0854 66.8317 51.9835 67.2891 51.8561 67.7719C51.7287 68.3056 51.5758 68.8392 51.4739 69.3729C51.4229 69.5508 51.3719 69.7541 51.3465 69.9319C51.27 70.3131 51.219 70.6943 51.1426 71.0755C50.9897 71.9141 50.8368 72.7272 50.7094 73.5658C50.6839 73.7945 50.633 74.0232 50.582 74.252C50.5055 74.7602 50.4801 75.2938 50.4291 75.8021C50.4036 76.1578 50.3527 76.539 50.3272 76.8948C50.2507 78.0383 50.1743 79.2073 50.1998 80.3254C50.2252 90.1344 53.6908 97.021 59.2969 100.274L72.0634 107.669C66.4573 104.416 62.9918 97.5292 62.9663 87.7202C62.9663 86.5767 63.0173 85.4332 63.0937 84.2896C63.1192 83.9339 63.1701 83.5527 63.1956 83.1969C63.2721 82.46 63.3485 81.6976 63.4759 80.9607C63.6033 80.1475 63.7562 79.3089 63.9091 78.4703C64.0111 77.9113 64.113 77.3522 64.2404 76.7677C64.3678 76.2341 64.4952 75.7004 64.6226 75.1668C64.801 74.4298 65.0049 73.6929 65.2087 72.9559C65.3361 72.5239 65.4635 72.0919 65.591 71.6599C65.8458 70.8214 66.1261 70.0082 66.4319 69.1696C66.5593 68.8392 66.6612 68.4835 66.7886 68.1531C67.2218 67.0096 67.6805 65.866 68.1646 64.7479C68.2156 64.6209 68.2921 64.4938 68.343 64.3667C68.8017 63.3503 69.2604 62.3592 69.77 61.3427C69.9229 61.0378 70.0758 60.7074 70.2542 60.4025C70.7383 59.4622 71.248 58.522 71.7576 57.6072C71.8595 57.4293 71.9615 57.226 72.0634 57.0481C72.7005 55.9808 73.3375 54.9135 74.0255 53.8716C74.2294 53.5667 74.4332 53.2618 74.6371 52.9568C75.1467 52.1945 75.6564 51.4575 76.1915 50.746C76.4718 50.3648 76.7776 49.9582 77.0579 49.577C77.5166 48.9671 78.0007 48.3827 78.4594 47.7728C78.8671 47.2646 79.2494 46.7817 79.6826 46.2989C80.0648 45.8415 80.4725 45.4095 80.8802 44.9521C81.5682 44.1897 82.2562 43.4528 82.9697 42.7412C83.4029 42.3092 83.8361 41.8518 84.2948 41.4198C84.6516 41.0895 84.9828 40.7591 85.3396 40.4288C85.9257 39.8951 86.5118 39.3869 87.0978 38.9041C87.4546 38.5991 87.8113 38.3196 88.1681 38.0146C88.8051 37.5064 89.4677 37.0236 90.1302 36.5407C90.436 36.312 90.7673 36.0833 91.0731 35.8546C92.0414 35.1939 93.0352 34.5586 94.0545 33.9741C95.0228 33.4151 95.9656 32.9323 96.9085 32.5003C97.1633 32.3732 97.3926 32.2716 97.6474 32.1699C98.5648 31.7633 99.4567 31.4075 100.349 31.1026L100.298 31.128Z" fill="url(#paint8_linear_2506_21986)"/>
<path d="M94.0035 34.025C111.229 24.1144 125.219 32.0683 125.296 51.8133C125.346 71.5584 111.433 95.598 94.2074 105.509C76.9815 115.419 62.9918 107.491 62.9153 87.7203C62.8644 68.0007 76.7776 43.9357 94.0035 34.025Z" fill="url(#paint9_linear_2506_21986)"/>
<path d="M94.029 41.1144C107.815 33.1605 119.052 39.5389 119.103 55.3705C119.154 71.2021 107.993 90.4389 94.2074 98.3928C80.4215 106.347 69.1839 99.9683 69.133 84.1367C69.082 68.3305 80.2432 49.0683 94.029 41.1144Z" fill="url(#paint10_linear_2506_21986)"/>
<path d="M110.354 79.2295C119.362 63.77 119.385 47.019 110.405 41.8152C101.424 36.6114 86.8421 44.9254 77.834 60.3849C68.8259 75.8445 68.8033 92.5955 77.7834 97.7992C86.7636 103.003 101.346 94.6891 110.354 79.2295Z" fill="#0C0C4F"/>
<path fill-rule="evenodd" clip-rule="evenodd" d="M74.5097 80.2484C72.0889 93.7421 78.7397 100.044 89.3912 94.3266C100.043 88.6089 110.643 73.0569 113.064 59.5632C115.485 46.0695 108.834 39.7673 98.1826 45.485C87.531 51.2027 76.9305 66.7547 74.5097 80.2484Z" fill="#0C0C4F"/>
<path fill-rule="evenodd" clip-rule="evenodd" d="M86.3079 68.7117L87.1233 66.6025C87.2762 66.1705 87.582 65.7385 87.8878 65.4844L89.4677 64.1122C89.697 63.9343 89.748 63.5531 89.5696 63.5785L88.2191 63.7564C87.9388 63.7818 87.7604 63.6293 87.7349 63.299L87.6075 61.6726C87.6075 61.4439 87.3017 61.5964 87.1998 61.9013L86.3844 64.0105C86.2315 64.4425 85.9257 64.8491 85.6199 65.1286L84.04 66.5009C83.8107 66.6788 83.7597 67.0599 83.9381 67.0345L85.2886 66.8566C85.5689 66.8312 85.7473 66.9837 85.7728 67.3141L85.9002 68.9404C85.9002 69.1691 86.206 69.0166 86.3079 68.7117Z" fill="#FAFAFA"/>
<path fill-rule="evenodd" clip-rule="evenodd" d="M109.853 55.1155C109.395 54.5819 108.528 54.6073 107.636 54.8868C106.745 55.1918 105.751 55.7254 104.808 56.437C102.871 57.8346 101.011 59.7151 99.3293 61.6972C98.4629 62.6883 97.6729 63.7302 96.883 64.7975C96.5007 65.3311 96.1185 65.8648 95.7618 66.3984L94.717 67.9231C93.5703 69.6257 92.4746 71.2267 91.4298 72.6243C90.385 74.022 89.4422 75.1401 88.5503 76.0549C87.6584 76.9697 86.7411 77.7321 85.5944 78.3674C84.4732 79.0281 83.1991 79.4601 81.8485 79.8159C80.498 80.1462 79.1219 80.3495 77.5421 80.7307C77.7459 82.4587 78.3065 83.8055 79.1474 84.8728C79.9883 85.8893 81.1605 86.6009 82.8168 86.6009C84.4477 86.6263 86.6392 85.7623 88.8561 84.0851C91.073 82.4333 93.1626 80.1716 94.9208 77.9354C96.7046 75.6737 98.208 73.3613 99.5586 71.0742C99.9408 70.4389 100.119 70.1085 100.4 69.6257L101.164 68.2535C101.674 67.3895 102.183 66.4238 102.693 65.5598C103.712 63.781 104.706 62.0022 105.827 60.2742C106.388 59.3847 106.974 58.5461 107.611 57.6567C107.942 57.2247 108.273 56.7927 108.656 56.3607C109.038 55.9033 109.42 55.4967 109.904 55.1155H109.853Z" fill="url(#paint11_linear_2506_21986)"/>
<path fill-rule="evenodd" clip-rule="evenodd" d="M109.853 55.1161C109.573 53.3626 108.681 52.2699 107.28 51.8379C105.878 51.4313 103.763 51.965 101.419 53.7438C100.272 54.6078 99.0999 55.7005 98.0297 56.8949C96.9594 58.0892 95.9911 59.3598 95.0992 60.6558C94.666 61.2911 94.2328 61.9518 93.8251 62.5871L92.7294 64.4168L91.0221 67.3137C88.8561 71.0239 86.4608 75.3185 83.352 77.8597C80.2941 80.3754 79.1984 80.1976 77.4911 80.782C77.6185 81.6715 77.8478 82.4846 78.2046 83.0945C78.5613 83.7298 79.0455 84.2635 79.6826 84.5684C80.0138 84.7209 80.3706 84.8479 80.7783 84.8988C81.186 84.9496 81.6447 84.9242 82.1288 84.8225C83.1226 84.6192 84.2693 84.111 85.467 83.2978C86.6392 82.4846 87.8368 81.4427 88.9071 80.2992C89.9773 79.1811 90.9456 77.9867 91.8375 76.7924C93.6213 74.4291 95.0992 72.0658 96.3988 69.7787C97.0613 68.6352 97.6729 67.4916 98.2335 66.3735L98.9215 65.0521C99.1254 64.6709 99.3293 64.2643 99.5331 63.8831C100.374 62.3838 101.138 61.1133 102.005 60.0205C102.871 58.9024 103.967 57.8351 105.343 56.9965C106.719 56.1579 108.223 55.5481 109.828 55.1161H109.853Z" fill="#FAFAFA"/>
<path fill-rule="evenodd" clip-rule="evenodd" d="M99.4567 76.3866C99.1764 77.9114 99.9408 78.6483 101.164 77.9876C102.387 77.3269 103.585 75.5735 103.865 74.0233C104.145 72.4732 103.381 71.7617 102.183 72.4224C100.986 73.0831 99.7625 74.8365 99.4822 76.3866H99.4567Z" fill="url(#paint12_linear_2506_21986)"/>
<path d="M125.623 85.186C145.643 51.828 146.16 15.4085 126.778 3.84075C107.396 -7.72702 75.4549 9.93742 55.4354 43.2954C35.4159 76.6533 34.8989 113.073 54.2807 124.641C73.6625 136.208 105.603 118.544 125.623 85.186Z" stroke="url(#paint13_linear_2506_21986)" stroke-miterlimit="10"/>
<path d="M126.798 124.677C146.18 113.109 145.663 76.6895 125.643 43.3316C105.624 9.97361 73.6826 -7.69083 54.3009 3.87695C34.9191 15.4447 35.4361 51.8642 55.4556 85.2222C75.4751 118.58 107.416 136.245 126.798 124.677Z" stroke="url(#paint14_linear_2506_21986)" stroke-miterlimit="10"/>
<path d="M49.4353 24.0894C18.7039 32.7295 12.1805 57.7347 34.885 79.8939C57.5896 102.104 100.909 113.056 131.641 104.416C162.372 95.7763 168.921 70.7964 146.191 48.6119C123.486 26.4273 80.1667 15.4494 49.4353 24.0894Z" stroke="url(#paint15_linear_2506_21986)" stroke-miterlimit="10"/>
<defs>
<linearGradient id="paint0_linear_2506_21986" x1="84.1419" y1="203.282" x2="142.267" y2="203.282" gradientUnits="userSpaceOnUse">
<stop stop-color="#9069F0"/>
<stop offset="1" stop-color="#DFFCF1"/>
</linearGradient>
<linearGradient id="paint1_linear_2506_21986" x1="84.677" y1="203.129" x2="26.3995" y2="203.129" gradientUnits="userSpaceOnUse">
<stop stop-color="#9069F0"/>
<stop offset="1" stop-color="#3B1698"/>
</linearGradient>
<linearGradient id="paint2_linear_2506_21986" x1="222" y1="183.982" x2="26.9091" y2="183.982" gradientUnits="userSpaceOnUse">
<stop stop-color="#9609F0"/>
<stop offset="1" stop-color="#3B1698"/>
</linearGradient>
<linearGradient id="paint3_linear_2506_21986" x1="116.708" y1="176.511" x2="52.1873" y2="176.511" gradientUnits="userSpaceOnUse">
<stop stop-color="#9069F0"/>
<stop offset="1" stop-color="#3B1698"/>
</linearGradient>
<linearGradient id="paint4_linear_2506_21986" x1="89.4656" y1="193.601" x2="70.4776" y2="21.7157" gradientUnits="userSpaceOnUse">
<stop stop-color="#3B1698"/>
<stop offset="0.06" stop-color="#3B1698"/>
<stop offset="0.16" stop-color="#3B1698"/>
<stop offset="0.29" stop-color="#3B1698"/>
<stop offset="0.44" stop-color="#6F79BF"/>
<stop offset="0.57" stop-color="#6742BD"/>
<stop offset="0.87" stop-color="#9069F0"/>
<stop offset="0.99" stop-color="#9069F0"/>
</linearGradient>
<linearGradient id="paint5_linear_2506_21986" x1="117.657" y1="168.375" x2="22.4952" y2="120.048" gradientUnits="userSpaceOnUse">
<stop stop-color="#3B1698"/>
<stop offset="0.06" stop-color="#3B1698"/>
<stop offset="0.16" stop-color="#3B1698"/>
<stop offset="0.29" stop-color="#78B2C1"/>
<stop offset="0.44" stop-color="#6F79BF"/>
<stop offset="0.57" stop-color="#9069F0"/>
<stop offset="0.87" stop-color="#9069F0"/>
<stop offset="0.99" stop-color="#9069F0"/>
</linearGradient>
<linearGradient id="paint6_linear_2506_21986" x1="84.7268" y1="169.211" x2="85.4114" y2="-92.9879" gradientUnits="userSpaceOnUse">
<stop offset="0.04" stop-color="#3B1698" stop-opacity="0.6"/>
<stop offset="0.09" stop-color="#3B1698" stop-opacity="0.41"/>
<stop offset="0.16" stop-color="#3B1698" stop-opacity="0.19"/>
<stop offset="0.21" stop-color="#3B1698" stop-opacity="0.05"/>
<stop offset="0.23" stop-color="#3B1698" stop-opacity="0"/>
</linearGradient>
<linearGradient id="paint7_linear_2506_21986" x1="84.7379" y1="164.967" x2="85.7595" y2="-226.323" gradientUnits="userSpaceOnUse">
<stop stop-color="#3B1698"/>
<stop offset="0.05" stop-color="#3B1698" stop-opacity="0.58"/>
<stop offset="0.1" stop-color="#3B1698" stop-opacity="0.27"/>
<stop offset="0.13" stop-color="#3B1698" stop-opacity="0.07"/>
<stop offset="0.14" stop-color="#3B1698" stop-opacity="0"/>
</linearGradient>
<linearGradient id="paint8_linear_2506_21986" x1="50.1948" y1="64.9964" x2="116.224" y2="64.9964" gradientUnits="userSpaceOnUse">
<stop stop-color="#9069F0"/>
<stop offset="1" stop-color="#DFFCF1"/>
</linearGradient>
<linearGradient id="paint9_linear_2506_21986" x1="125.296" y1="69.7691" x2="62.9152" y2="69.7691" gradientUnits="userSpaceOnUse">
<stop stop-color="#9069F0"/>
<stop offset="1" stop-color="#3B1698"/>
</linearGradient>
<linearGradient id="paint10_linear_2506_21986" x1="53.5634" y1="100.146" x2="170.929" y2="11.6558" gradientUnits="userSpaceOnUse">
<stop stop-color="#3B1698"/>
<stop offset="0.06" stop-color="#3B1698"/>
<stop offset="0.16" stop-color="#3B1698"/>
<stop offset="0.29" stop-color="#78B2C1"/>
<stop offset="0.44" stop-color="#6F79BF"/>
<stop offset="0.57" stop-color="#9069F0"/>
<stop offset="0.87" stop-color="#9069F0"/>
<stop offset="0.99" stop-color="#9069F0"/>
</linearGradient>
<linearGradient id="paint11_linear_2506_21986" x1="-293.053" y1="272.09" x2="-309.807" y2="301.598" gradientUnits="userSpaceOnUse">
<stop stop-color="#EC796B"/>
<stop offset="1" stop-color="#E175B1"/>
</linearGradient>
<linearGradient id="paint12_linear_2506_21986" x1="-288.128" y1="286.347" x2="-292.221" y2="289.243" gradientUnits="userSpaceOnUse">
<stop stop-color="#EC796B"/>
<stop offset="1" stop-color="#E175B1"/>
</linearGradient>
<linearGradient id="paint13_linear_2506_21986" x1="54.2807" y1="124.641" x2="126.483" y2="3.66511" gradientUnits="userSpaceOnUse">
<stop stop-color="#9069F0"/>
<stop offset="1" stop-color="#DFFCF1"/>
</linearGradient>
<linearGradient id="paint14_linear_2506_21986" x1="55.4556" y1="85.2222" x2="125.541" y2="43.1611" gradientUnits="userSpaceOnUse">
<stop stop-color="#9069F0"/>
<stop offset="1" stop-color="#DFFCF1"/>
</linearGradient>
<linearGradient id="paint15_linear_2506_21986" x1="21.3473" y1="64.2545" x2="159.74" y2="64.2545" gradientUnits="userSpaceOnUse">
<stop stop-color="#9069F0"/>
<stop offset="1" stop-color="#DFFCF1"/>
</linearGradient>
</defs>
</svg>
