<svg width="170" height="224" viewBox="0 0 170 224" fill="none" xmlns="http://www.w3.org/2000/svg">
<path d="M0.66394 174.66L84.8827 223.543L168.872 175.094L84.3975 129.834L0.66394 174.66Z" stroke="#6F4FF2" stroke-miterlimit="10"/>
<path d="M142.569 170.604L142.033 178.257L84.3209 211.552L84.8572 203.898L142.569 170.604Z" fill="url(#paint0_linear_2506_22024)"/>
<path d="M84.8572 203.899L84.3209 211.553L26.4556 177.953L26.9664 170.299L84.8572 203.899Z" fill="url(#paint1_linear_2506_22024)"/>
<path d="M26.9664 170.298L84.8572 203.899L142.569 170.604L84.5252 139.479L26.9664 170.298Z" fill="url(#paint2_linear_2506_22024)"/>
<path d="M126.456 140.445L126.098 169.632L84.2954 193.895L84.6785 164.708L126.456 140.445Z" fill="url(#paint3_linear_2506_22024)"/>
<path d="M84.6784 164.708L84.2954 193.895L42.2626 169.632L42.6201 140.471L84.6784 164.708Z" fill="url(#paint4_linear_2506_22024)"/>
<path d="M67.6457 162.107V163.612C67.6457 163.995 67.2116 164.224 66.8796 164.046L45.9654 151.8C45.8122 151.697 45.71 151.544 45.71 151.366V149.861C45.71 149.478 46.1441 149.248 46.4761 149.427L67.3903 161.673C67.5436 161.775 67.6457 161.928 67.6457 162.107Z" fill="url(#paint5_linear_2506_22024)"/>
<path d="M67.6457 167.515V169.02C67.6457 169.403 67.2116 169.633 66.8796 169.454L45.9654 157.208C45.8122 157.106 45.71 156.953 45.71 156.774V155.269C45.71 154.886 46.1441 154.656 46.4761 154.835L67.3903 167.081C67.5436 167.183 67.6457 167.336 67.6457 167.515Z" fill="url(#paint6_linear_2506_22024)"/>
<path d="M67.6457 172.925V174.43C67.6457 174.813 67.2116 175.043 66.8796 174.864L45.9654 162.618C45.8122 162.516 45.71 162.363 45.71 162.184V160.679C45.71 160.296 46.1441 160.067 46.4761 160.245L67.3903 172.491C67.5436 172.593 67.6457 172.747 67.6457 172.925Z" fill="url(#paint7_linear_2506_22024)"/>
<path d="M42.6201 140.471L84.6784 164.708L126.456 140.446L84.2954 117.994L42.6201 140.471Z" fill="url(#paint8_linear_2506_22024)"/>
<path d="M126.405 105.289L126.047 134.476L84.2443 158.739L84.6273 129.552L126.405 105.289Z" fill="url(#paint9_linear_2506_22024)"/>
<path d="M84.6273 129.552L84.2443 158.739L42.186 134.476L42.569 105.314L84.6273 129.552Z" fill="url(#paint10_linear_2506_22024)"/>
<path d="M67.5946 126.951V128.456C67.5946 128.838 67.1605 129.068 66.8285 128.889L45.9143 116.643C45.7611 116.541 45.6589 116.388 45.6589 116.21V114.704C45.6589 114.322 46.0931 114.092 46.425 114.271L67.3393 126.517C67.4925 126.619 67.5946 126.772 67.5946 126.951Z" fill="url(#paint11_linear_2506_22024)"/>
<path d="M67.5946 132.359V133.864C67.5946 134.247 67.1605 134.476 66.8285 134.298L45.9143 122.051C45.7611 121.949 45.6589 121.796 45.6589 121.618V120.112C45.6589 119.73 46.0931 119.5 46.425 119.679L67.3393 131.925C67.4925 132.027 67.5946 132.18 67.5946 132.359Z" fill="url(#paint12_linear_2506_22024)"/>
<path d="M67.5946 137.769V139.274C67.5946 139.657 67.1605 139.886 66.8285 139.708L45.9143 127.462C45.7611 127.36 45.6589 127.207 45.6589 127.028V125.523C45.6589 125.14 46.0931 124.91 46.425 125.089L67.3393 137.335C67.4925 137.437 67.5946 137.59 67.5946 137.769Z" fill="url(#paint13_linear_2506_22024)"/>
<path d="M42.569 105.315L84.6273 129.552L126.405 105.289L84.2443 82.8633L42.569 105.315Z" fill="url(#paint14_linear_2506_22024)"/>
<path d="M120.455 118.173C121.17 117.765 121.757 118.096 121.757 118.913C121.757 119.729 121.17 120.75 120.455 121.158C119.74 121.566 119.152 121.234 119.152 120.418C119.152 119.601 119.74 118.581 120.455 118.173Z" fill="url(#paint15_linear_2506_22024)"/>
<path d="M120.455 123.632C121.17 123.224 121.757 123.555 121.757 124.372C121.757 125.188 121.17 126.209 120.455 126.617C119.74 127.025 119.152 126.693 119.152 125.877C119.152 125.06 119.74 124.04 120.455 123.632Z" fill="url(#paint16_linear_2506_22024)"/>
<path d="M120.455 129.067C121.17 128.659 121.757 128.991 121.757 129.807C121.757 130.624 121.17 131.644 120.455 132.052C119.74 132.46 119.152 132.129 119.152 131.312C119.152 130.496 119.74 129.475 120.455 129.067Z" fill="url(#paint17_linear_2506_22024)"/>
<path d="M115.016 121.159C115.731 120.751 116.318 121.083 116.318 121.899C116.318 122.715 115.731 123.736 115.016 124.144C114.301 124.552 113.713 124.221 113.713 123.404C113.713 122.588 114.301 121.567 115.016 121.159Z" fill="url(#paint18_linear_2506_22024)"/>
<path d="M115.016 126.618C115.731 126.21 116.318 126.542 116.318 127.358C116.318 128.174 115.731 129.195 115.016 129.603C114.301 130.011 113.713 129.68 113.713 128.863C113.713 128.047 114.301 127.026 115.016 126.618Z" fill="url(#paint19_linear_2506_22024)"/>
<path d="M115.016 132.054C115.731 131.645 116.318 131.977 116.318 132.793C116.318 133.61 115.731 134.63 115.016 135.039C114.301 135.447 113.713 135.115 113.713 134.299C113.713 133.482 114.301 132.462 115.016 132.054Z" fill="url(#paint20_linear_2506_22024)"/>
<path d="M109.551 124.143C110.266 123.735 110.853 124.067 110.853 124.883C110.853 125.7 110.266 126.72 109.551 127.128C108.836 127.537 108.248 127.205 108.248 126.389C108.248 125.572 108.836 124.552 109.551 124.143Z" fill="url(#paint21_linear_2506_22024)"/>
<path d="M109.551 129.602C110.266 129.194 110.853 129.526 110.853 130.342C110.853 131.159 110.266 132.179 109.551 132.587C108.836 132.996 108.248 132.664 108.248 131.848C108.248 131.031 108.836 130.011 109.551 129.602Z" fill="url(#paint22_linear_2506_22024)"/>
<path d="M109.551 135.038C110.266 134.63 110.853 134.961 110.853 135.778C110.853 136.594 110.266 137.615 109.551 138.023C108.836 138.431 108.248 138.1 108.248 137.283C108.248 136.467 108.836 135.446 109.551 135.038Z" fill="url(#paint23_linear_2506_22024)"/>
<g clip-path="url(#clip0_2506_22024)">
<path d="M76.024 98.9606C88.6889 100.983 101.463 87.33 104.555 68.4664C107.647 49.6029 99.8864 32.6717 87.2214 30.6496C74.5564 28.6275 61.7828 42.2802 58.6907 61.1438C55.5986 80.0074 63.359 96.9385 76.024 98.9606Z" fill="url(#paint24_linear_2506_22024)"/>
<path d="M79.8781 99.6716C92.5431 101.694 105.317 88.041 108.409 69.1774C111.501 50.3138 103.741 33.3826 91.0756 31.3605C78.4106 29.3384 65.637 42.9912 62.5449 61.8547C59.4528 80.7183 67.2132 97.6495 79.8781 99.6716Z" fill="url(#paint25_linear_2506_22024)"/>
<path d="M80.7263 94.4978C91.4759 96.2141 102.317 84.6301 104.941 68.6242C107.564 52.6183 100.977 38.2516 90.2275 36.5353C79.4779 34.819 68.6368 46.4031 66.0131 62.409C63.3894 78.4149 69.9768 92.7816 80.7263 94.4978Z" fill="url(#paint26_linear_2506_22024)"/>
<path d="M80.7263 94.4978C91.4759 96.2141 102.317 84.6301 104.941 68.6242C107.564 52.6183 100.977 38.2516 90.2275 36.5353C79.4779 34.819 68.6368 46.4031 66.0131 62.409C63.3894 78.4149 69.9768 92.7816 80.7263 94.4978Z" stroke="#111119" stroke-linecap="round" stroke-linejoin="round"/>
<path d="M103.733 63.628C102.948 79.6969 93.3741 93.5313 82.3306 94.5242C81.9718 94.555 81.6223 94.5737 81.273 94.5771C82.1787 94.6819 83.1037 94.7013 84.0453 94.6139C95.0796 93.6178 104.663 79.7866 105.447 63.7177C106.211 48.168 98.4476 36.2189 87.9405 36.3727C97.5572 37.4739 104.45 48.9366 103.733 63.628Z" fill="#111119" stroke="#111119" stroke-linecap="round" stroke-linejoin="round"/>
<path d="M87.052 42.8984L88.2321 43.6592L86.8334 47.3424C88.9416 47.3007 90.4854 48.1499 91.4522 49.896C92.419 51.642 92.8533 54.4229 92.7458 58.2506L89.1607 60.4716L87.9806 59.7108C88.038 58.156 88.0061 56.903 87.885 55.9671C87.7669 55.022 87.5569 54.3573 87.261 53.9701C86.9622 53.5766 86.5873 53.4026 86.1364 53.448C85.5599 53.5016 85.1733 53.8194 84.9706 54.4045C84.768 54.9896 84.6509 55.5937 84.6223 56.2229C84.5503 57.7165 84.7323 58.9645 85.1623 59.9548C85.5923 60.945 86.2063 61.9215 87.0011 62.8932L89.0588 65.436C89.6386 66.186 90.1567 66.9662 90.6194 67.7733C91.0821 68.5805 91.439 69.5305 91.6932 70.6294C91.9443 71.7222 92.0366 73.052 91.9639 74.6067C91.8246 77.4472 91.1555 79.7337 89.9566 81.4507C88.7577 83.1678 87.2109 84.2191 85.3041 84.5954L84.7066 89.7637L83.5265 89.0029L83.7334 84.7849C82.5445 84.8032 81.6074 84.4934 80.9222 83.8556C80.237 83.2178 79.7377 82.3981 79.4304 81.3935C79.1169 80.392 78.9299 79.3211 78.8477 78.1838C78.7717 77.0435 78.747 75.977 78.7704 74.9933L83.5917 73.7107C83.5862 73.9337 84.7719 74.4715 84.7719 74.4715C84.7719 74.4715 83.5671 75.8952 83.5937 76.5279C83.6275 77.3317 83.7401 77.9376 83.9346 78.3516C84.1352 78.7626 84.4642 78.9362 84.9399 78.8635C85.452 78.8186 85.8512 78.4642 86.1312 77.8186C86.4081 77.1669 86.5624 76.5295 86.5909 75.9003C86.6592 74.4617 86.4637 73.3266 86.0013 72.4888C85.539 71.6511 85.03 70.8741 84.4745 70.1426L82.5047 67.686C81.8527 66.8193 81.2535 65.8888 80.7225 64.8947C80.1914 63.9006 79.7783 62.773 79.4861 61.518C79.2 60.2599 79.097 58.7986 79.1772 57.1187C79.2564 55.5305 79.5518 54.0569 80.0665 52.7043C80.5843 51.3425 81.2863 50.2174 82.1665 49.3167C83.0468 48.4161 84.0797 47.8283 85.2594 47.541L85.4786 43.0512L87.0488 42.9075L87.052 42.8984Z" fill="#111119" stroke="#111119" stroke-linecap="round" stroke-linejoin="round"/>
<path d="M88.2383 43.6562L88.0196 48.1002C90.1279 48.0585 91.6716 48.9077 92.6384 50.6538C93.6053 52.3999 94.0396 55.1807 93.9321 59.0084L89.1669 60.4686C89.2242 58.9138 89.1924 57.6608 89.0712 56.7249C88.9532 55.7798 88.7432 55.1152 88.4473 54.7279C88.1485 54.3344 87.7736 54.1604 87.3227 54.2058C86.7461 54.2594 86.3596 54.5772 86.1569 55.1623C85.9542 55.7474 85.8371 56.3515 85.8086 56.9807C85.7366 58.4743 85.9186 59.7223 86.3486 60.7126C86.7786 61.7028 87.3926 62.6793 88.1874 63.651L90.2451 66.1938C90.8248 66.9439 91.343 67.724 91.8057 68.5312C92.2684 69.3383 92.6253 70.2883 92.8795 71.3872C93.1306 72.48 93.2228 73.8098 93.1502 75.3645C93.0109 78.205 92.3417 80.4915 91.1428 82.2085C89.944 83.9256 88.3972 84.9769 86.4904 85.3532L86.283 89.6171L84.7128 89.7607L84.9197 85.5427C83.7307 85.561 82.7937 85.2512 82.1085 84.6134C81.4233 83.9756 80.924 83.1559 80.6167 82.1513C80.3032 81.1498 80.1161 80.0789 80.034 78.9416C79.958 77.8013 79.9333 76.7348 79.9566 75.7511L84.778 74.4685C84.7475 75.5468 84.7461 76.4818 84.7799 77.2857C84.8138 78.0895 84.9264 78.6954 85.1209 79.1094C85.3215 79.5204 85.6504 79.694 86.1261 79.6213C86.6383 79.5764 87.0375 79.222 87.3174 78.5764C87.5944 77.9247 87.7486 77.2873 87.7772 76.6581C87.8455 75.2195 87.65 74.0844 87.1876 73.2466C86.7252 72.4089 86.2162 71.6319 85.6608 70.9004L83.691 68.4438C83.039 67.5771 82.4398 66.6466 81.9087 65.6525C81.3777 64.6584 80.9645 63.5308 80.6723 62.2758C80.3863 61.0177 80.2833 59.5564 80.3635 57.8765C80.4427 56.2883 80.7381 54.8147 81.2527 53.4621C81.7705 52.1003 82.4726 50.9752 83.3528 50.0746C84.2331 49.1739 85.266 48.5861 86.4457 48.2989L86.6649 43.809L88.2351 43.6653L88.2383 43.6562Z" fill="url(#paint27_linear_2506_22024)"/>
</g>
<path style="mix-blend-mode:screen" d="M83.427 0.0742188L41.6241 24.337V105.315L83.6824 129.552L125.46 105.29V24.337L83.427 0.0742188Z" fill="url(#paint28_linear_2506_22024)"/>
<defs>
<linearGradient id="paint0_linear_2506_22024" x1="84.3209" y1="191.078" x2="142.569" y2="191.078" gradientUnits="userSpaceOnUse">
<stop stop-color="#9069F0"/>
<stop offset="1" stop-color="#DFFCF1"/>
</linearGradient>
<linearGradient id="paint1_linear_2506_22024" x1="84.8572" y1="190.926" x2="26.4556" y2="190.926" gradientUnits="userSpaceOnUse">
<stop stop-color="#9069F0"/>
<stop offset="1" stop-color="#3B1698"/>
</linearGradient>
<linearGradient id="paint2_linear_2506_22024" x1="201.952" y1="171.689" x2="26.9664" y2="171.689" gradientUnits="userSpaceOnUse">
<stop stop-color="#9069F0"/>
<stop offset="1" stop-color="#3B1698"/>
</linearGradient>
<linearGradient id="paint3_linear_2506_22024" x1="84.2954" y1="167.17" x2="126.456" y2="167.17" gradientUnits="userSpaceOnUse">
<stop stop-color="#9069F0"/>
<stop offset="1" stop-color="#DFFCF1"/>
</linearGradient>
<linearGradient id="paint4_linear_2506_22024" x1="84.6784" y1="167.183" x2="42.2626" y2="167.183" gradientUnits="userSpaceOnUse">
<stop stop-color="#9069F0"/>
<stop offset="1" stop-color="#3B1698"/>
</linearGradient>
<linearGradient id="paint5_linear_2506_22024" x1="45.71" y1="156.736" x2="67.6457" y2="156.736" gradientUnits="userSpaceOnUse">
<stop stop-color="#6F4FF2"/>
<stop offset="1" stop-color="#111119"/>
</linearGradient>
<linearGradient id="paint6_linear_2506_22024" x1="45.71" y1="162.144" x2="67.6457" y2="162.144" gradientUnits="userSpaceOnUse">
<stop stop-color="#6F4FF2"/>
<stop offset="1" stop-color="#111119"/>
</linearGradient>
<linearGradient id="paint7_linear_2506_22024" x1="45.71" y1="167.555" x2="67.6457" y2="167.555" gradientUnits="userSpaceOnUse">
<stop stop-color="#6F4FF2"/>
<stop offset="1" stop-color="#111119"/>
</linearGradient>
<linearGradient id="paint8_linear_2506_22024" x1="42.6201" y1="141.351" x2="126.456" y2="141.351" gradientUnits="userSpaceOnUse">
<stop stop-color="#9069F0"/>
<stop offset="1" stop-color="#3B1698"/>
</linearGradient>
<linearGradient id="paint9_linear_2506_22024" x1="84.2443" y1="132.014" x2="126.405" y2="132.014" gradientUnits="userSpaceOnUse">
<stop stop-color="#9069F0"/>
<stop offset="1" stop-color="#DFFCF1"/>
</linearGradient>
<linearGradient id="paint10_linear_2506_22024" x1="84.6273" y1="132.026" x2="42.186" y2="132.026" gradientUnits="userSpaceOnUse">
<stop stop-color="#9069F0"/>
<stop offset="1" stop-color="#3B1698"/>
</linearGradient>
<linearGradient id="paint11_linear_2506_22024" x1="45.6589" y1="121.58" x2="67.5946" y2="121.58" gradientUnits="userSpaceOnUse">
<stop stop-color="#6F4FF2"/>
<stop offset="1" stop-color="#111119"/>
</linearGradient>
<linearGradient id="paint12_linear_2506_22024" x1="45.6589" y1="126.988" x2="67.5946" y2="126.988" gradientUnits="userSpaceOnUse">
<stop stop-color="#6F4FF2"/>
<stop offset="1" stop-color="#111119"/>
</linearGradient>
<linearGradient id="paint13_linear_2506_22024" x1="45.6589" y1="132.398" x2="67.5946" y2="132.398" gradientUnits="userSpaceOnUse">
<stop stop-color="#6F4FF2"/>
<stop offset="1" stop-color="#111119"/>
</linearGradient>
<linearGradient id="paint14_linear_2506_22024" x1="42.569" y1="106.208" x2="126.405" y2="106.208" gradientUnits="userSpaceOnUse">
<stop stop-color="#9069F0"/>
<stop offset="1" stop-color="#3B1698"/>
</linearGradient>
<linearGradient id="paint15_linear_2506_22024" x1="119.152" y1="119.665" x2="121.757" y2="119.665" gradientUnits="userSpaceOnUse">
<stop stop-color="#6F4FF2"/>
<stop offset="1" stop-color="#111119"/>
</linearGradient>
<linearGradient id="paint16_linear_2506_22024" x1="119.152" y1="125.124" x2="121.757" y2="125.124" gradientUnits="userSpaceOnUse">
<stop stop-color="#6F4FF2"/>
<stop offset="1" stop-color="#111119"/>
</linearGradient>
<linearGradient id="paint17_linear_2506_22024" x1="119.152" y1="130.56" x2="121.757" y2="130.56" gradientUnits="userSpaceOnUse">
<stop stop-color="#6F4FF2"/>
<stop offset="1" stop-color="#111119"/>
</linearGradient>
<linearGradient id="paint18_linear_2506_22024" x1="113.713" y1="122.652" x2="116.318" y2="122.652" gradientUnits="userSpaceOnUse">
<stop stop-color="#6F4FF2"/>
<stop offset="1" stop-color="#111119"/>
</linearGradient>
<linearGradient id="paint19_linear_2506_22024" x1="113.713" y1="128.111" x2="116.318" y2="128.111" gradientUnits="userSpaceOnUse">
<stop stop-color="#6F4FF2"/>
<stop offset="1" stop-color="#111119"/>
</linearGradient>
<linearGradient id="paint20_linear_2506_22024" x1="113.713" y1="133.546" x2="116.318" y2="133.546" gradientUnits="userSpaceOnUse">
<stop stop-color="#6F4FF2"/>
<stop offset="1" stop-color="#111119"/>
</linearGradient>
<linearGradient id="paint21_linear_2506_22024" x1="108.248" y1="125.636" x2="110.853" y2="125.636" gradientUnits="userSpaceOnUse">
<stop stop-color="#6F4FF2"/>
<stop offset="1" stop-color="#111119"/>
</linearGradient>
<linearGradient id="paint22_linear_2506_22024" x1="108.248" y1="131.095" x2="110.853" y2="131.095" gradientUnits="userSpaceOnUse">
<stop stop-color="#6F4FF2"/>
<stop offset="1" stop-color="#111119"/>
</linearGradient>
<linearGradient id="paint23_linear_2506_22024" x1="108.248" y1="136.53" x2="110.853" y2="136.53" gradientUnits="userSpaceOnUse">
<stop stop-color="#6F4FF2"/>
<stop offset="1" stop-color="#111119"/>
</linearGradient>
<linearGradient id="paint24_linear_2506_22024" x1="88.939" y1="101.023" x2="114.027" y2="82.5599" gradientUnits="userSpaceOnUse">
<stop stop-color="#9069F0"/>
<stop offset="1" stop-color="#3B1698"/>
</linearGradient>
<linearGradient id="paint25_linear_2506_22024" x1="62.5449" y1="61.8547" x2="108.378" y2="69.3676" gradientUnits="userSpaceOnUse">
<stop stop-color="#9069F0"/>
<stop offset="1" stop-color="#3B1698"/>
</linearGradient>
<linearGradient id="paint26_linear_2506_22024" x1="66.0131" y1="62.409" x2="104.914" y2="68.7856" gradientUnits="userSpaceOnUse">
<stop stop-color="#9069F0"/>
<stop offset="1" stop-color="#DFFCF1"/>
</linearGradient>
<linearGradient id="paint27_linear_2506_22024" x1="94.0767" y1="85.8125" x2="106.159" y2="73.2609" gradientUnits="userSpaceOnUse">
<stop stop-color="#9069F0"/>
<stop offset="1" stop-color="#3B1698"/>
</linearGradient>
<linearGradient id="paint28_linear_2506_22024" x1="83.5547" y1="127.818" x2="83.5547" y2="-256.382" gradientUnits="userSpaceOnUse">
<stop stop-color="#3B1698" stop-opacity="0.6"/>
<stop offset="0.03" stop-color="#3B1698" stop-opacity="0.47"/>
<stop offset="0.06" stop-color="#3B1698" stop-opacity="0.34"/>
<stop offset="0.09" stop-color="#3B1698" stop-opacity="0.24"/>
<stop offset="0.13" stop-color="#3B1698" stop-opacity="0.15"/>
<stop offset="0.18" stop-color="#3B1698" stop-opacity="0.08"/>
<stop offset="0.23" stop-color="#3B1698" stop-opacity="0.03"/>
<stop offset="0.31" stop-color="#3B1698" stop-opacity="0"/>
<stop offset="0.51" stop-color="#3B1698" stop-opacity="0"/>
</linearGradient>
<clipPath id="clip0_2506_22024">
<rect width="65.4964" height="59.039" fill="white" transform="translate(95.704 22.7832) rotate(63.9801)"/>
</clipPath>
</defs>
</svg>
