<svg width="170" height="236" viewBox="0 0 170 236" fill="none" xmlns="http://www.w3.org/2000/svg">
<g clip-path="url(#clip0_2506_22078)">
<path d="M0.662537 186.955L84.7025 235.644L168.513 187.387L84.2184 142.307L0.662537 186.955Z" stroke="#6F4FF2" stroke-miterlimit="10"/>
<path d="M142.267 182.889L141.731 190.512L84.1419 223.675L84.677 216.051L142.267 182.889Z" fill="url(#paint0_linear_2506_22078)"/>
<path d="M84.677 216.051L84.1419 223.675L26.3995 190.208L26.9091 182.584L84.677 216.051Z" fill="url(#paint1_linear_2506_22078)"/>
<path d="M26.9091 182.584L84.677 216.052L142.267 182.889L84.3458 151.912L26.9091 182.584Z" fill="url(#paint2_linear_2506_22078)"/>
<path style="mix-blend-mode:screen" d="M83.7667 45L28.7266 76.9458V183.566L84.1029 215.478L139.109 183.532V76.9458L83.7667 45Z" fill="url(#paint3_linear_2506_22078)"/>
<rect width="103.53" height="108.642" rx="8.52178" transform="matrix(0.866009 -0.500028 -3.18609e-05 1 34.5176 65.7676)" fill="url(#paint4_linear_2506_22078)"/>
<rect width="103.53" height="108.642" rx="8.52178" transform="matrix(0.866009 -0.500028 -3.18609e-05 1 44.8292 69.1602)" fill="url(#paint5_linear_2506_22078)"/>
<rect x="1.47593" y="0.852131" width="37.4919" height="37.4919" rx="18.7459" transform="matrix(0.866009 -0.500028 -3.18631e-05 1 81.1853 64.3591)" stroke="white" stroke-width="3.40871"/>
<g clip-path="url(#clip1_2506_22078)">
<g clip-path="url(#clip2_2506_22078)">
<g clip-path="url(#clip3_2506_22078)">
<path d="M98.7006 90.889C100.64 89.7745 102.562 88.2279 104.355 86.3381C106.147 84.4484 107.776 82.2526 109.148 79.877C110.52 77.5014 111.607 74.9927 112.347 72.4952C113.087 69.9976 113.466 67.5603 113.461 65.3233C113.466 63.0809 113.087 61.0808 112.347 59.4379C111.607 57.795 110.52 56.5416 109.149 55.7498C107.777 54.958 106.148 54.6433 104.356 54.8239C102.563 55.0045 100.641 55.6767 98.7017 56.802C96.7621 57.9164 94.8406 59.463 93.0477 61.3528C91.2548 63.2425 89.6257 65.4383 88.2542 67.814C86.8826 70.1896 85.7955 72.6983 85.0554 75.1958C84.3153 77.6935 83.9367 80.1308 83.9413 82.3677C83.9366 84.6101 84.3151 86.6103 85.0551 88.2531C85.7952 89.8961 86.8821 91.1495 88.2536 91.9413C89.625 92.733 91.254 93.0477 93.0468 92.8671C94.8396 92.6866 96.761 92.0144 98.7006 90.889Z" fill="#2775CA"/>
<path d="M102.761 74.1992C102.761 71.7137 101.469 71.6046 98.886 72.7436C97.041 73.5252 96.6721 73.1697 96.6721 72.1757C96.6721 71.1818 97.2873 70.1843 98.5171 69.4743C99.6241 68.8351 100.239 68.906 100.547 69.7939C100.579 69.8785 100.637 69.934 100.714 69.953C100.791 69.9719 100.883 69.9534 100.977 69.8999L101.961 69.332C102.018 69.3007 102.074 69.2564 102.127 69.2015C102.18 69.1465 102.228 69.0822 102.269 69.0125C102.309 68.9428 102.341 68.869 102.362 68.7956C102.383 68.7224 102.393 68.6511 102.392 68.5862L102.392 68.518C102.273 67.8171 101.937 67.3084 101.436 67.0708C100.936 66.8333 100.299 66.8803 99.6242 67.2044L99.6242 65.5C99.6242 65.2164 99.44 65.1094 99.1324 65.2161L98.2097 65.7489C97.9641 65.8907 97.7793 66.2101 97.7178 66.6008L97.7178 68.2369C95.8728 69.5865 94.7068 71.6798 94.7067 73.4523C94.7067 75.7961 95.9364 76.0092 98.5193 74.873C100.241 74.2338 100.795 74.3404 100.795 75.4762C100.795 76.612 99.9338 77.8909 98.7654 78.5656C97.166 79.489 96.6129 79.0271 96.4281 78.0683C96.3691 77.8187 96.1826 77.784 95.9978 77.8907L94.9475 78.4971C94.8905 78.5286 94.8339 78.5731 94.781 78.6281C94.7282 78.6831 94.6802 78.7474 94.64 78.8171C94.5998 78.8869 94.5681 78.9606 94.5469 79.034C94.5258 79.1072 94.5156 79.1784 94.517 79.2433L94.517 79.3115C94.7632 80.9418 95.7472 81.6546 97.7764 80.8382L97.7764 82.5425C97.7764 82.8261 97.9611 82.9328 98.2682 82.8265L99.1909 82.2936C99.4371 82.1515 99.6213 81.8324 99.6828 81.4418L99.6828 79.7374C101.528 78.317 102.758 76.1149 102.758 74.1978L102.761 74.1992Z" fill="white"/>
<path d="M95.5638 85.8112C90.7669 86.5929 88.3069 81.8348 90.0907 75.3367C91.0135 71.8213 93.0428 68.3774 95.5644 65.8566C95.8106 65.572 95.9334 65.2884 95.9334 64.9332L95.9335 63.9392C95.9335 63.6549 95.8107 63.5124 95.5645 63.5837C95.5055 63.6178 95.3803 63.69 95.3183 63.794C89.4763 69.2976 86.2779 78.3167 88.1226 83.998C88.6586 85.6373 89.5917 86.8702 90.8437 87.5932C92.0957 88.316 93.6299 88.5079 95.3175 88.1526C95.5637 88.1523 95.8099 87.8683 95.8713 87.5486C95.9304 87.4463 95.9304 87.3727 95.9304 87.2302L95.9304 86.2362C95.9328 86.0221 95.7486 85.8469 95.5638 85.8112ZM102.084 59.8905C101.837 59.8909 101.591 60.1748 101.53 60.4945C101.471 60.5968 101.471 60.6704 101.471 60.8129L101.471 61.8069C101.471 62.0912 101.656 62.2681 101.84 62.3042C106.637 61.5224 109.097 66.2806 107.313 72.7786C106.39 76.2941 104.361 79.738 101.839 82.2594C101.593 82.5434 101.47 82.827 101.47 83.1822L101.47 84.1768C101.47 84.4604 101.593 84.6029 101.839 84.5317C101.898 84.4976 102.024 84.425 102.085 84.3214C107.93 78.8161 111.126 69.7986 109.281 64.1174C108.747 62.4681 107.815 61.2241 106.563 60.4891C105.312 59.7541 103.777 59.5493 102.086 59.8919L102.084 59.8905Z" fill="white"/>
</g>
</g>
</g>
<rect x="1.47593" y="0.852131" width="37.4919" height="37.4919" rx="18.7459" transform="matrix(0.866009 -0.500028 -3.18631e-05 1 63.4752 74.5837)" stroke="white" stroke-width="3.40871"/>
<g clip-path="url(#clip4_2506_22078)">
<g clip-path="url(#clip5_2506_22078)">
<g clip-path="url(#clip6_2506_22078)">
<mask id="mask0_2506_22078" style="mask-type:luminance" maskUnits="userSpaceOnUse" x="66" y="58" width="30" height="52">
<path d="M95.7483 58.5063L66.2285 75.5508L66.2274 109.638L95.7472 92.5934L95.7483 58.5063Z" fill="white"/>
</mask>
<g mask="url(#mask0_2506_22078)">
<path d="M66.228 92.5943C66.2277 102.007 72.8355 105.822 80.9871 101.116C89.1388 96.409 95.7474 84.9627 95.7477 75.5498C95.748 66.1369 89.1399 62.3219 80.9882 67.0287C72.8366 71.7353 66.2283 83.1813 66.228 92.5943Z" fill="#0C0C4F"/>
<path fill-rule="evenodd" clip-rule="evenodd" d="M66.228 92.5943C66.2283 83.1813 72.8366 71.7353 80.9882 67.0287C89.1399 62.3219 95.748 66.1368 95.7477 75.5498C95.7474 84.9627 89.1388 96.409 80.9871 101.116C72.8355 105.822 66.2277 102.007 66.228 92.5943ZM80.9881 68.5512C73.5647 72.8374 67.5468 83.2609 67.5465 91.833C67.5462 100.405 73.5637 103.879 80.9871 99.5933C88.4107 95.307 94.429 84.8831 94.4292 76.3111C94.4295 67.739 88.4117 64.2649 80.9881 68.5512Z" fill="url(#paint6_linear_2506_22078)"/>
<path fill-rule="evenodd" clip-rule="evenodd" d="M74.6061 83.8221L74.9633 82.3419C75.0359 82.0408 75.213 81.7369 75.4383 81.5274L76.547 80.4935C76.7004 80.3508 76.7017 80.1001 76.5494 80.131L75.4458 80.3558C75.2218 80.4013 75.0472 80.2976 74.9779 80.0775L74.6374 78.994C74.5906 78.8443 74.374 78.9674 74.3247 79.1721L73.9675 80.6523C73.895 80.9528 73.7178 81.2568 73.4926 81.4668L72.3839 82.5002C72.2304 82.6434 72.2287 82.8939 72.3814 82.8627L73.4851 82.6378C73.7091 82.5924 73.8837 82.6965 73.9529 82.9166L74.2934 83.9998C74.3403 84.1499 74.5568 84.0268 74.6061 83.8221Z" fill="#FAFAFA"/>
<path fill-rule="evenodd" clip-rule="evenodd" d="M92.1297 72.9614C91.6727 72.6351 90.9594 72.7146 90.266 72.9788C89.5669 73.2516 88.8339 73.687 88.1439 74.2269C86.7476 75.3059 85.479 76.7059 84.3726 78.1684C83.798 78.9043 83.308 79.655 82.8004 80.4244C82.5558 80.8065 82.3328 81.1919 82.1005 81.5788L81.466 82.6742C80.7764 83.9047 80.0968 85.0551 79.4392 86.063C78.779 87.0697 78.1617 87.9011 77.5534 88.5841C76.9454 89.2685 76.2949 89.8401 75.4471 90.3611C74.6067 90.8805 73.6124 91.2795 72.5489 91.6045C71.4796 91.934 70.3568 92.1721 69.102 92.5436C69.5398 93.6934 70.199 94.5521 71.0455 95.1964C71.9018 95.8153 72.9711 96.2125 74.3448 96.0866C75.6987 95.9871 77.4002 95.2496 78.991 93.9616C80.5861 92.686 81.986 91.0255 83.1174 89.3865C84.2518 87.7357 85.1696 86.0715 85.9434 84.4455C86.1569 83.9963 86.2699 83.7488 86.4244 83.4049L86.8517 82.4275C87.1486 81.8041 87.4189 81.1335 87.7126 80.516C88.2888 79.2456 88.8568 77.9808 89.5169 76.7366C89.849 76.1071 90.1994 75.4861 90.6129 74.845C90.8191 74.5295 91.042 74.2085 91.2888 73.8929C91.5393 73.5615 91.804 73.2626 92.1297 72.9614Z" fill="url(#paint7_linear_2506_22078)"/>
<path fill-rule="evenodd" clip-rule="evenodd" d="M92.1296 72.9627C91.6387 71.8154 90.7259 71.1381 89.5006 70.9569C88.2829 70.7811 86.5916 71.3091 84.9154 72.6592C84.0875 73.3222 83.2853 74.1414 82.5813 75.0219C81.8805 75.8989 81.2525 76.8298 80.7088 77.7536C80.4374 78.2163 80.1911 78.6776 79.9463 79.1399L79.312 80.4399L78.3322 82.5089C77.0832 85.1641 75.7381 88.2074 73.531 90.1534C71.3641 92.0638 70.4244 92.0225 69.1019 92.5449C69.3437 93.1261 69.6432 93.6533 70.0493 94.0347C70.4477 94.433 70.9184 94.7513 71.5036 94.9194C71.7993 94.9916 72.1115 95.0511 72.4583 95.0543C72.8035 95.0515 73.1757 95.0095 73.5731 94.9102C74.3634 94.704 75.2532 94.278 76.1149 93.6458C76.9768 93.0153 77.8007 92.2243 78.5208 91.3896C79.2463 90.5556 79.8783 89.6854 80.4426 88.8263C81.5644 87.1029 82.437 85.4105 83.174 83.7836C83.5447 82.9688 83.8813 82.1625 84.1925 81.3706L84.5588 80.4303C84.6708 80.1526 84.7841 79.8729 84.899 79.6069C85.3633 78.5367 85.8173 77.6315 86.3687 76.8305C86.9124 76.0213 87.6696 75.2182 88.6814 74.549C89.6889 73.8813 90.8522 73.3685 92.1296 72.9627Z" fill="#FAFAFA"/>
<path fill-rule="evenodd" clip-rule="evenodd" d="M86.68 87.995C86.68 89.046 87.4181 89.4719 88.3281 88.9465C89.2382 88.421 89.9753 87.1432 89.9754 86.0922C89.9754 85.0415 89.2383 84.6147 88.3282 85.1402C87.4183 85.6656 86.68 86.9442 86.68 87.995Z" fill="url(#paint8_linear_2506_22078)"/>
</g>
</g>
</g>
</g>
<path d="M65.4573 127.028L65.4567 146.861L60.7939 149.553L60.7944 134.679L60.6937 134.737L56.9366 139.501L56.9367 134.931L61.1635 129.507L65.4573 127.028ZM76.4637 141.048C74.9038 141.942 73.5564 142.303 72.4215 142.132C71.2866 141.961 70.4117 141.275 69.7967 140.075C69.1818 138.874 68.8771 137.184 68.8828 135.005C68.8885 132.82 69.196 130.79 69.8055 128.914C70.4205 127.035 71.2927 125.373 72.4221 123.927C73.5571 122.477 74.9045 121.302 76.4643 120.402C78.0242 119.501 79.3716 119.123 80.5065 119.269C81.6414 119.407 82.5163 120.061 83.1313 121.23C83.7462 122.398 84.0509 124.072 84.0452 126.251C84.0451 128.439 83.7376 130.489 83.1225 132.4C82.5075 134.311 81.6325 136.007 80.4975 137.489C79.3681 138.961 78.0235 140.147 76.4637 141.048ZM76.4638 136.671C77.2689 136.206 77.9286 135.341 78.443 134.075C78.963 132.8 79.2202 131.122 79.2147 129.04C79.2148 127.677 79.0974 126.632 78.8626 125.902C78.6278 125.173 78.3036 124.721 77.8898 124.546C77.4761 124.366 77.0009 124.43 76.4642 124.74C75.6591 125.205 75.0022 126.056 74.4934 127.292C73.9846 128.528 73.7245 130.17 73.7133 132.216C73.7077 133.607 73.8222 134.684 74.057 135.446C74.2918 136.201 74.6161 136.672 75.0298 136.859C75.4491 137.043 75.9271 136.98 76.4638 136.671ZM93.7143 131.087C92.1544 131.982 90.807 132.343 89.6721 132.172C88.5372 132.001 87.6623 131.315 87.0473 130.114C86.4324 128.914 86.1277 127.224 86.1334 125.045C86.1391 122.86 86.4466 120.829 87.0561 118.954C87.6711 117.075 88.5433 115.413 89.6727 113.966C90.8077 112.517 92.1551 111.342 93.7149 110.441C95.2748 109.541 96.6222 109.163 97.7571 109.308C98.892 109.447 99.7669 110.101 100.382 111.269C100.997 112.438 101.301 114.111 101.296 116.29C101.296 118.479 100.988 120.528 100.373 122.439C99.7581 124.35 98.8831 126.047 97.7481 127.528C96.6187 129 95.2741 130.187 93.7143 131.087ZM93.7144 126.71C94.5195 126.245 95.1792 125.38 95.6936 124.115C96.2136 122.84 96.4708 121.161 96.4653 119.079C96.4654 117.717 96.348 116.671 96.1132 115.942C95.8784 115.212 95.5542 114.76 95.1404 114.586C94.7267 114.405 94.2515 114.47 93.7148 114.78C92.9097 115.245 92.2528 116.095 91.744 117.331C91.2352 118.568 90.9752 120.209 90.9639 122.256C90.9583 123.647 91.0728 124.724 91.3076 125.485C91.5424 126.241 91.8667 126.712 92.2804 126.899C92.6997 127.083 93.1777 127.02 93.7144 126.71ZM113.313 115.51L113.313 114.464C113.313 113.625 113.47 112.76 113.783 111.869C114.102 110.975 114.563 110.137 115.167 109.356C115.771 108.575 116.506 107.934 117.372 107.434C118.261 106.921 119.008 106.703 119.611 106.78C120.221 106.854 120.682 107.156 120.995 107.685C121.308 108.215 121.465 108.906 121.465 109.758L121.465 110.804C121.465 111.643 121.305 112.51 120.987 113.404C120.673 114.295 120.212 115.132 119.603 115.917C118.993 116.701 118.25 117.347 117.372 117.854C116.494 118.36 115.753 118.572 115.15 118.488C114.546 118.404 114.087 118.097 113.774 117.568C113.467 117.035 113.313 116.35 113.313 115.51ZM116.232 112.779L116.232 113.825C116.232 114.193 116.31 114.513 116.466 114.784C116.629 115.045 116.93 115.049 117.372 114.794C117.836 114.526 118.141 114.175 118.286 113.743C118.437 113.307 118.513 112.895 118.513 112.508L118.513 111.462C118.513 111.075 118.443 110.741 118.303 110.46C118.163 110.179 117.853 110.178 117.372 110.455C116.931 110.71 116.629 111.065 116.467 111.52C116.31 111.972 116.232 112.392 116.232 112.779ZM104.323 109.352L104.323 108.306C104.324 107.454 104.483 106.58 104.802 105.686C105.126 104.789 105.59 103.953 106.194 103.178C106.798 102.403 107.527 101.769 108.383 101.275C109.272 100.762 110.018 100.544 110.622 100.621C111.231 100.696 111.692 100.997 112.005 101.527C112.318 102.056 112.475 102.747 112.475 103.599L112.475 104.645C112.475 105.497 112.316 106.367 111.997 107.255C111.684 108.139 111.222 108.967 110.613 109.739C110.004 110.51 109.26 111.149 108.382 111.656C107.504 112.163 106.764 112.378 106.16 112.3C105.556 112.223 105.098 111.923 104.785 111.4C104.477 110.874 104.323 110.191 104.323 109.352ZM107.275 106.601L107.275 107.647C107.275 108.035 107.354 108.357 107.51 108.616C107.667 108.874 107.957 108.88 108.382 108.635C108.846 108.367 109.151 108.017 109.296 107.584C109.447 107.148 109.523 106.737 109.523 106.349L109.523 105.304C109.523 104.916 109.453 104.582 109.313 104.301C109.174 104.02 108.863 104.019 108.382 104.297C107.941 104.552 107.644 104.91 107.494 105.371C107.348 105.823 107.275 106.233 107.275 106.601ZM105.749 123.596L117.557 96.9462L119.939 95.571L108.13 122.221L105.749 123.596Z" fill="black"/>
</g>
<defs>
<linearGradient id="paint0_linear_2506_22078" x1="84.1419" y1="203.282" x2="142.267" y2="203.282" gradientUnits="userSpaceOnUse">
<stop stop-color="#9069F0"/>
<stop offset="1" stop-color="#DFFCF1"/>
</linearGradient>
<linearGradient id="paint1_linear_2506_22078" x1="84.677" y1="203.129" x2="26.3995" y2="203.129" gradientUnits="userSpaceOnUse">
<stop stop-color="#9069F0"/>
<stop offset="1" stop-color="#3B1698"/>
</linearGradient>
<linearGradient id="paint2_linear_2506_22078" x1="85.4529" y1="86.751" x2="81.5432" y2="535.973" gradientUnits="userSpaceOnUse">
<stop stop-color="#3B1698"/>
<stop offset="0.06" stop-color="#3B1698"/>
<stop offset="0.16" stop-color="#3B1698"/>
<stop offset="0.29" stop-color="#3B1698"/>
<stop offset="0.44" stop-color="#6F79BF"/>
<stop offset="0.57" stop-color="#6742BD"/>
<stop offset="0.87" stop-color="#9069F0"/>
<stop offset="0.99" stop-color="#9069F0"/>
</linearGradient>
<linearGradient id="paint3_linear_2506_22078" x1="83.9348" y1="213.194" x2="83.9348" y2="-292.664" gradientUnits="userSpaceOnUse">
<stop stop-color="#3B1698" stop-opacity="0.6"/>
<stop offset="0.03" stop-color="#3B1698" stop-opacity="0.47"/>
<stop offset="0.06" stop-color="#3B1698" stop-opacity="0.34"/>
<stop offset="0.09" stop-color="#3B1698" stop-opacity="0.24"/>
<stop offset="0.13" stop-color="#3B1698" stop-opacity="0.15"/>
<stop offset="0.18" stop-color="#3B1698" stop-opacity="0.08"/>
<stop offset="0.23" stop-color="#3B1698" stop-opacity="0.03"/>
<stop offset="0.31" stop-color="#3B1698" stop-opacity="0"/>
<stop offset="0.51" stop-color="#3B1698" stop-opacity="0"/>
</linearGradient>
<linearGradient id="paint4_linear_2506_22078" x1="1.24603e-06" y1="54.3211" x2="142.759" y2="39.684" gradientUnits="userSpaceOnUse">
<stop stop-color="#9069F0"/>
<stop offset="1" stop-color="#3B1698"/>
</linearGradient>
<linearGradient id="paint5_linear_2506_22078" x1="0" y1="54.3211" x2="103.53" y2="54.3211" gradientUnits="userSpaceOnUse">
<stop stop-color="#9069F0"/>
<stop offset="1" stop-color="#3B1698"/>
</linearGradient>
<linearGradient id="paint6_linear_2506_22078" x1="93.8984" y1="68.4767" x2="64.8687" y2="73.6175" gradientUnits="userSpaceOnUse">
<stop stop-color="#EC796B"/>
<stop offset="1" stop-color="#E175B1"/>
</linearGradient>
<linearGradient id="paint7_linear_2506_22078" x1="92.0067" y1="72.5304" x2="66.5695" y2="89.4778" gradientUnits="userSpaceOnUse">
<stop stop-color="#EC796B"/>
<stop offset="1" stop-color="#E175B1"/>
</linearGradient>
<linearGradient id="paint8_linear_2506_22078" x1="89.9743" y1="84.7579" x2="86.4874" y2="85.0951" gradientUnits="userSpaceOnUse">
<stop stop-color="#EC796B"/>
<stop offset="1" stop-color="#E175B1"/>
</linearGradient>
<clipPath id="clip0_2506_22078">
<rect width="169.15" height="236" fill="white"/>
</clipPath>
<clipPath id="clip1_2506_22078">
<rect width="34.0871" height="34.0871" rx="17.0436" transform="matrix(0.866009 -0.500028 -3.18631e-05 1 83.9397 65.3242)" fill="white"/>
</clipPath>
<clipPath id="clip2_2506_22078">
<rect width="34.0871" height="34.0871" fill="white" transform="matrix(0.866009 -0.500028 -3.18631e-05 1 83.9404 65.3242)"/>
</clipPath>
<clipPath id="clip3_2506_22078">
<rect width="34.0871" height="34.0871" fill="white" transform="matrix(0.866009 -0.500028 -3.18631e-05 1 83.9413 65.3242)"/>
</clipPath>
<clipPath id="clip4_2506_22078">
<rect width="34.0871" height="34.0871" rx="17.0436" transform="matrix(0.866009 -0.500028 -3.18631e-05 1 66.2289 75.5508)" fill="white"/>
</clipPath>
<clipPath id="clip5_2506_22078">
<rect width="34.0871" height="34.0871" fill="white" transform="matrix(0.866009 -0.500028 -3.18631e-05 1 66.2288 75.5508)"/>
</clipPath>
<clipPath id="clip6_2506_22078">
<rect width="34.0871" height="34.0871" fill="white" transform="matrix(0.866009 -0.500028 -3.18631e-05 1 66.2287 75.5508)"/>
</clipPath>
</defs>
</svg>
