<svg width="170" height="236" viewBox="0 0 170 236" fill="none" xmlns="http://www.w3.org/2000/svg">
<g clip-path="url(#clip0_2506_22121)">
<path d="M0.662537 186.955L84.7025 235.644L168.513 187.387L84.2184 142.307L0.662537 186.955Z" stroke="#6F4FF2" stroke-miterlimit="10"/>
<path d="M142.267 182.889L141.731 190.512L84.1419 223.675L84.677 216.051L142.267 182.889Z" fill="url(#paint0_linear_2506_22121)"/>
<path d="M84.677 216.051L84.1419 223.675L26.3995 190.208L26.9091 182.584L84.677 216.051Z" fill="url(#paint1_linear_2506_22121)"/>
<path d="M26.9091 182.584L84.677 216.052L142.267 182.889L84.3458 151.912L26.9091 182.584Z" fill="url(#paint2_linear_2506_22121)"/>
<path style="mix-blend-mode:screen" d="M53.0255 178.861C53.0001 179.395 53.0255 179.954 53.0255 180.488C53.0255 180.615 53.051 180.767 53.0765 180.894C53.1275 181.326 53.2039 181.733 53.3058 182.165C53.3313 182.292 53.3568 182.419 53.4078 182.571C53.5607 183.105 53.739 183.639 53.9684 184.172C54.0193 184.274 54.0703 184.376 54.1213 184.477C54.3251 184.909 54.529 185.341 54.7838 185.773C54.8857 185.977 55.0131 186.155 55.1406 186.358C55.3444 186.688 55.5992 187.019 55.8286 187.349C56.0069 187.603 56.2108 187.857 56.4147 188.086C56.7714 188.518 57.1536 188.95 57.5614 189.356C57.5868 189.382 57.6123 189.407 57.6378 189.458C58.122 189.941 58.6571 190.398 59.1922 190.856C59.3451 190.983 59.498 191.11 59.6509 191.237C60.237 191.694 60.874 192.177 61.5366 192.609C62.2246 193.067 62.9636 193.524 63.728 193.931C63.9828 194.058 64.2377 194.185 64.4925 194.337C65.0021 194.617 65.5373 194.871 66.0724 195.125C66.3782 195.277 66.684 195.404 66.9897 195.532C67.4994 195.76 68.0345 195.989 68.5696 196.192C68.9009 196.319 69.2067 196.446 69.5379 196.573C69.9711 196.726 70.4043 196.878 70.8121 197.005C71.5001 197.234 72.2136 197.437 72.9271 197.641C73.3348 197.768 73.768 197.869 74.1757 197.971C74.6344 198.073 75.0676 198.174 75.5262 198.276C76.0614 198.403 76.5965 198.505 77.1571 198.606C77.5138 198.683 77.8451 198.733 78.2019 198.784C78.8389 198.886 79.5014 198.988 80.1385 199.064C80.3933 199.089 80.6736 199.14 80.9284 199.165C81.8203 199.267 82.7377 199.369 83.6296 199.42C83.7824 199.42 83.9353 199.42 84.0882 199.42C84.8527 199.47 85.6171 199.496 86.3816 199.496C86.6364 199.496 86.8913 199.496 87.1461 199.496C87.9615 199.496 88.7769 199.496 89.5669 199.445C89.6688 199.445 89.7707 199.445 89.8727 199.445C90.7645 199.394 91.6564 199.343 92.5483 199.242C92.8031 199.216 93.0834 199.191 93.3382 199.165C93.9753 199.089 94.6123 199.013 95.2239 198.911C95.5552 198.86 95.861 198.81 96.1922 198.759C96.7528 198.657 97.288 198.556 97.8231 198.429C98.2053 198.352 98.613 198.276 98.9953 198.174C99.403 198.073 99.8107 197.946 100.218 197.844C100.804 197.692 101.391 197.514 101.977 197.336C102.512 197.158 103.021 196.98 103.531 196.802C103.786 196.701 104.041 196.624 104.27 196.523C105.06 196.218 105.824 195.887 106.563 195.506C112.781 192.431 116.17 188.111 116.629 183.563L116.833 111.215L53.1784 111.062L53.0001 179.929V178.836L53.0255 178.861Z" fill="url(#paint3_linear_2506_22121)"/>
<path style="mix-blend-mode:screen" d="M59.3455 179.319C59.32 179.751 59.3455 180.183 59.3455 180.64C59.3455 180.742 59.3455 180.844 59.3709 180.971C59.4219 181.301 59.4729 181.657 59.5493 181.987C59.5493 182.089 59.6003 182.191 59.6258 182.318C59.7532 182.75 59.8806 183.156 60.059 183.588C60.0844 183.664 60.1354 183.741 60.1609 183.817C60.3138 184.173 60.4922 184.503 60.696 184.859C60.7979 185.011 60.8744 185.164 60.9763 185.316C61.1547 185.57 61.3331 185.85 61.5369 186.104C61.6898 186.307 61.8427 186.511 61.9956 186.688C62.2759 187.044 62.5817 187.375 62.913 187.705C62.913 187.705 62.9639 187.756 62.9894 187.781C63.3716 188.162 63.8048 188.544 64.238 188.899C64.3654 189.001 64.4674 189.103 64.5948 189.204C65.0789 189.585 65.5631 189.941 66.0982 190.322C66.6588 190.704 67.2449 191.059 67.8565 191.39C68.0603 191.491 68.2642 191.593 68.4681 191.695C68.8758 191.923 69.309 192.127 69.7422 192.33C69.9715 192.432 70.2263 192.559 70.4811 192.66C70.8889 192.838 71.3221 193.016 71.7298 193.194C71.9846 193.296 72.2394 193.397 72.5197 193.499C72.851 193.626 73.2077 193.728 73.539 193.855C74.0996 194.033 74.6602 194.21 75.2208 194.363C75.5521 194.465 75.8833 194.541 76.2401 194.642C76.5968 194.744 76.9536 194.82 77.3103 194.897C77.7435 194.998 78.1767 195.074 78.6099 195.176C78.8902 195.227 79.1705 195.278 79.4508 195.329C79.9605 195.405 80.4956 195.481 81.0052 195.557C81.2091 195.583 81.413 195.608 81.6423 195.633C82.3558 195.71 83.0948 195.786 83.8083 195.837C83.9357 195.837 84.0631 195.837 84.165 195.837C84.7766 195.862 85.3882 195.888 85.9997 195.913C86.2036 195.913 86.4075 195.913 86.6113 195.913C87.2484 195.913 87.9109 195.913 88.548 195.888C88.6244 195.888 88.7008 195.888 88.8028 195.888C89.5163 195.862 90.2298 195.786 90.9433 195.735C91.1471 195.735 91.3765 195.684 91.5803 195.659C92.09 195.608 92.5996 195.532 93.0838 195.456C93.3386 195.405 93.5934 195.379 93.8482 195.329C94.2814 195.252 94.7146 195.151 95.1733 195.074C95.4791 194.998 95.8103 194.947 96.1161 194.871C96.4474 194.795 96.7787 194.693 97.0845 194.617C97.5686 194.49 98.0273 194.363 98.486 194.21C98.8937 194.083 99.3269 193.931 99.7346 193.778C99.9385 193.702 100.142 193.626 100.346 193.55C100.983 193.296 101.595 193.041 102.181 192.736C107.175 190.272 109.876 186.816 110.259 183.182L110.59 64.1271L59.6003 64L59.2945 180.234V179.37L59.3455 179.319Z" fill="url(#paint4_linear_2506_22121)"/>
<g style="mix-blend-mode:multiply" opacity="0.75">
<path d="M58.1791 117.738C58.1533 108.495 71.0655 100.965 87.0195 100.92C102.973 100.876 115.928 108.333 115.953 117.577C115.979 126.821 103.067 134.351 87.1129 134.395C71.159 134.44 58.2049 126.982 58.1791 117.738Z" fill="url(#paint5_radial_2506_22121)"/>
</g>
<path d="M82.9354 61.7178C70.1049 69.1229 59.7363 87.0858 59.7781 101.833C59.7991 109.154 62.3859 114.318 66.5545 116.737L73.6453 120.854C69.4767 118.434 66.8899 113.27 66.869 105.949C66.8272 91.202 77.1957 73.2391 90.0262 65.834L82.9354 61.7178ZM99.4744 60.0938C95.2535 57.6429 89.3987 57.9892 82.9363 61.7178L90.0272 65.834C96.4895 62.1054 102.334 61.7592 106.565 64.21L99.4744 60.0938Z" fill="url(#paint6_linear_2506_22121)"/>
<path d="M90.0267 65.8337C77.196 73.2388 66.8268 91.2017 66.8687 105.949C66.9106 120.696 77.3427 126.646 90.1733 119.241C103.014 111.825 113.384 93.8621 113.342 79.1147C113.3 64.3674 102.868 58.4181 90.0267 65.8337Z" fill="url(#paint7_linear_2506_22121)"/>
<path d="M90.0372 70.9765C79.6784 76.9571 71.3097 91.4531 71.3412 103.373C71.3726 115.281 79.8041 120.089 90.1629 114.098C100.532 108.107 108.901 93.6108 108.869 81.7018C108.838 69.7929 100.406 64.9854 90.0477 70.9765H90.0372Z" fill="#0C0C4F"/>
<path d="M99.3801 95.9571C99.3696 90.9819 95.8396 88.9704 91.5139 91.4737L89.2521 92.7832C84.9159 95.2865 81.4174 101.351 81.4279 106.326C81.428 108.159 82.7266 108.892 84.3185 107.971L96.5099 100.932C98.1019 100.01 99.3904 97.79 99.3801 95.9571ZM95.3576 80.9678C95.347 77.7946 93.1059 76.5167 90.341 78.1084C87.5759 79.7005 85.3452 83.5657 85.3557 86.7393C85.3661 89.9129 87.6071 91.1907 90.3723 89.5987C93.1374 88.0066 95.3681 84.1414 95.3576 80.9678Z" fill="url(#paint8_linear_2506_22121)"/>
</g>
<defs>
<linearGradient id="paint0_linear_2506_22121" x1="84.1419" y1="203.282" x2="142.267" y2="203.282" gradientUnits="userSpaceOnUse">
<stop stop-color="#9069F0"/>
<stop offset="1" stop-color="#DFFCF1"/>
</linearGradient>
<linearGradient id="paint1_linear_2506_22121" x1="84.677" y1="203.129" x2="26.3995" y2="203.129" gradientUnits="userSpaceOnUse">
<stop stop-color="#9069F0"/>
<stop offset="1" stop-color="#3B1698"/>
</linearGradient>
<linearGradient id="paint2_linear_2506_22121" x1="85.453" y1="86.751" x2="81.5432" y2="535.973" gradientUnits="userSpaceOnUse">
<stop stop-color="#3B1698"/>
<stop offset="0.06" stop-color="#3B1698"/>
<stop offset="0.16" stop-color="#3B1698"/>
<stop offset="0.29" stop-color="#3B1698"/>
<stop offset="0.44" stop-color="#6F79BF"/>
<stop offset="0.57" stop-color="#9069F0"/>
<stop offset="0.87" stop-color="#9069F0"/>
<stop offset="0.99" stop-color="#9069F0"/>
</linearGradient>
<linearGradient id="paint3_linear_2506_22121" x1="84.8005" y1="198.346" x2="85.4851" y2="-63.8532" gradientUnits="userSpaceOnUse">
<stop offset="0.04" stop-color="#3B1698" stop-opacity="0.6"/>
<stop offset="0.09" stop-color="#3B1698" stop-opacity="0.41"/>
<stop offset="0.16" stop-color="#3B1698" stop-opacity="0.19"/>
<stop offset="0.21" stop-color="#3B1698" stop-opacity="0.05"/>
<stop offset="0.23" stop-color="#3B1698" stop-opacity="0"/>
</linearGradient>
<linearGradient id="paint4_linear_2506_22121" x1="84.812" y1="194.102" x2="85.8336" y2="-197.188" gradientUnits="userSpaceOnUse">
<stop stop-color="#3B1698"/>
<stop offset="0.05" stop-color="#3B1698" stop-opacity="0.58"/>
<stop offset="0.1" stop-color="#3B1698" stop-opacity="0.27"/>
<stop offset="0.195" stop-color="#3B1698" stop-opacity="0.07"/>
<stop offset="0.26" stop-color="#3B1698" stop-opacity="0"/>
</linearGradient>
<radialGradient id="paint5_radial_2506_22121" cx="0" cy="0" r="1" gradientUnits="userSpaceOnUse" gradientTransform="translate(87.0768 117.6) rotate(180) scale(28.5102 16.2508)">
<stop offset="0.28" stop-color="#C1CAEE"/>
<stop offset="0.35" stop-color="#C1CAEE" stop-opacity="0.97"/>
<stop offset="0.45" stop-color="#C4CCEE" stop-opacity="0.88"/>
<stop offset="0.56" stop-color="#C7CFEF" stop-opacity="0.74"/>
<stop offset="0.7" stop-color="#CDD4F1" stop-opacity="0.55"/>
<stop offset="0.84" stop-color="#D3DAF2" stop-opacity="0.3"/>
<stop offset="1" stop-color="#DCE1F5" stop-opacity="0"/>
</radialGradient>
<linearGradient id="paint6_linear_2506_22121" x1="59.778" y1="89.6914" x2="106.565" y2="89.6914" gradientUnits="userSpaceOnUse">
<stop stop-color="#9069F0"/>
<stop offset="1" stop-color="#3B1698"/>
</linearGradient>
<linearGradient id="paint7_linear_2506_22121" x1="113.342" y1="92.5337" x2="66.8686" y2="92.5337" gradientUnits="userSpaceOnUse">
<stop stop-color="#9069F0"/>
<stop offset="1" stop-color="#DFFCF1"/>
</linearGradient>
<linearGradient id="paint8_linear_2506_22121" x1="99.3801" y1="92.8962" x2="81.4279" y2="92.8962" gradientUnits="userSpaceOnUse">
<stop stop-color="#9069F0"/>
<stop offset="1" stop-color="#DFFCF1"/>
</linearGradient>
<clipPath id="clip0_2506_22121">
<rect width="169.15" height="236" fill="white"/>
</clipPath>
</defs>
</svg>
