<svg width="87" height="36" viewBox="0 0 87 36" fill="none" xmlns="http://www.w3.org/2000/svg">
    <path
        d="M20.5179 21.0505V28H16.7882V13.6717H20.2227V16.4354C21.2692 14.6108 23.4962 13.5107 25.8038 13.5107V17.3745C22.6376 17.133 20.5179 17.8843 20.5179 21.0505ZM33.9687 28.2683C29.8097 28.2683 26.6972 24.9948 26.6972 20.8358C26.6972 16.65 29.8097 13.4034 33.9687 13.4034C38.1277 13.4034 41.2402 16.65 41.2402 20.8358C41.2402 24.9948 38.1277 28.2683 33.9687 28.2683ZM33.9687 24.968C35.8201 24.968 37.4032 23.4922 37.4032 20.8358C37.4032 18.1795 35.8201 16.7305 33.9687 16.7305C32.1173 16.7305 30.5342 18.1795 30.5342 20.8358C30.5342 23.4922 32.1173 24.968 33.9687 24.968ZM56.0286 13.6717L50.7695 28H46.6911L41.4052 13.6717H45.43L48.8376 23.7605L52.2721 13.6717H56.0286ZM63.3923 28.2415C59.0992 28.2415 56.2282 25.2631 56.2282 20.7822C56.2282 16.5159 59.2065 13.4034 63.3387 13.4034C67.8733 13.4034 70.8785 17.0794 70.2077 21.7481H60.0383C60.2798 24.0825 61.4068 25.3705 63.3118 25.3705C64.9486 25.3705 66.0487 24.5655 66.478 23.1434H70.1808C69.3759 26.3901 66.8805 28.2415 63.3923 28.2415ZM63.2582 16.1402C61.5141 16.1402 60.414 17.2672 60.092 19.3869H66.2634C66.156 17.4013 65.0291 16.1402 63.2582 16.1402ZM84.807 23.4117C84.807 26.4169 82.5263 28.2683 78.4478 28.2683C74.3694 28.2683 72.0886 26.3096 71.7935 23.1166H75.3621C75.389 24.5923 76.6501 25.5315 78.5015 25.5315C79.9504 25.5315 81.0505 25.0753 81.0505 24.0557C81.0505 23.1434 80.4602 22.7678 79.0918 22.4994L76.5159 22.0165C73.9401 21.5603 72.3838 20.1382 72.3838 17.9112C72.3838 15.2548 74.6645 13.4034 78.2332 13.4034C81.8287 13.4034 84.2972 15.3084 84.5655 18.3941H80.9969C80.8627 16.9989 79.8163 16.1402 78.2332 16.1402C76.8647 16.1402 75.9525 16.65 75.9525 17.5623C75.9525 18.421 76.5428 18.7698 77.8307 19.0113L80.5944 19.5211C83.3849 20.0577 84.807 21.3457 84.807 23.4117Z"
        fill="white" />
    <path
        d="M11.4022 27.3673C11.4022 27.9601 10.9217 28.4406 10.3289 28.4406H7.39103C6.79827 28.4406 6.31775 27.9601 6.31775 27.3673V14.2015C6.31775 13.8983 6.44606 13.6091 6.67095 13.4057L9.60886 10.7476C10.2989 10.1232 11.4022 10.6129 11.4022 11.5434V27.3673Z"
        fill="white" />
    <path
        d="M0 11.4016V8.85258C0 8.25982 0.480524 7.7793 1.07328 7.7793H15.7404C16.3332 7.7793 16.8137 8.25982 16.8137 8.85258V11.3466C16.8137 11.9394 16.3332 12.4199 15.7404 12.4199H14.9405C14.6744 12.4199 14.4178 12.321 14.2205 12.1425L10.9989 9.22776C10.5948 8.86216 9.98092 8.8574 9.5712 9.21668L6.21691 12.1581C6.0243 12.327 5.77763 12.4215 5.52147 12.4244L1.08548 12.4748C0.48799 12.4816 0 11.9991 0 11.4016Z"
        fill="white" />
</svg>