<svg width="26" height="26" viewBox="0 0 26 26" fill="none" xmlns="http://www.w3.org/2000/svg">
    <g clip-path="url(#clip0_3510_8135)">
        <path
            d="M12.6872 25.3744C19.6942 25.3744 25.3744 19.6942 25.3744 12.6872C25.3744 5.68026 19.6942 0 12.6872 0C5.68026 0 0 5.68026 0 12.6872C0 19.6942 5.68026 25.3744 12.6872 25.3744Z"
            fill="url(#paint0_linear_3510_8135)" />
        <path
            d="M12.6875 0.326172C19.5144 0.326321 25.0488 5.86056 25.0488 12.6875C25.0487 19.5143 19.5143 25.0487 12.6875 25.0488C5.86056 25.0488 0.326321 19.5144 0.326172 12.6875C0.326172 5.86047 5.86047 0.326172 12.6875 0.326172Z"
            stroke="white" stroke-opacity="0.05" stroke-width="0.651584" />
        <path fill-rule="evenodd" clip-rule="evenodd"
            d="M12.6873 3.17188L15.8591 7.91996L19.0309 12.6813L12.6873 10.2758V3.17188Z" fill="white"
            fill-opacity="0.64" />
        <path fill-rule="evenodd" clip-rule="evenodd" d="M12.6873 17.1878L18.6911 13.9766L12.6873 22.2045V17.1878Z"
            fill="white" fill-opacity="0.64" />
        <path fill-rule="evenodd" clip-rule="evenodd" d="M12.6873 10.2773L19.0309 12.6828L12.6873 15.8929V10.2773Z"
            fill="white" fill-opacity="0.2" />
        <path fill-rule="evenodd" clip-rule="evenodd"
            d="M12.6872 3.17188L9.51543 7.91996L6.34363 12.6813L12.6872 10.2758V3.17188Z" fill="white" />
        <path fill-rule="evenodd" clip-rule="evenodd" d="M12.6872 17.1878L6.69543 13.9766L12.6872 22.2045V17.1878Z"
            fill="white" />
        <path fill-rule="evenodd" clip-rule="evenodd" d="M12.6872 10.2773L6.34363 12.6828L12.6872 15.8929V10.2773Z"
            fill="white" fill-opacity="0.64" />
    </g>
    <defs>
        <linearGradient id="paint0_linear_3510_8135" x1="12.6872" y1="0" x2="12.6872" y2="25.3744"
            gradientUnits="userSpaceOnUse">
            <stop stop-color="#A9A9A9" />
            <stop offset="1" stop-color="#1D1D1D" />
        </linearGradient>
        <clipPath id="clip0_3510_8135">
            <rect width="25.3744" height="25.3744" fill="white" />
        </clipPath>
    </defs>
</svg>