<svg width="20" height="20" viewBox="0 0 20 20" fill="none" xmlns="http://www.w3.org/2000/svg">
    <path
        d="M-0.00012207 9.99995C-0.00012207 15.523 4.4769 20 9.99973 20C15.5226 20 19.9999 15.5228 19.9999 9.99995C19.9999 4.4771 15.5226 0 9.99973 0C4.4769 0 -0.00012207 4.47709 -0.00012207 9.99995Z"
        fill="#0C0C4F" />
    <path fill-rule="evenodd" clip-rule="evenodd"
        d="M5.67656 7.69167L5.91851 6.94417C5.96771 6.79212 6.08771 6.67382 6.24031 6.62717L6.99146 6.39617C7.09541 6.36442 7.09626 6.21772 6.99311 6.18427L6.24536 5.94232C6.09361 5.89312 5.97531 5.77312 5.92836 5.62052L5.69766 4.86939C5.66591 4.7657 5.51921 4.76457 5.48576 4.86798L5.24381 5.61547C5.19466 5.76722 5.07466 5.88557 4.92205 5.93247L4.1709 6.16317C4.06693 6.19522 4.0658 6.34162 4.16921 6.37507L4.91699 6.61702C5.06876 6.66622 5.18706 6.78647 5.23396 6.93907L5.46471 7.68997C5.49646 7.79392 5.64316 7.79507 5.67656 7.69167Z"
        fill="#FAFAFA" />
    <path fill-rule="evenodd" clip-rule="evenodd"
        d="M17.5492 7.2567C17.2395 6.91045 16.7563 6.71545 16.2864 6.6355C15.8128 6.55875 15.3162 6.56585 14.8487 6.6489C13.9027 6.80895 13.0432 7.20065 12.2936 7.6839C11.9044 7.92105 11.5724 8.1955 11.2285 8.47495C11.0628 8.6163 10.9117 8.76685 10.7543 8.9152L10.3244 9.34295C9.85727 9.8313 9.39682 10.2761 8.95132 10.6447C8.50402 11.0117 8.08582 11.2904 7.67367 11.485C7.26177 11.6806 6.82107 11.7957 6.24667 11.8141C5.67727 11.8342 5.00362 11.7314 4.28305 11.5618C3.55861 11.3929 2.79787 11.1522 1.94775 10.9451C2.24438 11.768 2.69105 12.4952 3.26454 13.16C3.84475 13.8133 4.56926 14.4086 5.49997 14.8001C6.41727 15.2004 7.57002 15.3441 8.64782 15.1273C9.72852 14.9192 10.6769 14.4192 11.4435 13.8408C12.212 13.2566 12.8338 12.591 13.358 11.8991C13.5027 11.7079 13.5792 11.601 13.6839 11.4515L13.9734 11.0228C14.1745 10.7576 14.3576 10.4557 14.5566 10.1929C14.947 9.64265 15.3318 9.093 15.779 8.5866C16.004 8.32975 16.2414 8.0841 16.5215 7.848C16.6612 7.73275 16.8122 7.61995 16.9795 7.5184C17.1492 7.4088 17.3285 7.32305 17.5492 7.2567Z"
        fill="url(#paint0_linear_1050_160)" />
    <path fill-rule="evenodd" clip-rule="evenodd"
        d="M17.5492 7.25537C17.2166 6.41592 16.5981 5.70927 15.7679 5.18782C14.9429 4.67213 13.797 4.40895 12.6614 4.63329C12.1004 4.74179 11.5569 4.95068 11.08 5.22882C10.6052 5.50592 10.1797 5.83942 9.81137 6.19722C9.62752 6.37677 9.46062 6.56402 9.29482 6.75232L8.86507 7.30022L8.20127 8.18222C7.35512 9.31702 6.44387 10.647 4.94849 11.041C3.48046 11.4279 2.84375 11.0853 1.94775 10.9437C2.11159 11.3667 2.31452 11.7775 2.58963 12.1388C2.85962 12.5075 3.17852 12.8537 3.575 13.1506C3.77536 13.2932 3.9869 13.4339 4.22184 13.5532C4.45572 13.6685 4.70793 13.77 4.97713 13.8463C5.51262 13.9931 6.11547 14.0446 6.69922 13.9655C7.28317 13.8876 7.84137 13.7026 8.32927 13.4568C8.82077 13.2133 9.24897 12.9168 9.63127 12.6039C10.3913 11.9727 10.9824 11.2754 11.4818 10.5705C11.7329 10.218 11.9609 9.85892 12.1718 9.49972L12.4199 9.07212C12.4958 8.94712 12.5725 8.82137 12.6504 8.70422C12.965 8.23362 13.2725 7.85627 13.6461 7.57307C14.0145 7.28252 14.5275 7.06782 15.213 7.01797C15.8956 6.96752 16.6837 7.06072 17.5492 7.25537Z"
        fill="#FAFAFA" />
    <path fill-rule="evenodd" clip-rule="evenodd"
        d="M13.8561 14.2299C13.8561 14.8466 14.3562 15.3466 14.9727 15.3466C15.5893 15.3466 16.0887 14.8466 16.0887 14.2299C16.0887 13.6134 15.5893 13.1133 14.9727 13.1133C14.3562 13.1133 13.8561 13.6134 13.8561 14.2299Z"
        fill="url(#paint1_linear_1050_160)" />
    <defs>
        <linearGradient id="paint0_linear_1050_160" x1="17.4658" y1="6.96215" x2="3.73422" y2="14.5918"
            gradientUnits="userSpaceOnUse">
            <stop stop-color="#EC796B" />
            <stop offset="1" stop-color="#E175B1" />
        </linearGradient>
        <linearGradient id="paint1_linear_1050_160" x1="16.088" y1="13.4467" x2="13.8546" y2="13.6829"
            gradientUnits="userSpaceOnUse">
            <stop stop-color="#EC796B" />
            <stop offset="1" stop-color="#E175B1" />
        </linearGradient>
    </defs>
</svg>