<svg width="26" height="26" viewBox="0 0 26 26" fill="none" xmlns="http://www.w3.org/2000/svg">
    <g clip-path="url(#clip0_3510_8146)">
        <path
            d="M12.6872 25.3744C19.6942 25.3744 25.3744 19.6942 25.3744 12.6872C25.3744 5.68026 19.6942 0 12.6872 0C5.68026 0 0 5.68026 0 12.6872C0 19.6942 5.68026 25.3744 12.6872 25.3744Z"
            fill="url(#paint0_linear_3510_8146)" />
        <path
            d="M12.6875 0.326172C19.5144 0.326321 25.0488 5.86056 25.0488 12.6875C25.0487 19.5143 19.5143 25.0487 12.6875 25.0488C5.86056 25.0488 0.326321 19.5144 0.326172 12.6875C0.326172 5.86047 5.86047 0.326172 12.6875 0.326172Z"
            stroke="white" stroke-opacity="0.05" stroke-width="0.651584" />
        <path
            d="M15.8473 3.71094C15.8981 3.71367 15.9478 3.7284 15.9918 3.75391C17.9155 4.3741 19.5929 5.58888 20.7828 7.22266C21.9727 8.85645 22.6139 10.8255 22.6139 12.8467C22.6139 14.8678 21.9726 16.8369 20.7828 18.4707C19.593 20.1045 17.9154 21.3193 15.9918 21.9395C15.9299 21.9815 15.8543 21.9999 15.7799 21.9922C15.6852 21.9718 15.6008 21.9183 15.5426 21.8408C15.4843 21.763 15.4563 21.6663 15.4635 21.5693V20.8291C15.4546 20.719 15.4799 20.6084 15.5367 20.5137C15.5935 20.4191 15.6787 20.3447 15.7799 20.3008C17.3009 19.7429 18.615 18.7316 19.5426 17.4033C20.4702 16.075 20.9674 14.4932 20.9674 12.873C20.9673 11.2531 20.4701 9.67193 19.5426 8.34375C18.615 7.01545 17.301 6.0042 15.7799 5.44629C15.6903 5.38823 15.6151 5.31031 15.5602 5.21875C15.5052 5.12706 15.4724 5.0235 15.4635 4.91699V4.17773C15.4635 4.07171 15.4635 4.01866 15.5153 3.9668C15.5257 3.91698 15.5477 3.86968 15.5797 3.83008C15.6117 3.79058 15.6524 3.75896 15.6989 3.73828C15.7453 3.71757 15.7965 3.70823 15.8473 3.71094ZM10.3873 3.70117C10.4824 3.72129 10.5671 3.77494 10.6256 3.85254C10.6841 3.93028 10.7127 4.02701 10.7057 4.12402V4.94727C10.6993 5.0292 10.6733 5.10865 10.6305 5.17969C10.5734 5.2744 10.4888 5.34966 10.3873 5.39355C8.86627 5.95146 7.55324 6.96271 6.62561 8.29102C5.698 9.61931 5.19983 11.2002 5.19983 12.8203C5.19983 14.4404 5.69799 16.0213 6.62561 17.3496C7.55324 18.6779 8.86627 19.6892 10.3873 20.2471C10.5464 20.3531 10.7055 20.5645 10.7057 20.7236V21.4629C10.7057 21.569 10.705 21.6227 10.652 21.6758C10.6413 21.7253 10.6195 21.7722 10.5875 21.8115C10.5556 21.8508 10.5146 21.8818 10.4684 21.9023C10.4219 21.9229 10.3707 21.9325 10.3199 21.9297C10.2694 21.9269 10.2202 21.9121 10.1764 21.8867C8.25187 21.275 6.57172 20.0664 5.37952 18.4365C4.18732 16.8066 3.54456 14.8397 3.54456 12.8203C3.54456 10.8009 4.18732 8.83401 5.37952 7.2041C6.57172 5.57419 8.25187 4.3656 10.1764 3.75391C10.2382 3.71204 10.3131 3.69342 10.3873 3.70117ZM13.4586 6.44629C13.7227 6.49934 13.8814 6.65716 13.8815 6.86816V8.13672C14.4614 8.18563 15.009 8.4253 15.4391 8.81738C15.8692 9.2095 16.1582 9.73271 16.2604 10.3057V10.3574C16.2616 10.4061 16.253 10.4547 16.235 10.5C16.2168 10.5455 16.1895 10.5875 16.1549 10.6221C16.1203 10.6567 16.0783 10.684 16.0328 10.7021C15.9875 10.7202 15.939 10.7288 15.8903 10.7275H15.0446C14.9631 10.7279 14.8831 10.7036 14.816 10.6572C14.749 10.6108 14.6979 10.5442 14.6696 10.4678C14.4054 9.67441 13.877 9.35742 12.9244 9.35742C11.868 9.35747 11.3395 9.83493 11.3395 10.5742C11.3395 11.3135 11.6559 11.7372 13.2428 11.9482C15.463 12.2124 16.5728 12.852 16.5729 14.6973L16.568 14.6924C16.568 16.1191 15.5103 17.23 13.9244 17.4941V18.7627C13.8725 19.0268 13.7136 19.1865 13.5026 19.1865H12.7086C12.4446 19.1334 12.2867 18.9737 12.2867 18.7627V17.4941C10.5417 17.23 9.69625 16.2788 9.48401 14.957V14.9043C9.48291 14.8554 9.49216 14.8062 9.51038 14.7607C9.52859 14.7154 9.55593 14.6742 9.59045 14.6396C9.62501 14.6051 9.66622 14.5777 9.71155 14.5596C9.75685 14.5414 9.80534 14.5321 9.85413 14.5332H10.7574C10.8477 14.5344 10.9349 14.5674 11.0035 14.626C11.0722 14.6848 11.1183 14.7663 11.1334 14.8555C11.2972 15.6535 11.7677 16.2304 13.1422 16.2305C14.1467 16.2305 14.8862 15.6526 14.8864 14.8027C14.8864 13.9527 14.4052 13.6401 12.9254 13.376C10.7053 13.1118 9.64807 12.4237 9.64807 10.6787C9.64825 9.35714 10.6525 8.30574 12.2428 8.08887V6.86816C12.2958 6.60425 12.4538 6.44649 12.6647 6.44629H13.4586Z"
            fill="white" />
    </g>
    <defs>
        <linearGradient id="paint0_linear_3510_8146" x1="12.6872" y1="0" x2="12.6872" y2="25.3744"
            gradientUnits="userSpaceOnUse">
            <stop stop-color="#3B89DE" />
            <stop offset="1" stop-color="#2775CA" />
        </linearGradient>
        <clipPath id="clip0_3510_8146">
            <rect width="25.3744" height="25.3744" fill="white" />
        </clipPath>
    </defs>
</svg>