<svg width="26" height="26" viewBox="0 0 26 26" fill="none" xmlns="http://www.w3.org/2000/svg">
    <g clip-path="url(#clip0_3510_8153)">
        <path
            d="M12.6872 25.3744C19.6942 25.3744 25.3744 19.6942 25.3744 12.6872C25.3744 5.68026 19.6942 0 12.6872 0C5.68026 0 0 5.68026 0 12.6872C0 19.6942 5.68026 25.3744 12.6872 25.3744Z"
            fill="url(#paint0_linear_3510_8153)" />
        <path
            d="M12.6875 0.326172C19.5144 0.326321 25.0488 5.86056 25.0488 12.6875C25.0487 19.5143 19.5143 25.0487 12.6875 25.0488C5.86056 25.0488 0.326321 19.5144 0.326172 12.6875C0.326172 5.86047 5.86047 0.326172 12.6875 0.326172Z"
            stroke="white" stroke-opacity="0.05" stroke-width="0.651584" />
        <path fill-rule="evenodd" clip-rule="evenodd"
            d="M14.3436 13.783V13.7814C14.2564 13.7878 13.8068 13.8147 12.8037 13.8147C12.0028 13.8147 11.439 13.7909 11.2408 13.7814V13.7838C8.1578 13.6482 5.85665 13.1114 5.85665 12.4691C5.85665 11.8276 8.1578 11.2908 11.2408 11.1528V13.2494C11.4422 13.2636 12.0195 13.2977 12.8172 13.2977C13.7743 13.2977 14.254 13.2581 14.3436 13.2501V11.1544C17.4203 11.2916 19.7159 11.8284 19.7159 12.4691C19.7159 13.1114 17.4203 13.6466 14.3436 13.783ZM14.3436 10.9363V9.06019H18.6367V6.19922H6.94775V9.06019H11.2408V10.9355C7.75181 11.0957 5.12793 11.7871 5.12793 12.615C5.12793 13.4428 7.75181 14.1335 11.2408 14.2945V20.3066H14.3436V14.2929C17.827 14.1327 20.4446 13.442 20.4446 12.615C20.4446 11.7879 17.827 11.0973 14.3436 10.9363Z"
            fill="white" />
    </g>
    <defs>
        <linearGradient id="paint0_linear_3510_8153" x1="12.6872" y1="0" x2="12.6872" y2="25.3744"
            gradientUnits="userSpaceOnUse">
            <stop stop-color="#3AB58F" />
            <stop offset="1" stop-color="#26A17B" />
        </linearGradient>
        <clipPath id="clip0_3510_8153">
            <rect width="25.3744" height="25.3744" fill="white" />
        </clipPath>
    </defs>
</svg>