<svg width="26" height="26" viewBox="0 0 26 26" fill="none" xmlns="http://www.w3.org/2000/svg">
    <g clip-path="url(#clip0_3510_8128)">
        <path
            d="M12.6872 25.3744C19.6942 25.3744 25.3744 19.6942 25.3744 12.6872C25.3744 5.68026 19.6942 0 12.6872 0C5.68026 0 0 5.68026 0 12.6872C0 19.6942 5.68026 25.3744 12.6872 25.3744Z"
            fill="url(#paint0_linear_3510_8128)" />
        <path
            d="M12.6875 0.326172C19.5144 0.326321 25.0488 5.86056 25.0488 12.6875C25.0487 19.5143 19.5143 25.0487 12.6875 25.0488C5.86056 25.0488 0.326321 19.5144 0.326172 12.6875C0.326172 5.86047 5.86047 0.326172 12.6875 0.326172Z"
            stroke="white" stroke-opacity="0.05" stroke-width="0.651584" />
        <path
            d="M18.2816 10.8808C18.5342 9.19263 17.2487 8.2851 15.4909 7.67969L16.0611 5.39284L14.6689 5.04592L14.1138 7.27251C13.7478 7.18132 13.3719 7.09529 12.9984 7.01005L13.5575 4.76879L12.1661 4.42188L11.5955 6.70793C11.2926 6.63894 10.9952 6.57076 10.7065 6.499L10.7081 6.49186L8.78817 6.01252L8.41782 7.49929C8.41782 7.49929 9.45075 7.73598 9.42894 7.75065C9.99279 7.8914 10.0947 8.26448 10.0776 8.56024L9.42814 11.1655C9.467 11.1754 9.51736 11.1897 9.57288 11.2119C9.52648 11.2004 9.47692 11.1877 9.42577 11.1754L8.51535 14.8249C8.44636 14.9962 8.2715 15.2531 7.87737 15.1556C7.89124 15.1758 6.86545 14.903 6.86545 14.903L6.17432 16.4964L7.98601 16.948C8.32305 17.0325 8.65334 17.1209 8.97849 17.2041L8.40236 19.5171L9.79294 19.8641L10.3635 17.5756C10.7434 17.6787 11.1122 17.7739 11.473 17.8635L10.9044 20.1412L12.2966 20.4881L12.8727 18.1795C15.2466 18.6287 17.0318 18.4475 17.7832 16.3006C18.3887 14.5719 17.753 13.5748 16.504 12.9246C17.4136 12.7149 18.0988 12.1166 18.2816 10.8808ZM15.1007 15.3407C14.6705 17.0693 11.7597 16.1348 10.816 15.9005L11.5804 12.8362C12.5242 13.0717 15.5504 13.538 15.1007 15.3407ZM15.5313 10.8558C15.1388 12.4282 12.7161 11.6293 11.9302 11.4335L12.6233 8.65422C13.4092 8.85008 15.9401 9.21561 15.5313 10.8558Z"
            fill="white" />
    </g>
    <defs>
        <linearGradient id="paint0_linear_3510_8128" x1="12.6872" y1="0" x2="12.6872" y2="25.3744"
            gradientUnits="userSpaceOnUse">
            <stop stop-color="#FFA72E" />
            <stop offset="1" stop-color="#F7931A" />
        </linearGradient>
        <clipPath id="clip0_3510_8128">
            <rect width="25.3744" height="25.3744" fill="white" />
        </clipPath>
    </defs>
</svg>
