<svg width="26" height="26" viewBox="0 0 26 26" fill="none" xmlns="http://www.w3.org/2000/svg">
    <g clip-path="url(#clip0_3510_8119)">
        <path
            d="M12.6873 0.5C19.4179 0.500252 24.8738 5.95685 24.8738 12.6875C24.8736 19.418 19.4178 24.8738 12.6873 24.874C5.95659 24.874 0.499939 19.4184 0.499756 12.6875C0.499756 5.95665 5.95647 0.5 12.6873 0.5Z"
            fill="#091346" stroke="#EC796B" />
        <path fill-rule="evenodd" clip-rule="evenodd"
            d="M7.2019 9.75825L7.50887 8.80988C7.57129 8.61697 7.72353 8.46688 7.91714 8.4077L8.87014 8.11462C9.00202 8.07434 9.0031 7.88822 8.87223 7.84578L7.92355 7.53881C7.73102 7.47639 7.58093 7.32414 7.52136 7.13054L7.22867 6.17756C7.18839 6.046 7.00226 6.04457 6.95983 6.17577L6.65286 7.12413C6.5905 7.31666 6.43825 7.46681 6.24464 7.52631L5.29163 7.81901C5.15972 7.85967 5.1583 8.04541 5.2895 8.08785L6.23822 8.39482C6.43077 8.45724 6.58086 8.6098 6.64036 8.80341L6.93312 9.75609C6.9734 9.88798 7.15952 9.88944 7.2019 9.75825Z"
            fill="#FAFAFA" />
        <path fill-rule="evenodd" clip-rule="evenodd"
            d="M22.2649 9.20753C21.8721 8.76824 21.259 8.52084 20.6629 8.4194C20.062 8.32203 19.4319 8.33104 18.8388 8.4364C17.6385 8.63946 16.5481 9.13642 15.5971 9.74953C15.1032 10.0504 14.682 10.3986 14.2457 10.7532C14.0355 10.9325 13.8438 11.1235 13.6442 11.3117L13.0987 11.8544C12.506 12.474 11.9219 13.0383 11.3566 13.506C10.7891 13.9715 10.2586 14.3251 9.73567 14.5721C9.21308 14.8202 8.65395 14.9662 7.9252 14.9896C7.20279 15.015 6.34811 14.8847 5.43392 14.6695C4.5148 14.4552 3.54963 14.1498 2.47107 13.8871C2.8474 14.9311 3.41411 15.8537 4.14171 16.6972C4.87784 17.526 5.79703 18.2812 6.97784 18.778C8.14164 19.2858 9.60416 19.4681 10.9716 19.1931C12.3427 18.9291 13.546 18.2948 14.5185 17.5609C15.4936 16.8197 16.2825 15.9753 16.9475 15.0974C17.131 14.8549 17.2282 14.7192 17.361 14.5296L17.7282 13.9857C17.9834 13.6492 18.2157 13.2661 18.4682 12.9328C18.9635 12.2346 19.4517 11.5373 20.019 10.8948C20.3046 10.5689 20.6057 10.2573 20.9611 9.95773C21.1384 9.81151 21.3299 9.6684 21.5421 9.53956C21.7574 9.40051 21.9849 9.29171 22.2649 9.20753Z"
            fill="url(#paint0_linear_3510_8119)" />
        <path fill-rule="evenodd" clip-rule="evenodd"
            d="M22.2649 9.20624C21.843 8.14121 21.0583 7.24467 20.005 6.5831C18.9583 5.92882 17.5044 5.59492 16.0637 5.87955C15.352 6.01721 14.6624 6.28222 14.0573 6.63511C13.4549 6.98668 12.9151 7.40979 12.4478 7.86374C12.2146 8.09154 12.0028 8.32911 11.7925 8.56801L11.2472 9.26314L10.405 10.3822C9.33151 11.8219 8.17539 13.5092 6.27817 14.0092C4.41565 14.5 3.60784 14.0653 2.47107 13.8857C2.67893 14.4223 2.93639 14.9435 3.28543 15.402C3.62797 15.8698 4.03257 16.309 4.53559 16.6857C4.78979 16.8665 5.05818 17.045 5.35625 17.1965C5.65298 17.3427 5.97296 17.4715 6.31451 17.5683C6.99389 17.7545 7.75874 17.8199 8.49936 17.7196C9.24023 17.6207 9.94843 17.386 10.5674 17.0742C11.191 16.7652 11.7343 16.389 12.2193 15.992C13.1835 15.1912 13.9335 14.3065 14.5671 13.4122C14.8857 12.965 15.175 12.5094 15.4425 12.0537L15.7573 11.5112C15.8536 11.3526 15.9509 11.1931 16.0498 11.0444C16.4489 10.4474 16.8391 9.96862 17.313 9.60932C17.7804 9.24069 18.4312 8.96829 19.3009 8.90505C20.167 8.84104 21.1669 8.95929 22.2649 9.20624Z"
            fill="#FAFAFA" />
        <path fill-rule="evenodd" clip-rule="evenodd"
            d="M17.5795 18.0534C17.5795 18.8358 18.214 19.4702 18.9962 19.4702C19.7785 19.4702 20.4121 18.8358 20.4121 18.0534C20.4121 17.2713 19.7785 16.6367 18.9962 16.6367C18.214 16.6367 17.5795 17.2713 17.5795 18.0534Z"
            fill="url(#paint1_linear_3510_8119)" />
    </g>
    <defs>
        <linearGradient id="paint0_linear_3510_8119" x1="22.1592" y1="8.83383" x2="4.7376" y2="18.5137"
            gradientUnits="userSpaceOnUse">
            <stop stop-color="#EC796B" />
            <stop offset="1" stop-color="#E175B1" />
        </linearGradient>
        <linearGradient id="paint1_linear_3510_8119" x1="20.4111" y1="17.0597" x2="17.5776" y2="17.3594"
            gradientUnits="userSpaceOnUse">
            <stop stop-color="#EC796B" />
            <stop offset="1" stop-color="#E175B1" />
        </linearGradient>
        <clipPath id="clip0_3510_8119">
            <rect width="25.3744" height="25.3744" fill="white" />
        </clipPath>
    </defs>
</svg>
