<svg width="20" height="20" viewBox="0 0 20 20" fill="none" xmlns="http://www.w3.org/2000/svg">
    <g clip-path="url(#clip0_3510_8180)">
        <path
            d="M16.6667 10.835C16.6667 15.0017 13.75 17.085 10.2834 18.2933C10.1018 18.3549 9.90466 18.3519 9.72504 18.285C6.25004 17.085 3.33337 15.0017 3.33337 10.835V5.00168C3.33337 4.78066 3.42117 4.5687 3.57745 4.41242C3.73373 4.25614 3.94569 4.16834 4.16671 4.16834C5.83337 4.16834 7.91671 3.16834 9.36671 1.90168C9.54325 1.75084 9.76784 1.66797 10 1.66797C10.2322 1.66797 10.4568 1.75084 10.6334 1.90168C12.0917 3.17668 14.1667 4.16834 15.8334 4.16834C16.0544 4.16834 16.2663 4.25614 16.4226 4.41242C16.5789 4.5687 16.6667 4.78066 16.6667 5.00168V10.835Z"
            stroke="#409B3F" stroke-width="1.66667" stroke-linecap="round" stroke-linejoin="round" />
    </g>
    <defs>
        <clipPath id="clip0_3510_8180">
            <rect width="20" height="20" fill="white" />
        </clipPath>
    </defs>
</svg>